<svg xmlns="http://www.w3.org/2000/svg" viewBox="0 0 161.59 43.94"><defs><style>.cls-1{fill:#fff;}.cls-2{fill:#262525;}</style></defs><title>Asset 1</title><g id="Layer_2" data-name="Layer 2"><g id="Layer_1-2" data-name="Layer 1"><path class="cls-1" d="M161.57,17a15.53,15.53,0,0,0-.5-3.57,15.2,15.2,0,0,0-29.87,3.92h0s0,.33,0,.79A7.43,7.43,0,1,1,128,11.21h0l4.89-6a15.19,15.19,0,1,0,2.21,22.27,15.44,15.44,0,0,0,3.19-5.62,29.37,29.37,0,0,0,.72-5.12A7.43,7.43,0,0,1,142.52,11V34.71h7.75V11a7.85,7.85,0,0,1,3.57,6.45v-.18a3.88,3.88,0,0,0,7.75,0,2.11,2.11,0,0,0,0-.25"/><path class="cls-1" d="M69.48,2.14a15.22,15.22,0,0,0-15.2,15.19v0h0V41.94H62V30.57A15.19,15.19,0,1,0,69.48,2.14"/><path class="cls-1" d="M42.33,9.9a7.44,7.44,0,1,0,7.44,7.43A7.43,7.43,0,0,0,42.33,9.9m0,22.63a15.2,15.2,0,1,1,15.2-15.2,15.22,15.22,0,0,1-15.2,15.2"/><path class="cls-1" d="M30.38,17.35A15.23,15.23,0,0,0,19.07,2.66V0H11.31V2.66a15.2,15.2,0,0,0,0,29.38v2.67h7.76V32A15.22,15.22,0,0,0,30.38,17.35"/><path class="cls-1" d="M96.62,24.77a7.45,7.45,0,0,1-6.37-3.61H103a7.42,7.42,0,0,1-6.36,3.61m0-14.87a7.43,7.43,0,0,1,6.31,3.51H90.31A7.43,7.43,0,0,1,96.62,9.9m0-7.76a15.2,15.2,0,0,0,0,30.39,14.93,14.93,0,0,0,2.93-.29,15.19,15.19,0,0,0-2.93-30.1"/><path class="cls-2" d="M123.76,24.77a7.44,7.44,0,1,0-7.44-7.44,7.45,7.45,0,0,0,7.44,7.44"/><path class="cls-2" d="M69.48,9.9a7.44,7.44,0,1,0,7.44,7.43A7.44,7.44,0,0,0,69.48,9.9"/><path class="cls-2" d="M96.62,9.9a7.43,7.43,0,0,0-6.31,3.51h12.62A7.43,7.43,0,0,0,96.62,9.9"/><path class="cls-2" d="M18.71,10.73A7.54,7.54,0,0,0,8.82,21.36a5.88,5.88,0,0,0,2.37,2.37,7.54,7.54,0,0,0,10.62-9.9,6.48,6.48,0,0,0-3.1-3.1"/><path class="cls-2" d="M157.25,17.19h.34c.38,0,.7-.13.7-.44s-.2-.47-.65-.47a1.58,1.58,0,0,0-.39,0Zm0,1.71h-.7v-3a7.58,7.58,0,0,1,1.17-.1,1.7,1.7,0,0,1,1,.24.77.77,0,0,1-.32,1.38v0c.3.09.45.33.54.74a2.74,2.74,0,0,0,.22.74h-.74a2.39,2.39,0,0,1-.24-.74c-.06-.31-.24-.46-.63-.46h-.34Zm.47-4a2.44,2.44,0,0,0,0,4.87,2.34,2.34,0,0,0,2.33-2.42,2.37,2.37,0,0,0-2.34-2.45Zm0-.61a3.06,3.06,0,1,1,0,6.11,3.06,3.06,0,1,1,0-6.11Z"/><path class="cls-1" d="M71.63,39.82A1.79,1.79,0,0,0,69.76,38a2,2,0,0,0-2,1.72,1.9,1.9,0,0,0,2,2,1.8,1.8,0,0,0,1.92-1.82m-4.44-.24c0-1.56.28-2.4,1.87-3.18,1.09-.52,2-.65,2.11-1.5l.4.23c-.17,1-1.22,1.2-2.24,1.67a2.2,2.2,0,0,0-1.55,1.77,2.43,2.43,0,0,1,2-1.09,2.26,2.26,0,0,1,2.32,2.34,2.31,2.31,0,0,1-2.43,2.32,2.45,2.45,0,0,1-2.52-2.56"/><polygon class="cls-1" points="83.12 36.95 83.12 41.94 82.61 41.94 82.61 37.81 79.44 41.94 79 41.94 79 36.95 79.5 36.95 79.5 41.07 82.68 36.95 83.12 36.95"/><path class="cls-1" d="M90.22,39.45a2.56,2.56,0,0,1,2.62-2.61A2.34,2.34,0,0,1,95,38.12l-.41.24a1.9,1.9,0,0,0-1.77-1,2.13,2.13,0,0,0,0,4.26,2,2,0,0,0,1.8-1l.42.25a2.46,2.46,0,0,1-2.22,1.27,2.56,2.56,0,0,1-2.62-2.61"/><polygon class="cls-1" points="106.29 37.44 104.47 37.44 104.47 41.94 103.97 41.94 103.97 37.44 102.16 37.44 102.16 36.95 106.29 36.95 106.29 37.44"/><path class="cls-1" d="M118.12,39.45A2.12,2.12,0,1,0,116,41.58a2.1,2.1,0,0,0,2.12-2.13m.5,0A2.57,2.57,0,0,1,116,42.06a2.37,2.37,0,0,1-2.15-1.27v3.15h-.5V37h.5v1.16A2.37,2.37,0,0,1,116,36.84a2.57,2.57,0,0,1,2.58,2.61"/><path class="cls-1" d="M130.7,39.45a2.11,2.11,0,1,0-2.11,2.13,2.1,2.1,0,0,0,2.11-2.13m-4.73,0a2.62,2.62,0,1,1,2.62,2.61A2.59,2.59,0,0,1,126,39.45"/></g></g></svg>