<svg xmlns="http://www.w3.org/2000/svg" viewBox="0 0 124.08 190.48"><defs><style>.cls-1{fill:#333;}</style></defs><title>Asset 9</title><g id="Layer_2" data-name="Layer 2"><g id="Layer_1-2" data-name="Layer 1"><path class="cls-1" d="M66.66,73.32c-.44-.14-.7-.31-.86-.25s-.27.37-.41.56c.21.1.43.3.63.28s.32-.28.64-.59M41.44,129.58l1.08-1.91-.24-.15c-.84.3-.53,1.39-1.15,1.84l.31.22m1.09-4.07c.59.38,1.17.91,1.71-.08-1-.77-1.2-.76-1.71.08m-5.57,14,2-1.85c-1.45-.11-1.45-.11-2,1.85M21.32,95.82c0,.37.07.65.11,1.05h1.63c-.29-.92-.9-1.07-1.74-1M40.6,130l-1,2.33.2.16L41.3,131c-.17-.39-.33-.77-.49-1.16l-.21.11M17.75,162.83l1.3,1.36,1.82-.6-3.06-1-.06.2m17.17-14.61c-.88,2-.66,4-1.07,5.83l.18.16c.13-.12.36-.23.38-.36.27-1.7.51-3.4.75-5.1,0-.1-.1-.22-.24-.53m20.16-41.58a15.15,15.15,0,0,0-3.51,3.84c-.13.16,0,.52,0,.78.27,0,.62,0,.81-.11a17.37,17.37,0,0,0,1.4-1.32s.13-.11.12-.15c-.31-1.25,1.06-1.83,1.19-3M77.83,75.07c1,.13,1.09,0,2.3-3.36L78.3,70.55l-.47,4.52M72.3,73.68c.32-.61.65-1.22,1-2-.3-.34-.31-.8.46-1l-.4-.93c-.38-.14-.7-.28-1-.39l-.94-.27A9.18,9.18,0,0,0,72,73.77l.27-.09M43.07,95.62c0,1.93.49,2.63,2,3,.79.2,1.56.46,2.35.68a8.91,8.91,0,0,0,.9.16l.14-.3-5.44-3.56M95.68,19.25a5.65,5.65,0,0,1,.75-.35c.93-.31,1.15-.19,1.62.67a2.56,2.56,0,0,0,.67.59c.12-.25.27-.5.37-.76.2-.54.37-1.09.61-1.77-.63,0-1.17,0-1.7-.09s-1-.19-1.08-.8a11.15,11.15,0,0,0-.43-1.18c-1.27,1.06-.1,2.58-.81,3.69M33.25,128c-3-3.11-5.45-4.11-7.87-2.79L33.25,128m-2.69,8.53c0,.34-.06.62-.1,1.14a5.77,5.77,0,0,0,1.62-.88c.51-.59.32-1.21-.66-1.48A7.91,7.91,0,0,1,29,134a3.42,3.42,0,0,0-1-.32c-.83,2.31.53,2.68,2.59,2.8m18.31-22.39c-.33.46-.65.93-1,1.36a6.3,6.3,0,0,1-1.13,1.12c-1.14.77-1.21,2-.1,2.57a1.52,1.52,0,0,0,1.86-.87c.28-1.13.6-2.25.86-3.39a2.09,2.09,0,0,0-.12-.72l-.36-.07M89.57,19a3.24,3.24,0,0,0,.21,1,5.5,5.5,0,0,0,.9,1.15,1.17,1.17,0,0,1,.41,1.37c-.19.54.14.74.72.49l.89-.39,1.15.72c.24-.95.43-1.73.66-2.65-2.08.38-3.24-1-4.94-1.69M39.87,160.78l.64.63c.23-.23.62-.44.61-.62-.06-.76.56-.89,1-1.23.94-.8,1.86-1.63,2.82-2.41.56-.46,1.18-.84,1.94-1.37a3.1,3.1,0,0,0-2.36,0,7.19,7.19,0,0,0-2.86,2.29c-.12.15-.19.37-.34.47a3.62,3.62,0,0,0-1.42,2.25M44,131.16c.19,0,.47,0,.56-.13a2.24,2.24,0,0,1,2-.67c1.31.07,2.65-.25,3.94.26a1.11,1.11,0,0,0,.95,0c.65-.57,1.33-.34,2-.3a1.41,1.41,0,0,0,1-.41c.15-.18,0-.61,0-.7a7.18,7.18,0,0,1-1.62-.29,3.07,3.07,0,0,0-2.41-.41c-.57.19-1.24,0-1.81.44-.23.18-.71.05-1.08.06-1.57,0-2.53,1.13-3.63,2a1.72,1.72,0,0,1,.07.21M74.23,68.31c.74-1.51.07-4.1-1.18-4.54a5.83,5.83,0,0,1-2.07-1l-.85-.73-.22.1a27.65,27.65,0,0,0,.32,2.9c.08.36.56.66.9.93.51.41,1.06.77,1.58,1.15l1.52,1.14M70.55,30c2.39.7,4.14,2.49,6.43,3.42s4.41,2.18,6.61,3.29l.22-.21c-.14-.2-.23-.47-.41-.59-1.42-1-2.82-2-4.28-2.9a33.9,33.9,0,0,0-7.19-3.17,7.55,7.55,0,0,0-1.26-.22l-.12.38M61.91,77.24a24.52,24.52,0,0,0,1.57-3.39c.13-.42-.35-1.11-.71-1.56-1-1.22-2-2.39-3.05-3.56a2.19,2.19,0,0,0-.66-.49c1.09,2.88,1.11,6.06,2.85,9m51.47-51.89c-1.33.65-2.56,1.08-3.43,2.23-.65.85-1.64,1.44-2.38,2.24s-1.36,1.74-2,2.61c-.16.19-.29.53-.47.55-1.07.14-.7.85-.69,1.49,2.59-1.34,8.67-7.41,9-9.12M100.11,5c-.46.94-1.27,1.8-1.19,2.58a15,15,0,0,1-.28,3,.57.57,0,0,0,.17.45c.62.41.55.94.42,1.55a1,1,0,0,0,.34.77,10.14,10.14,0,0,0,1.23.78.85.85,0,0,0,0,.38A3.54,3.54,0,0,0,101,15c.15-.14.36-.26.43-.43.67-1.49.11-3,0-4.49a12.54,12.54,0,0,1-.1-1.61,7.14,7.14,0,0,0-.83-3.07c0-.13-.22-.21-.42-.38m-13,68.47a24.14,24.14,0,0,0-3,1.73c-1.25,1-2.72,1.71-3.46,3.28-.25.54-1,.87-1.39,1.34a16.52,16.52,0,0,0-1.1,1.4l.22.3,1.35-.48c.8-.27,1.63-.46,2.39-.8.55-.24,1.35-.6,1.45-1,.34-1.45,2.13-1.83,2.29-3.36,0-.32.5-.58.7-.9s.49-.9.74-1.35l-.17-.12m3.4-15.76a17.14,17.14,0,0,1-1.78,1.18,28.43,28.43,0,0,0-4.27,3.14,16.5,16.5,0,0,0-1.88,1.53,12.74,12.74,0,0,0-1.38,1.93c-.33.53-.59,1.11-.8,1.5.72.47,1.29.8,1.83,1.18.39.29.72.3,1-.07,1.24-1.54,2.49-3.07,3.67-4.64A1.32,1.32,0,0,0,87,62.37a1.42,1.42,0,0,1,.73-2.15,3.4,3.4,0,0,0,2-1.35c.32-.34.68-.64,1-1l-.18-.16M50.72,156.31l1.55.58a3,3,0,0,1-.61.38,16.66,16.66,0,0,0-5.31,2.53c-.61.41-1.19.86-1.79,1.29a1.7,1.7,0,0,0-.27,1.69c.42.45.85.22,1.3-.06.88-.56,1.87-1,2.69-1.6,1.86-1.42,3.67-2.89,5.45-4.41a4.33,4.33,0,0,0,1.07-1.61,1.53,1.53,0,0,0-.2-1.18,2.6,2.6,0,0,0-3.31-.82,1,1,0,0,0-.08,1.53c.23.3.44.63.67,1l-1.16.73m23-94.3c0-.06.06-.13,0-.18-.53-2.17-1-4.36-1.62-6.5-.49-1.69-2.08-2.36-3.39-3.25a20,20,0,0,0-2-1l-.21.23a9.08,9.08,0,0,0,.83,2.28c.69.94.71,2,1.09,3.05s.34,2.12.75,3.09a3,3,0,0,0,1.47,1.18c1,.45,2,.76,3,1.15M88.25,36.54l-2.08-1.78A41.61,41.61,0,0,1,83,32.05a24.18,24.18,0,0,0-5.11-3.71c-.69-.4-1.4-.78-2.06-1.22a4,4,0,0,1-.66-.79c-1.52.16-3-.44-4.83-.25a4,4,0,0,0-4.46.06c.44,1.78,1.8,2.42,3.5,2.78-.18-.76.24-.87.81-.89a7.62,7.62,0,0,1,4.07.71c.59.33,1.28.47,1.88.78,2.33,1.15,4.71,2.23,6.94,3.55a48.82,48.82,0,0,1,4.44,3.36,4.3,4.3,0,0,0,.59.34l.17-.23m4.88-18.65c0-.57,0-1.11,0-1.65a21.59,21.59,0,0,0-.53-5.79C92.2,8.69,91.49,7,90.88,5.27c-.08-.22-.35-.37-.51-.57s-.16-.31-.27-.44c-.24-.3-.45-.75-.76-.83-.55-.16-.72.33-.72.79,0,1.45,0,2.91,0,4.36a.42.42,0,0,0,.08.28A2.66,2.66,0,0,1,89.1,11a.62.62,0,0,0,.05.39,13,13,0,0,1,1.11,1.48,12,12,0,0,1,.59,2c-.56,1.07.19,2.3,2.28,3M52.82,117.76c-.73.68-1.63,1.16-1.22,2.37.06.2-.33.55-.56.89a5.53,5.53,0,0,0,2,1.25c1.62.62,3.41.61,5,1.56a3.15,3.15,0,0,0,3.22-.14c-.14-.57-.25-1.16-.45-1.73a1.21,1.21,0,0,0-.54-.66,12,12,0,0,1-3.54-3,1,1,0,0,0-.87-.3,2.9,2.9,0,0,1-3-.23M82.6,82.61a8.87,8.87,0,0,0,4.67,1,7.78,7.78,0,0,0,2.14-.74c.33-.13.63-.32,1-.45a30.72,30.72,0,0,0,3.72-1.57A11.86,11.86,0,0,0,97.8,77.1a14.23,14.23,0,0,1,1.5-1.61l-.18-.26c-.75.37-1.54.68-2.25,1.12a43.13,43.13,0,0,1-5.58,2.55c-1.48.63-3,1.24-4.43,1.91-.41.19-.68.68-1.09.84a20.6,20.6,0,0,1-2.21.61c-.26.07-.51.19-1,.35m3.82-13.9a7,7,0,0,0,2.13-1.37,6.65,6.65,0,0,1,3.19-1.49,3.69,3.69,0,0,0,2.46-1.4,7.16,7.16,0,0,0,1.35-6,11.92,11.92,0,0,0-.79-1.75A31,31,0,0,0,92,59.84c-.56.83-1.43,1.56-1.41,2.72,0,.07-.1.17-.18.23a8.56,8.56,0,0,0-2.52,3.42c-.46.84-1,1.66-1.47,2.5m6.76,1.46c-1.18,0-2.09.08-2.75,1-.15.21-.49.27-.73.42-.67.41-1.43.53-1.3,1.77a21.8,21.8,0,0,1-.48,4.51c.63-.21,1.23-.39,1.82-.62a18.2,18.2,0,0,0,1.7-.74c1.27-.64,2.52-1.31,3.78-2s2.32-1.16,3.47-1.77a6.61,6.61,0,0,0,1.28-.88,30.5,30.5,0,0,0,2.92-3c-.22,0-.45-.08-.68-.09l-2.82-.1s-.08,0-.1,0c-1,.85-2,1.68-2.93,2.58-.33.33-.45.87-.77,1.24-.19.22-.55.28-.84.41l-.16-.17c0,.18,0,.37-.08.55a2,2,0,0,1-2.11,1.94c-.54,0-1,0-1.27.67,0,.15-.42.2-.65.29-.07-.25-.28-.57-.2-.74.61-1.3,1.28-2.57,2-3.83.25-.48.57-.92,1-1.53m-82,65.26c1,3,3.35,4.35,6,5.06a17.65,17.65,0,0,0,4.49.12c1.59,0,3.18,0,4.76-.07a13.09,13.09,0,0,0,1.53-.21l.06-.22a19.63,19.63,0,0,1-2.54-1.05c-2-1.21-4.3-1.37-6.5-1.88-.92-.22-1.92-.1-2.85-.3-1.19-.26-2.34-.69-3.51-1-.47-.15-.95-.28-1.43-.41m29.67-38c-.92-2-1.66-3.89-2.64-5.66a5.8,5.8,0,0,0-3.83-2.7c.1,1.29.18,2.49.27,3.69l-.25.07a3,3,0,0,1-.31-.39,2.89,2.89,0,0,0-1.33-1.52,2.38,2.38,0,0,1-1-2.59c.15-.45.11-.78-.31-1a5.81,5.81,0,0,1-2.29-2.68,3.2,3.2,0,0,0-.25-.28,11.06,11.06,0,0,0,.56,4.81c.1.37.25.74.34,1.11A5.84,5.84,0,0,0,33.22,94c2.29,1.17,4.66,2.21,7,3.3a3.78,3.78,0,0,0,.62.13m-5.56,77.69a2.49,2.49,0,0,0-.16,2.14c.42,1.07.49,2.21,1.47,3.1.53.48.58,1.48.87,2.23a2.9,2.9,0,0,0,.41.58l.36-.15c-.12-1.18-.29-2.36-.34-3.54s0-2.43,0-3.65c0-.33,0-.81-.25-1a3.18,3.18,0,0,1-1.12-2.09,3.72,3.72,0,0,0-.86-2c-.27-.27-.24-.86-.34-1.3a4.36,4.36,0,0,0-.16-.83c-.4-.85-.93-1.64-.25-2.63.15-.23-.06-.79-.24-1.13s-.51-.73-.08-1.21c.13-.15.06-.5.07-.76,0-1.28,0-2.55.09-3.82a28.64,28.64,0,0,1,.32-2.92c.06-.46.07-.85-.37-1.11-.26-.16-.61-.45-.8-.38s-.39.49-.46.79a12.48,12.48,0,0,0-.49,4.59,14.78,14.78,0,0,1,.22,1.74c0,1.1-.12,2.2-.2,3.31a15.45,15.45,0,0,0,.85,5.86c.32,1,1,1.89.71,3.07-.07.26.43.67.72,1.09M71.1,83.5c-.67,0-1.21-.21-1.2-1.16,0-.39-.69-.74-1-1.16-1.21-1.7-2.4-3.42-3.59-5.12a2.87,2.87,0,0,0-.28-.3,8.41,8.41,0,0,0-1.63,3.17c-.83,2.53-.73,3.5.18,5.38l1-1.63,1-1.57.29,0a17.88,17.88,0,0,1,.09,3.18,15.47,15.47,0,0,1-1,2.55,25.76,25.76,0,0,0-.77,2.77,3.79,3.79,0,0,0,.15,1.16c1.79-.71,2.5-2.39,3.74-3.5s2.82-1.82,3.1-3.8M98.89,41c.19.2.4.6.57.58a42.1,42.1,0,0,0,4.62-.51,9.39,9.39,0,0,0,4.07-2.21c1.23-1,2.52-1.94,3.64-3a12.62,12.62,0,0,0,1.86-2.59c1-1.61,1.87-3.27,2.8-4.91a2.8,2.8,0,0,0,.25-2.46c-.37.4-.72.75-1,1.12-.72.79-1.41,1.6-2.14,2.37s-1.23,1.24-1.85,1.85-1.36,1.31-2.06,1.94c-1,.87-2,1.66-3,2.5-1.38,1.18-3.08,2-4,3.71,0,.08-.15.12-.25.21L101,38.82c.54,1.62-.21,2.3-2.12,2.18M56.68,137.21c-.84-.5-1.68-1.06-2.57-1.52a12.28,12.28,0,0,0-1.71-.54c.19.63.38,1.15.51,1.67.3,1.22-.29,2-1.57,1.93a8.45,8.45,0,0,1-2.2-.28.91.91,0,0,1-.42-1.57,4.24,4.24,0,0,0,1.4-2.07c-.13-.07-.41-.31-.49-.26-1.36.93-3.06.63-4.51,1.24a3.11,3.11,0,0,1-1.24-.06c-1.2-.12-1.72.47-1.47,1.66a3.85,3.85,0,0,0,.26.63c.25-.13.5-.26.74-.4.55-.32,1-.5,1,.46.72.11.27.71.44,1,.32.57-.25.71-.4,1a6.42,6.42,0,0,0-.61,1.49,2.74,2.74,0,0,1,2.69-.42,1.38,1.38,0,0,0,1.79,1c2-.42,4.11-.34,5.89-1.58.65-.45,1.43-.7,2.11-1.12a.69.69,0,0,0,.32-1.06c-.15-.28,0-.74.09-1.24m3.46-73.1c.78,1.15,1.43,2.15,2.11,3.14.21.31.46.59.7.88.92,1.15,2.12,1.31,3.68.86-.22-1.09-.42-2.23-.66-3.36q-.52-2.59-1.09-5.16c-.1-.44-.27-.85-.4-1.28-.39-1.36-.76-2.73-1.19-4.08a22.06,22.06,0,0,0-1.11-2.78,1.26,1.26,0,0,0-.89-.54c-.85-.12-1.71-.14-2.45-.18-.33.87-.63,1.69-.94,2.49a1.94,1.94,0,0,0,.66,2.19c.6.38.83.73.52,1.44-.14.34,0,.81.05,1.22l1.08-.13c.51-.06,1-.15,1.53-.18s.73.31.87.76a4.44,4.44,0,0,0,.35.77c0,.08.17.16.17.23a3.08,3.08,0,0,1-.16.73c-.34.95,0,2.31-1.51,2.57-.38.07-.73.23-1.32.41m-.45,27.83.52,0a.78.78,0,0,0,.1-.31c-.18-1.85,0-3.73-.51-5.57a5.8,5.8,0,0,1,.09-1.89,15.55,15.55,0,0,1-.6-1.59c-.3-1.14-.51-2.3-.82-3.43q-.84-3-1.77-6a14.66,14.66,0,0,0-.89-1.8C55.19,72.69,54,73.3,54,74.64c0,.07,0,.17,0,.19-.77.6-.43,1.63-1,2.37a14.5,14.5,0,0,0-.88,2.29c-.51,1.08-.19,2.32-.73,3.4-.1.2.1.55.17.84a16.13,16.13,0,0,1,.37,1.81,5.79,5.79,0,0,0,1.34,2.7c.22.31.4.67.62,1s.58.77,1,1.31c.48-1.34-.71-2.42.06-3.34-.2-.29-.49-.52-.51-.76-.14-1.92-.3-3.83-.29-5.75a7.93,7.93,0,0,1,.64-2.21.33.33,0,0,1,.21-.19,4.17,4.17,0,0,1,.73,0c.08.9,1.8.23,1.48,1.57A15.75,15.75,0,0,0,57,82.21a.6.6,0,0,0,0,.38c.92,1.6.83,3.44,1.27,5.14.25,1,.64,2,1,2.94.12.36.26.71.46,1.27M39.28,154.1c.47-.27.91-.59,1.4-.81,1.48-.67,2.57-2.09,4.32-2.26a20.86,20.86,0,0,0,2.08-.31,3.43,3.43,0,0,0,.68-.36,2.84,2.84,0,0,1,1.05-.46c1.66,0,2.93-1,4.32-1.66a25.71,25.71,0,0,0,4-2.56c-.5,0-1.21-.15-1.47.11-.74.75-1.6.26-2.37.39a25.28,25.28,0,0,1-4.26.28,22,22,0,0,1-3.23-.37c-.74-.11-1.47-.28-2.21-.43a24,24,0,0,1-2.55-.54.7.7,0,0,0-1,.45,12,12,0,0,0-.42,1.79c0,.09,0,.21,0,.29-.81,1.78-.23,3.69-.47,5.52,0,.25-.06.5-.1.75l.2.18M22.7,100.59a5.38,5.38,0,0,1,.68,3.83,2.59,2.59,0,0,0,.72,2.43,15.57,15.57,0,0,0,1.26-1.11,2.09,2.09,0,0,1,2.42-.48,1.66,1.66,0,0,1,1.12,1.59,2.34,2.34,0,0,1-1.51,1.77,16.44,16.44,0,0,1-1.81.27,7.8,7.8,0,0,0,.61.86,11.94,11.94,0,0,0,3.36,2.64c.28.14.47.45.75.61a4.73,4.73,0,0,0,1.93,1A4.48,4.48,0,0,1,35,115.23c1.2,1,2.64,1,4,1.37.11,0,.45-.31.42-.37a16.73,16.73,0,0,0-1.21-2.69c-.62-1-1.44-1.83-2.13-2.77-.46-.63-.7-1.51-1.28-2-1.8-1.36-2.88-3.4-4.81-4.67s-3.52-2.37-5.32-3.49a2.11,2.11,0,0,0-2-.07m-12.76,28a36.26,36.26,0,0,0,2.61,2.71,10.18,10.18,0,0,0,6.12,2.88c1.36.06,2.71.32,4.08.43a2,2,0,0,0,1.81-.63,6.93,6.93,0,0,1,2.3-1c-.1-.2-.15-.57-.33-.65-.86-.39-1.75-.7-2.7-1.06,0-.22,0-.5.05-.75a3.57,3.57,0,0,1-1.14-.45,13.86,13.86,0,0,0-3-1.88c-.92-.52-1.76-1.17-2.66-1.73a3.2,3.2,0,0,0-1-.37,9.31,9.31,0,0,0-3.68-.1,2,2,0,0,0-1.1.55c-.54.71-1,1.51-1.33,2.09m62.41-20a2.63,2.63,0,0,0,2.27,1.1,4.76,4.76,0,0,1,1.72.32,8.33,8.33,0,0,0,7.11-1.21,3.56,3.56,0,0,1,.81-.3A2.44,2.44,0,0,0,85.77,105c-.14-.3-.29-.59-.43-.89a2,2,0,0,0-2-1.27,46.63,46.63,0,0,1-5.42-.29,32.84,32.84,0,0,1-3.54-1,7.91,7.91,0,0,0-2.2-.32c-1.24,0-2.48.36-3.72.35s-2.5-.3-3.75-.41a1.24,1.24,0,0,0-.94.32.94.94,0,0,0,.16.9c1.15.94,2.35,1.82,3.53,2.71a3.23,3.23,0,0,1,.55.4c.81.9.69,1,2,.21a3.24,3.24,0,0,1,1.52-.42c.91,0,1.82.14,2.73.16.35,0,.69-.2,1-.21a10.74,10.74,0,0,1,2.34.08,1.25,1.25,0,0,1,0,2.42,28.8,28.8,0,0,1-3.33.65c-.6.09-1.22.09-2,.15M33.2,80.85l1,.81a2.6,2.6,0,0,0,.38.27c.48.21,1.11.28,1.43.64.94,1,2.32,1.52,3,2.85.37.68,1.43,1,2.2,1.41.11.07.37,0,.51-.12.85-.53,1.68-1.09,2.58-1.68l2.42,2.14a4.32,4.32,0,0,1-2.18,2.07.54.54,0,0,0-.21,1c1.39,1.26,2.81,2.49,4.41,3.89-.07-.76-.08-1.32-.16-1.87-.24-1.55-.42-3.11-.81-4.62a4.91,4.91,0,0,0-1.08-2.1c-1.21-1.36-2.24-2.89-3.34-4.35A22.61,22.61,0,0,0,40.94,78a31.56,31.56,0,0,0-3.76-2.68c-.5-.35-1-.69-1.52-1a4.9,4.9,0,0,0-1.32-.76,4,4,0,0,1-1.5-.49c-.78-.52-2.61.52-3,1.42-.42,1.1.09,2,.38,3a4.23,4.23,0,0,0,2.29,2.76c.23.11.38.4.57.6l.08,0m-12.72,73.9c-.49-1-.95-2.08-1.51-3.08-.14-.26-.56-.37-.94-.59.16-.71-.51-1.09-1.08-1.48a16.25,16.25,0,0,0-1.82-.92c0-.74-.59-1-1.22-1.2a5.79,5.79,0,0,0-4.44,0,.7.7,0,0,1-.55,0c-.79-.47-1.25,0-1.73.53a7.23,7.23,0,0,1-.63.61,1.77,1.77,0,0,0-.16,2.65,20.69,20.69,0,0,1,1.26,1.89,6.14,6.14,0,0,0,1.13,1.39c1.05.85,2.16,1.63,3.29,2.38a5.23,5.23,0,0,0,1.33.46c.12,0,.29,0,.37.12.88,1,2.2,1.1,3.28,1.68a8.07,8.07,0,0,0,4.67,1.14,4.52,4.52,0,0,1,1.81.65c.41.17.79.39,1.16.57a15.23,15.23,0,0,0-1.53-2.83,5.92,5.92,0,0,0-2-1.13,2.94,2.94,0,0,0-.92-.26,10.1,10.1,0,0,0-1.74,0c-.78.07-1.54.28-2.32.33-1,.07-1.4-.85-1-1.79a2.81,2.81,0,0,1,2.53-1.66c.61-.09,1.31.43,2,.66a7,7,0,0,0,.77.15,2.44,2.44,0,0,0,.1-.24m83.2-127.3.11.09a22.07,22.07,0,0,0,2.53-1.95,14,14,0,0,1,6.31-3.69c1.27-.36,2.57-.61,3.84-1,.57-.18,1-.69,1.63-.83,1-.23,1.28-.78,1.31-1.74a2,2,0,0,1,.75-1.17,3.52,3.52,0,0,1,1.21-.5,4.12,4.12,0,0,1,1.23-.27c.82,0,1.58.87,1.47,1.49-.17.94-.24,1.9-.42,2.84a9.66,9.66,0,0,1-.54,1.3,10.35,10.35,0,0,0-.49,1.52c-.1.49,0,1-.14,1.51-.2.76-.53,1.48-.78,2.22a4.83,4.83,0,0,1-.28,1.12c-1,1.56-2,3.1-3,4.63-.23.33-.57.59-.8.92s-.49.87-.78,1.27a17.31,17.31,0,0,1-1.22,1.6,25.77,25.77,0,0,1-2.3,2.48c-.46.41-1,.74-1.5,1.13a45.48,45.48,0,0,1-4.35,2.88,6.46,6.46,0,0,1-1.14.5,12.75,12.75,0,0,1-1.76.63,8.14,8.14,0,0,1-3.77,0,15.27,15.27,0,0,0-2.56-.19c.37.69-.62,1.28.2,1.9a2.9,2.9,0,0,0,.76-.41c.31-.32.67-.61,1-.24a1.45,1.45,0,0,1,.18,1.14A5.8,5.8,0,0,1,98,49.4c-1.23,1-1.6,1.47-1.24,2.89,1.36-.36,2.51-1.69,4.16-1l.38.92c-.91.51-1.77,1-2.6,1.48s-.87,1-.29,1.74A3.56,3.56,0,0,1,99,56.7a10,10,0,0,0,.65,2.71,2,2,0,0,1,.13,1.9c-.24.77-.42,1.55-.62,2.33s0,1.1.63,1.14c1,0,2,0,2.93.15a11.65,11.65,0,0,1,2.6.65A21.09,21.09,0,0,1,108.07,67a1.25,1.25,0,0,1,.56.78,14.83,14.83,0,0,1,0,2l.71-.47a22.94,22.94,0,0,1,0,3.08c-.16,1.4-.23,2.89-1.5,3.89a5.68,5.68,0,0,0-1.09.9,22.62,22.62,0,0,1-4.65,4.36,22.31,22.31,0,0,0-2.7,2,4.65,4.65,0,0,1-2.24,1.3c-1.06.28-2,.85-3.08,1.2-1.4.48-2.73,1.43-4.27,1.19-1.22-.2-2.5.36-3.65-.35-1.34.49-2.49-.39-3.75-.54-1.64-.2-3.23-.74-4.86-1.09-.77-.16-1.22.33-1.14,1.22a3.57,3.57,0,0,1,1-.16,1.52,1.52,0,0,1,.8.35.9.9,0,0,1-.24.61,14.18,14.18,0,0,1-2.27,1.43c-.93.43-2,.68-1.91,2.07,1.17.55,2.59-.07,3.76.72-.15.36-.19.81-.39.89A5,5,0,0,1,75,93.1a6.25,6.25,0,0,0-4.76,1.79c-.51.42-1,.87-1.61,1.41a3.38,3.38,0,0,0,.55.09,9.16,9.16,0,0,1,4.5,1.35,5,5,0,0,0,2.07.8,22.82,22.82,0,0,0,4.88.18,8.48,8.48,0,0,1,4,.71,5.22,5.22,0,0,0,4.34-.06c1-.48,2.14-.22,3.2-.43a3.41,3.41,0,0,1,1,.19.87.87,0,0,1,.82.92,2,2,0,0,0,.42,1.09,1.45,1.45,0,0,1,.31,1.86,11.6,11.6,0,0,0-1.25,2.52,5.67,5.67,0,0,1-3.6,3.91,18.92,18.92,0,0,0-3.62,2.2c-1.6,1.17-3.06,2.6-5.19,2.66a21.48,21.48,0,0,1-3.19-.28,13.92,13.92,0,0,1-1.78-.42,16,16,0,0,1-3.63-1c-2.19-1.19-4.23-2.64-6.35-4a14.71,14.71,0,0,0-2.1-1.22c-1-.43-2.14-.73-3.28-1.1-.74.71-1.58,1.53-2.41,2.35a.39.39,0,0,0-.06.35.53.53,0,0,0,.38.2c1.33,0,2.66-.09,4-.08a2.66,2.66,0,0,1,.91.36,3.39,3.39,0,0,1-.45,1,1.65,1.65,0,0,1-.87.38c-.5.11-1,.11-1.51.23-1.61.4-3.21.83-5.05,1.32.22.32.35.68.59.83a22,22,0,0,1,5.46,4.33,1.22,1.22,0,0,0,.65.37c.89.13,1.21.74,1.48,1.49a7.26,7.26,0,0,0,.86,1.46c.13.21.43.37.47.59a23.93,23.93,0,0,1,.43,3.14,2.55,2.55,0,0,1-2,2.24,14,14,0,0,0-1.86.46,4.17,4.17,0,0,1-1.07.06,32.54,32.54,0,0,1-5.4-.38c-.85-.2-1.74-.22-2.6-.34-1.47-.22-2.93-.48-4.4-.69a.73.73,0,1,0-.83.92c1,.1,2.08.15,3.1.31.62.1,1.21.6,1.8.56a7,7,0,0,1,3.27.72c.57.23.69.41.47,1s0,1,.77,1.1a9,9,0,0,1,1.55.21,11.44,11.44,0,0,0,4.77,0,15.82,15.82,0,0,0,2.3-.82c.81-.24,1.68-.6,2.42.24a1,1,0,0,0,.11,1.34,1.69,1.69,0,0,1,.22,1.19,8.62,8.62,0,0,1-.39,1.38c-.18.62-.22,1.29-.87,1.69-.11.06,0,.42-.1.61a4.94,4.94,0,0,1-.8,1.8,30,30,0,0,1-3.12,2.36,1.87,1.87,0,0,1-1.05.49c-1.07-.08-1.12.62-1.35,1.37-.32,1.08-.59,2.28-1.93,2.66l-.66.19c0,.07,0,.15,0,.23.37,0,.79.19,1.09.07,1.27-.53,2.4,0,3.55.36a.74.74,0,0,1,.33,1.28,4.12,4.12,0,0,0-.39.6,5.06,5.06,0,0,1-.65,1.11,3,3,0,0,0-1.15,2.11,6.18,6.18,0,0,1-.65,1.9,6.59,6.59,0,0,1-.16,1.23c-.41,1.21-1.26,2.23-1.26,3.63a2.68,2.68,0,0,1-.94,1.71c-.78.7-1.93,1.06-2.55,1.86-1.1,1.41-2.76,1.66-4.17,2.37a23,23,0,0,0-5.46,3.13,1.66,1.66,0,0,1-.79.34c-1.12.18-2.24.33-3.37.47-.59.07-1.18.08-2,.13.36,1.05.67,1.89.94,2.74.36,1.16.72,2.32,1,3.49a33.31,33.31,0,0,1,1,4.58c.27,2.83.37,5.68.47,8.52a4.19,4.19,0,0,1-.36,2.05c-.73,1.39-1.67,1.65-3.19,1.2a8.5,8.5,0,0,0-2.52-.47c-.83,0-1.7.34-2.23-.49a5,5,0,0,1-.83-2.19c-.08-1.34-.24-1.72-1.46-2.21-.54-.23-1-.54-1-1.3a3.15,3.15,0,0,0-.3-1,7.4,7.4,0,0,1-.25-.89c-.27-1.27-.52-2.55-.81-3.81,0-.18-.34-.29-.47-.47a1.89,1.89,0,0,1-.46-.82c-.1-1.11-.09-2.22-.18-3.32-.06-.64-.07-1.37-.94-1.42,0-.94.07-1.81,0-2.68a2.06,2.06,0,0,0-1.77-2,21.29,21.29,0,0,0-2.53-.29,5.7,5.7,0,0,0-1.8,0,3.39,3.39,0,0,1-3.31-.66c-.83-.82-1.75-1.51-2.59-2.3a10.12,10.12,0,0,0-.79-.65c-.29-.23-.6-.44-.89-.67-.65-.52-1.21-1.3-1.94-1.51a4.66,4.66,0,0,1-3-2.12,1.27,1.27,0,0,0-.3-.39c-1.15-.87-2.37-1.66-3.45-2.62s-1.72-1.9-2.63-2.81C2.07,152.58,1.28,152,1.3,151c0-.09-.19-.17-.26-.28a10.39,10.39,0,0,1-.92-1.48,1.94,1.94,0,0,1,.49-2c.24-.33.65-.56.79-.92.26-.65.75-.79,1.34-.92,1.33-.3,2.66-.6,4-1,2-.62,3.83-1.61,6.05-1.55a4.29,4.29,0,0,1,3.07,1.21,3.08,3.08,0,0,0,.42.39c1.08.62,2.2,1.18,3.25,1.86a26.15,26.15,0,0,1,2.3,1.78c1.75,1.43,3.48,2.87,5.22,4.3l1.23,1c.73-4.05,1.41-7.84,2.12-11.74-.61,0-1-.06-1.44,0-2.11.09-4.21.24-6.32.28-1.77,0-3.55,0-5.32-.09a3.35,3.35,0,0,1-.77-.13c-.74-.19-1.49-.38-2.23-.61s-1.92-.1-2.51-.92a12.1,12.1,0,0,0-1.59-1.61,11.08,11.08,0,0,1-1.47-2c-.86-1.37-1.69-2.76-2.51-4.15a16.75,16.75,0,0,0-.91-1.61c-.74-1-.79-1.12-.23-2a3.27,3.27,0,0,1-.55-.8c-.25-.86-1-1.16-1.67-1.5-.38-.19-.81-.26-1.18-.46s-.66-.43-.64-.62a1.74,1.74,0,0,1,.54-.94c.28-.26.76-.33,1-.61,1-1.2,2.48-1.5,3.86-1.93a14,14,0,0,1,5.79-.28c1.27.15,2.68-.53,3.84.49.08.07.31,0,.47-.08.45-.06.9-.15,1.36-.18q2.37-.12,4.74-.21c.89,0,1.77,0,2.65-.06a23.7,23.7,0,0,1,3.84-.19,10.85,10.85,0,0,1,4,1.58c.48.27.66.81,1,1.26a7.79,7.79,0,0,0,1.85,1.55c0,.56,0,1,.05,1.65l1.1-1.43c.12-.11,0-.37.07-.54.32-.75.69-1.47,1-2.2s.75-1.54,1.22-2.49c-.56,0-.84.06-1.12.06-1.34,0-2.72.16-3.93-.62s-2.69-.52-3.63-1.66c-1.35,0-2.18-.83-3-1.7s-1.93-1.76-2.88-2.65a28.58,28.58,0,0,0-3.1-2.94,6.1,6.1,0,0,1-1.83-2.2c-.31-.54-.33-1.25-.64-1.79-1.15-2-2.62-3.89-2.91-6.3-.14-1.19-.44-2.43.45-3.57-1.08-.22-.92-1.21-.9-1.83a5,5,0,0,0-1.2-3c-.67-1-.77-1.49-.25-2.08a3,3,0,0,1,3.29-.66,14.89,14.89,0,0,0,2.21.68c.64.16,1.52-.21,1.73.84,0,0,.12,0,.17.09.61.43,1.23.85,1.82,1.32s.84.78,1.26,1.17a18.52,18.52,0,0,0,2.5,2.28c2.22,1.41,4.56,2.65,6.83,4a24.85,24.85,0,0,1,2.65,1.76A8.46,8.46,0,0,1,39.51,108c0,.13,0,.31.07.37a5.18,5.18,0,0,1,1.37,2,13.85,13.85,0,0,0,1.67,2.41c.45.61,1.17.74,1.54.27,1.26-1.61,2.48-3.24,3.75-4.84,1.11-1.39,2.29-2.74,3.4-4.13.26-.32.62-.79.55-1.1-.14-.67-.39-1.37-1.31-1.5a20.88,20.88,0,0,1-2.45-.61c-.29-.08-.58-.19-.87-.25-1.2-.23-2.47.24-3.66-.39-.23-.13-.69.18-1.17.32.08,0,0,0,0,0a5,5,0,0,0-3.45-1.81c-1.07-.14-1.52-.77-2.25-1.19a4.06,4.06,0,0,0-1.36-.34c-.41-.07-.89,0-1.23-.12A17.48,17.48,0,0,1,31,95.32c-1.15-.92-2.59-1.6-3.17-3.08a10.42,10.42,0,0,1-.36-1.88c-.4-2.09-.85-4.18-1.2-6.29-.18-1.09-.15-2.21-.31-3.31-.19-1.26-.46-2.51-.74-3.75-.38-1.7.35-3.28.45-4.93A13.73,13.73,0,0,1,26,69.77a3.06,3.06,0,0,1,2.31-2.16,2.91,2.91,0,0,1,2.33.28A33.44,33.44,0,0,0,36.18,70a14.87,14.87,0,0,1,7.19,4.55,29.64,29.64,0,0,1,2.57,3.72A5,5,0,0,0,48,80.4c.23-.92.45-1.78.65-2.66s.31-1.6.52-2.38a15.1,15.1,0,0,1,2.86-5.54,2.48,2.48,0,0,0,.68-2.67,4.61,4.61,0,0,1-.29-1.62,11.11,11.11,0,0,1,.08-2.08c.14-.9.93-1.11,1.66-1.32s.9-.51.73-1.22a15.94,15.94,0,0,1-.38-2.38c-.22-2.18-.43-4.36-.59-6.54a3.58,3.58,0,0,1,1.09-3.12c.9-.81,1.84-1.58,2.78-2.34a1.22,1.22,0,0,1,.64-.17,8.14,8.14,0,0,1,5.34,1.19,22.53,22.53,0,0,0,2.92,1.09c1.35.58,2.67,1.22,4,1.89a7.54,7.54,0,0,1,3.93,4.55c.7,2.28,1.29,4.59,1.93,6.89.14.52.29,1,.48,1.71.53-.63,1-1.08,1.3-1.58.63-.91,1.23-1.84,1.79-2.79,1.07-1.79,2.94-2.6,4.61-3.59a25.84,25.84,0,0,1,4-1.64c1-.39,2-1.12,3.25-.51,0,0,.16-.08.33-.17-1.12-.53-2.2-.94-3.19-1.53s-1.58-1.24-2.39-1.82a2.61,2.61,0,0,1-1.16-2.32c1.25,0,2.34.1,3.19,1.26A10.6,10.6,0,0,0,91,50.72c.35-1.25.65-2.24.9-3.24a.63.63,0,0,0-.2-.52c-.52-.45-1.07-.87-1.69-1.37-.45,1.2-1.13,1.71-2.26,1.33a.87.87,0,0,0-.39,0A1.07,1.07,0,0,1,86.17,46,2.5,2.5,0,0,1,87,43.63a2,2,0,0,1,2-.31c1.16.44,2.35.81,3.54,1.2.74-1.79.61-2.07-1-2.3a3.12,3.12,0,0,0-.41-.74,10,10,0,0,0-1-.92.57.57,0,0,0-.35-.14,4.71,4.71,0,0,0-2.19.17,3.44,3.44,0,0,1-2.18.08c-1.41-.35-2.77-.91-4.16-1.37a8.12,8.12,0,0,1-2.1-.71,20.54,20.54,0,0,0-4.88-2.36,14.51,14.51,0,0,0-2.48-.49c-.76-.14-1.38-.74-2-.86a8.34,8.34,0,0,1-3.89-2.09,4,4,0,0,1-1.56-2c-.13-.49-.68-.88-1-1.3-.17-.18-.37-.33-.55-.49a6.13,6.13,0,0,0-.8-.73c-.54-.34-1.35-1.58-1.11-2,.46-.8.14-1.2-.59-1.48A1.64,1.64,0,0,1,61.69,24a8.51,8.51,0,0,0,2.63-1,6.5,6.5,0,0,1,2.19-.81,17.51,17.51,0,0,1,3.3.65c2.75.6,5.6.86,8.18,2.13.77.39,1.52.84,2.27,1.27s1.39.79,2.08,1.19l-.23.14c0,.35-.09.86.1,1a8.06,8.06,0,0,0,2.63,1.87A5.92,5.92,0,0,1,87.33,32a17.41,17.41,0,0,0,4.58,2.83c.19-1.41.37-2.7.54-4s.34-2.53.45-3.8c0-.27-.16-.78-.34-.82-1.5-.35-1.89-1.94-3.06-2.72a7.85,7.85,0,0,1-1.74-2.58,15.61,15.61,0,0,1-1.15-3.58c-.1-.34-.08-.71-.15-1.06a30.07,30.07,0,0,1-.7-5.27c0-.67-.18-1.34-.22-2-.11-1.49-.23-3-.25-4.48a19.87,19.87,0,0,1,.21-3.17C85.59.7,86.92-.09,87.57,0c.81.12,1.62.25,2.42.42a1.47,1.47,0,0,1,.57.34c.36.32.64.78,1.06,1a3.76,3.76,0,0,1,1.72,1.89C94,4.78,94.52,6,95.15,7.25a3.3,3.3,0,0,0,.41-.57c.24-.57.45-1.16.68-1.73a5.32,5.32,0,0,1,2.81-2.88,3.06,3.06,0,0,1,2.24-.21,5.21,5.21,0,0,1,2.87,3.91c.25,1.38.26,2.8.39,4.2.08.84.19,1.67.3,2.5s.26,1.49.32,2.24a2.29,2.29,0,0,1-1.57,2.59c-.13.06-.22.21-.34.33.94.44.94.44.75,1.36.89.18,1.66.61,1.59,1.63a22.33,22.33,0,0,1-.53,3.24,12.8,12.8,0,0,1-.63,1.8c-.24.6-.5,1.2-.76,1.79"/></g></g></svg>