<svg xmlns="http://www.w3.org/2000/svg" viewBox="0 0 82.06 97.4"><defs><style>.cls-1{fill:#fff;}</style></defs><title>Asset 12</title><g id="Layer_2" data-name="Layer 2"><g id="Layer_1-2" data-name="Layer 1"><path class="cls-1" d="M62.53.07l.28.06c.29.07.55.2.83.29C64.52.72,76.85,4.75,80,5.78a2.78,2.78,0,0,1,2,2.3,2.66,2.66,0,0,1-1,2.62,2.89,2.89,0,0,1-3,.44L63.64,6.5c-1.45,4.44-2.89,8.81-4.36,13.3.4,0,.73.05,1.06.05H68.7A2.89,2.89,0,0,1,71.93,23c0,2.88.14,5.78-.06,8.65-.55,8.1-4.67,13.75-12.15,16.85a6.18,6.18,0,0,0-4,4.72,32.82,32.82,0,0,1-1.39,4.73c-1.95,5.17-4.34,7.56-9.57,9.71v24h1c3.62,0,7.23,0,10.84,0,1.91,0,3.24,1.17,3.24,2.84a2.92,2.92,0,0,1-3.23,2.86H27.05a2.87,2.87,0,1,1,0-5.7c3.92,0,7.85,0,11.93,0,0-.37,0-15.8,0-23.18,0-.73-.22-1-.92-1.23a12.65,12.65,0,0,1-7.63-7.11A44.41,44.41,0,0,1,28,53a6,6,0,0,0-3.91-4.49A18.76,18.76,0,0,1,13.25,38.2a1.62,1.62,0,0,0-1-.79A15.09,15.09,0,1,1,29.8,19.19c.13.5.31.66.81.66,7.32,0,14.64,0,22,0,.71,0,.83-.38,1-.88C55.28,13.69,57,8.41,58.73,3.1a6.66,6.66,0,0,1,.82-1.8A4,4,0,0,1,60.2.59a2.5,2.5,0,0,1,.64-.48A2.57,2.57,0,0,1,61.91,0,6.2,6.2,0,0,1,62.53.07Zm-43,37.66a1.33,1.33,0,0,0,.07.3c.15.24.31.48.48.71a13.44,13.44,0,0,0,6.18,4.56,10.93,10.93,0,0,1,7.19,8.39,18.86,18.86,0,0,0,3.4,8.06A6.13,6.13,0,0,0,43.4,62a6.61,6.61,0,0,0,4-3.11,20.13,20.13,0,0,0,2.74-7.13,10.38,10.38,0,0,1,3.52-6.24,17.81,17.81,0,0,1,4-2.31,13.87,13.87,0,0,0,6.56-5.5Zm-2-5.75H33.67l7.47,0c2.33,0,4.68.19,7,.13a1.68,1.68,0,0,0,1-.26c.67-.51.77-1.78,1.1-2.73.39-1.15.76-2.31,1.15-3.5H17.51ZM24,19.84c-.86-3.95-5.38-7-9.6-6.62a9.45,9.45,0,0,0-8.67,9.32c0,3.83,3,8.25,6,8.62V23.27c0-2.34,1.08-3.42,3.42-3.43ZM55.32,31.92H66.17V25.56c-2.84,0-5.62,0-8.39,0-.19,0-.47.29-.54.51C56.58,28,56,29.91,55.32,31.92Z"/></g></g></svg>