<svg xmlns="http://www.w3.org/2000/svg" viewBox="0 0 34.52 34.52"><defs><style>.cls-1{fill:#595959;}.cls-2{fill:#fff;}</style></defs><title>Asset 4</title><g id="Layer_2" data-name="Layer 2"><g id="Layer_1-2" data-name="Layer 1"><circle class="cls-1" cx="17.26" cy="17.26" r="17.26"/><path class="cls-2" d="M13.79,17.26a3.47,3.47,0,1,1,3.47,3.47,3.48,3.48,0,0,1-3.47-3.47m-1.87,0a5.35,5.35,0,1,0,5.34-5.34,5.35,5.35,0,0,0-5.34,5.34m9.65-5.56a1.25,1.25,0,1,0,1.25-1.24,1.25,1.25,0,0,0-1.25,1.24m-8.51,14a6,6,0,0,1-1.94-.36,3.28,3.28,0,0,1-1.19-.78,3.2,3.2,0,0,1-.78-1.2,5.62,5.62,0,0,1-.36-1.93c0-1.1-.06-1.43-.06-4.21s0-3.11.06-4.2a6,6,0,0,1,.36-1.94,3.28,3.28,0,0,1,.78-1.2,3.14,3.14,0,0,1,1.19-.77,5.45,5.45,0,0,1,1.94-.36c1.09,0,1.42-.06,4.2-.06s3.11,0,4.21.06a5.44,5.44,0,0,1,1.93.36,3.17,3.17,0,0,1,1.2.77,3.41,3.41,0,0,1,.78,1.2,6,6,0,0,1,.36,1.94c.05,1.09.06,1.42.06,4.2s0,3.11-.06,4.21a5.88,5.88,0,0,1-.36,1.93,3.32,3.32,0,0,1-.78,1.2,3.24,3.24,0,0,1-1.2.78,5.88,5.88,0,0,1-1.93.36c-1.1.05-1.43.06-4.21.06s-3.11,0-4.2-.06M13,6.92a7.62,7.62,0,0,0-2.53.48,5.33,5.33,0,0,0-3,3A7.62,7.62,0,0,0,6.92,13c-.06,1.11-.07,1.47-.07,4.29s0,3.18.07,4.29a7.57,7.57,0,0,0,.48,2.53,5,5,0,0,0,1.2,1.84,5.2,5.2,0,0,0,1.84,1.21,7.89,7.89,0,0,0,2.53.48c1.11.05,1.47.06,4.29.06s3.18,0,4.29-.06a7.83,7.83,0,0,0,2.53-.48,5,5,0,0,0,1.84-1.21,5.12,5.12,0,0,0,1.21-1.84,7.83,7.83,0,0,0,.48-2.53c.05-1.11.06-1.46.06-4.29s0-3.18-.06-4.29a7.89,7.89,0,0,0-.48-2.53A5.2,5.2,0,0,0,25.92,8.6a4.88,4.88,0,0,0-1.84-1.2,7.31,7.31,0,0,0-2.52-.48c-1.11-.06-1.47-.07-4.3-.07s-3.18,0-4.29.07"/></g></g></svg>