<svg xmlns="http://www.w3.org/2000/svg" viewBox="0 0 124.08 190.48"><defs><style>.cls-1{fill:#333;}</style></defs><title>Asset 6</title><g id="Layer_2" data-name="Layer 2"><g id="Layer_1-2" data-name="Layer 1"><path class="cls-1" d="M57.42,73.32c.32.31.47.57.64.59s.42-.18.63-.28c-.14-.19-.23-.48-.41-.56s-.42.11-.86.25m25.22,56.26.31-.22c-.61-.45-.31-1.54-1.15-1.84l-.24.15,1.08,1.91m-1.09-4.07c-.5-.84-.76-.85-1.71-.08.54,1,1.12.46,1.71.08m5.57,14c-.56-2-.56-2-2-1.85l2,1.85m15.64-43.65c-.84,0-1.45.12-1.73,1h1.62c0-.4.07-.68.11-1.05M83.48,130l-.21-.11c-.16.39-.32.77-.49,1.16l1.49,1.44.2-.16-1-2.33m22.85,32.84-.06-.2-3.06,1,1.82.6,1.3-1.36M89.16,148.22c-.14.31-.25.43-.24.53.24,1.7.48,3.4.75,5.1,0,.13.25.24.39.36l.17-.16c-.41-1.86-.19-3.85-1.07-5.83M69,106.64c.13,1.21,1.5,1.79,1.19,3,0,0,.07.11.12.15a17.37,17.37,0,0,0,1.4,1.32c.19.14.54.08.81.11,0-.26.12-.62,0-.78A15.15,15.15,0,0,0,69,106.64M46.25,75.07l-.47-4.52L44,71.71c1.22,3.31,1.35,3.49,2.3,3.36m5.53-1.39.27.09a9.18,9.18,0,0,0,.59-4.68l-.94.27c-.32.11-.64.25-1,.39l-.4.93c.77.23.76.69.46,1l1,2M81,95.62l-5.44,3.56c.05.1.1.2.14.3a8.91,8.91,0,0,0,.9-.16c.79-.22,1.56-.48,2.35-.68,1.56-.39,2.1-1.09,2.05-3M28.4,19.25c-.71-1.11.46-2.63-.81-3.69a11.15,11.15,0,0,0-.43,1.18c-.13.61-.6.73-1.07.8s-1.08.06-1.71.09c.24.68.41,1.23.62,1.77a7.51,7.51,0,0,0,.36.76,2.56,2.56,0,0,0,.67-.59c.47-.86.69-1,1.62-.67a5.65,5.65,0,0,1,.75.35M90.83,128l7.87-2.79c-2.42-1.32-4.91-.32-7.87,2.79m2.69,8.53c2.06-.12,3.42-.49,2.59-2.8a3.42,3.42,0,0,0-1,.32,7.91,7.91,0,0,1-2.47,1.26c-1,.27-1.17.89-.66,1.48a5.77,5.77,0,0,0,1.62.88c0-.52-.07-.8-.1-1.14M75.21,114.13l-.35.07a1.9,1.9,0,0,0-.13.72c.26,1.14.58,2.26.86,3.39a1.52,1.52,0,0,0,1.86.87c1.11-.59,1-1.8-.1-2.57a6.3,6.3,0,0,1-1.13-1.12c-.36-.43-.67-.9-1-1.36M34.51,19c-1.7.68-2.85,2.07-4.94,1.69.23.92.42,1.7.66,2.65l1.15-.72.89.39c.58.25.91.05.72-.49a1.17,1.17,0,0,1,.41-1.37A5.5,5.5,0,0,0,34.3,20a3.24,3.24,0,0,0,.21-1m49.7,141.83a3.62,3.62,0,0,0-1.42-2.25c-.15-.1-.22-.32-.34-.47a7.19,7.19,0,0,0-2.86-2.29,3.1,3.1,0,0,0-2.36,0c.76.53,1.38.91,1.94,1.37,1,.78,1.88,1.61,2.83,2.41.4.34,1,.47,1,1.23,0,.18.38.39.62.62l.63-.63m-4.08-29.62a1.72,1.72,0,0,1,.07-.21c-1.1-.85-2.06-1.95-3.63-2-.37,0-.85.12-1.08-.06-.57-.45-1.24-.25-1.81-.44a3.07,3.07,0,0,0-2.41.41,7.08,7.08,0,0,1-1.62.29c0,.09-.12.52,0,.7a1.41,1.41,0,0,0,1,.41c.71,0,1.4-.27,2,.3a1.11,1.11,0,0,0,1,0c1.29-.51,2.63-.19,4-.26a2.23,2.23,0,0,1,2,.67c.1.12.37.09.56.13M49.85,68.31l1.52-1.14c.52-.38,1.07-.74,1.58-1.15.34-.27.82-.57.9-.93a25.21,25.21,0,0,0,.32-2.9l-.22-.1-.85.73a5.83,5.83,0,0,1-2.07,1c-1.24.44-1.92,3-1.18,4.54M53.53,30l-.12-.38a7.55,7.55,0,0,0-1.26.22A33.9,33.9,0,0,0,45,33c-1.46.91-2.86,1.91-4.28,2.9-.18.12-.27.39-.41.59l.22.21c2.2-1.11,4.34-2.37,6.61-3.29s4-2.72,6.43-3.42m8.64,47.24c1.74-2.94,1.76-6.12,2.85-9a2.19,2.19,0,0,0-.66.49c-1,1.17-2.08,2.34-3,3.56-.36.45-.84,1.14-.71,1.56a24.52,24.52,0,0,0,1.57,3.39M10.7,25.35c.33,1.71,6.41,7.78,9,9.12,0-.64.38-1.35-.69-1.49-.18,0-.31-.36-.46-.55-.68-.87-1.3-1.8-2-2.61s-1.73-1.39-2.38-2.24C13.26,26.43,12,26,10.7,25.35M24,5c-.2.17-.38.25-.42.38a7.29,7.29,0,0,0-.83,3.07,12.54,12.54,0,0,1-.1,1.61c-.08,1.5-.64,3,0,4.49.08.17.28.29.43.43a3.54,3.54,0,0,0,.25-.52,1.05,1.05,0,0,0,0-.38,10.8,10.8,0,0,0,1.22-.78,1,1,0,0,0,.34-.77c-.13-.61-.19-1.14.42-1.55a.57.57,0,0,0,.17-.45,15.78,15.78,0,0,1-.28-2.95C25.24,6.84,24.43,6,24,5m13,68.47-.16.12c.24.45.45.92.73,1.35s.67.58.7.9c.16,1.53,1.95,1.91,2.29,3.36.1.44.9.8,1.45,1,.76.34,1.59.53,2.39.8l1.35.48.22-.3a16.52,16.52,0,0,0-1.1-1.4c-.44-.47-1.14-.8-1.39-1.34C42.68,77,41.22,76.2,40,75.24a24.14,24.14,0,0,0-3-1.73m-3.4-15.76-.18.16c.34.32.7.62,1,1a3.4,3.4,0,0,0,1.95,1.35,1.42,1.42,0,0,1,.73,2.15,1.32,1.32,0,0,0,.07,1.13c1.18,1.57,2.44,3.1,3.67,4.64.3.37.63.36,1,.07s1.11-.71,1.83-1.18c-.21-.39-.47-1-.8-1.5a12.07,12.07,0,0,0-1.38-1.93,16.5,16.5,0,0,0-1.88-1.53,27.93,27.93,0,0,0-4.27-3.14,17.14,17.14,0,0,1-1.78-1.18m39.82,98.56-1.16-.73c.23-.32.44-.65.67-1a1,1,0,0,0-.08-1.53,2.6,2.6,0,0,0-3.31.82,1.53,1.53,0,0,0-.2,1.18,4.33,4.33,0,0,0,1.07,1.61c1.78,1.52,3.59,3,5.45,4.41.83.62,1.81,1,2.69,1.6.45.28.88.51,1.3.06a1.72,1.72,0,0,0-.26-1.69c-.61-.43-1.19-.88-1.8-1.29a16.56,16.56,0,0,0-5.31-2.53,2.75,2.75,0,0,1-.6-.38l1.54-.58M50.35,62c1-.39,2.07-.7,3-1.15a3,3,0,0,0,1.47-1.18c.41-1,.38-2.1.76-3.09a10.8,10.8,0,0,1,1.08-3.05,8.36,8.36,0,0,0,.83-2.28L57.31,51a20,20,0,0,0-2,1c-1.31.89-2.9,1.56-3.39,3.25-.61,2.14-1.09,4.33-1.62,6.5,0,.05,0,.12.05.18M35.83,36.54c.06.08.12.15.17.23a4.3,4.3,0,0,0,.59-.34A48.82,48.82,0,0,1,41,33.07c2.23-1.32,4.61-2.4,6.94-3.55.6-.31,1.29-.45,1.88-.78A7.62,7.62,0,0,1,53.92,28c.57,0,1,.13.81.89,1.7-.36,3.06-1,3.51-2.78a4,4,0,0,0-4.47-.06c-1.8-.19-3.31.41-4.83.25a4,4,0,0,1-.66.79c-.66.44-1.37.82-2.06,1.22a24.18,24.18,0,0,0-5.11,3.71,41.61,41.61,0,0,1-3.2,2.71l-2.08,1.78M31,17.89c2.09-.73,2.84-2,2.28-3a12,12,0,0,1,.59-2,13,13,0,0,1,1.11-1.48A.62.62,0,0,0,35,11a2.7,2.7,0,0,1,.39-2.17.42.42,0,0,0,.08-.28c0-1.45,0-2.91,0-4.36,0-.46-.17-.95-.72-.79-.31.08-.52.53-.76.83-.11.13-.16.31-.27.44s-.42.35-.5.57a53.59,53.59,0,0,0-1.77,5.18,21.59,21.59,0,0,0-.53,5.79c0,.54,0,1.08,0,1.65m40.31,99.87a2.9,2.9,0,0,1-3,.23,1,1,0,0,0-.87.3,12,12,0,0,1-3.54,3,1.26,1.26,0,0,0-.54.66c-.2.57-.31,1.16-.45,1.73a3.16,3.16,0,0,0,3.23.14c1.56-1,3.34-.94,5-1.56A5.53,5.53,0,0,0,73,121c-.23-.34-.62-.69-.56-.89.41-1.21-.49-1.69-1.22-2.37M41.48,82.61c-.45-.16-.7-.28-1-.35a19.81,19.81,0,0,1-2.2-.61c-.42-.16-.69-.65-1.1-.84-1.46-.67-2.95-1.28-4.42-1.91a41.93,41.93,0,0,1-5.58-2.55c-.72-.44-1.51-.75-2.26-1.12l-.18.26a13.37,13.37,0,0,1,1.5,1.61A11.86,11.86,0,0,0,30,80.87a30.72,30.72,0,0,0,3.72,1.57c.32.13.63.32,1,.45a7.78,7.78,0,0,0,2.14.74,8.87,8.87,0,0,0,4.67-1m-3.82-13.9c-.5-.84-1-1.66-1.47-2.5a8.56,8.56,0,0,0-2.52-3.42c-.08-.06-.18-.16-.18-.23,0-1.16-.85-1.89-1.41-2.72a31,31,0,0,0-2.76-3.13,11.92,11.92,0,0,0-.79,1.75,7.2,7.2,0,0,0,1.35,6,3.69,3.69,0,0,0,2.46,1.4,6.73,6.73,0,0,1,3.2,1.49,6.92,6.92,0,0,0,2.12,1.37M30.9,70.17c.38.61.7,1,1,1.53.67,1.26,1.33,2.53,1.94,3.83.08.17-.13.49-.2.74-.23-.09-.6-.14-.65-.29-.23-.65-.73-.63-1.27-.67a2,2,0,0,1-2.11-1.94c0-.18-.05-.37-.08-.55a1.29,1.29,0,0,1-.16.17c-.29-.13-.65-.19-.84-.41-.31-.37-.43-.91-.77-1.24-.94-.9-1.95-1.73-2.93-2.58,0,0-.07,0-.1,0l-2.82.1c-.23,0-.46.06-.68.09a30.5,30.5,0,0,0,2.92,3,6.93,6.93,0,0,0,1.28.88c1.15.61,2.32,1.18,3.47,1.77s2.51,1.32,3.78,2a17.29,17.29,0,0,0,1.71.74c.58.23,1.18.41,1.81.62a21.8,21.8,0,0,1-.48-4.51c.13-1.24-.63-1.36-1.3-1.77-.24-.15-.58-.21-.73-.42-.66-.91-1.57-1-2.75-1m82,65.26c-.47.13-1,.26-1.43.41-1.17.35-2.32.78-3.51,1-.93.2-1.93.08-2.85.3-2.2.51-4.49.67-6.5,1.88a19.63,19.63,0,0,1-2.54,1.05l.06.22a13.39,13.39,0,0,0,1.53.21c1.58.05,3.17.07,4.76.07a17.65,17.65,0,0,0,4.49-.12c2.65-.71,5-2,6-5.06m-29.67-38a3.78,3.78,0,0,0,.62-.13c2.34-1.09,4.7-2.13,7-3.3a5.84,5.84,0,0,0,3.41-3.7c.1-.37.24-.74.34-1.11a11.06,11.06,0,0,0,.56-4.81,3.2,3.2,0,0,0-.25.28,5.81,5.81,0,0,1-2.29,2.68c-.42.21-.46.54-.31,1a2.36,2.36,0,0,1-1,2.59A2.89,2.89,0,0,0,90,92.44a3,3,0,0,1-.31.39l-.25-.07c.09-1.2.18-2.4.27-3.69a5.8,5.8,0,0,0-3.83,2.7c-1,1.77-1.72,3.66-2.64,5.66m5.56,77.69c.29-.42.79-.83.72-1.09-.3-1.18.39-2.1.71-3.07a15.25,15.25,0,0,0,.85-5.86c-.08-1.11-.18-2.21-.19-3.31a11.5,11.5,0,0,1,.22-1.74,12.48,12.48,0,0,0-.5-4.59c-.07-.3-.24-.7-.46-.79s-.54.22-.8.38c-.44.26-.43.65-.37,1.11.15,1,.27,1.94.33,2.92.06,1.27.05,2.54.08,3.82,0,.26-.06.61.07.76.43.48.13.79-.08,1.21s-.39.9-.24,1.13c.68,1,.15,1.78-.25,2.63a4.36,4.36,0,0,0-.16.83c-.1.44-.07,1-.34,1.3a3.71,3.71,0,0,0-.85,2,3.23,3.23,0,0,1-1.13,2.09c-.21.15-.25.63-.25,1,0,1.22.08,2.43,0,3.65s-.22,2.36-.34,3.54l.36.15a2.9,2.9,0,0,0,.41-.58c.29-.75.34-1.75.88-2.23,1-.89,1-2,1.46-3.1a2.49,2.49,0,0,0-.16-2.14M53,83.5c.29,2,1.92,2.74,3.1,3.8s2,2.79,3.74,3.5A3.79,3.79,0,0,0,60,89.64a23.63,23.63,0,0,0-.77-2.77,15.47,15.47,0,0,1-1-2.55,17.88,17.88,0,0,1,.09-3.18l.29,0,1,1.57,1,1.63c.91-1.88,1-2.85.18-5.38A8.41,8.41,0,0,0,59,75.76a2.87,2.87,0,0,0-.28.3c-1.19,1.7-2.37,3.42-3.59,5.12-.3.42-1,.77-1,1.16,0,1-.53,1.12-1.2,1.16M25.19,41c-1.91.12-2.66-.56-2.12-2.18l-1.32.74c-.1-.09-.2-.13-.25-.21-.94-1.66-2.65-2.53-4-3.71-1-.84-2-1.63-3-2.5-.7-.63-1.38-1.28-2.06-1.94S11.17,30,10.57,29.35,9.15,27.77,8.43,27c-.33-.37-.68-.72-1-1.12a2.8,2.8,0,0,0,.25,2.46c.93,1.64,1.83,3.3,2.8,4.91a13,13,0,0,0,1.86,2.59c1.12,1.1,2.41,2,3.64,3A9.45,9.45,0,0,0,20,41.07a42.1,42.1,0,0,0,4.62.51c.17,0,.38-.38.57-.58M67.4,137.21c0,.5.24,1,.09,1.24a.7.7,0,0,0,.32,1.06c.68.42,1.46.67,2.11,1.12,1.78,1.24,3.9,1.16,5.89,1.58a1.38,1.38,0,0,0,1.79-1,2.74,2.74,0,0,1,2.69.42,6.42,6.42,0,0,0-.61-1.49c-.15-.33-.72-.47-.4-1,.17-.31-.28-.91.44-1-.08-1,.4-.78,1-.46.24.14.49.27.75.4a4.74,4.74,0,0,0,.25-.63c.26-1.19-.27-1.78-1.47-1.66a3.1,3.1,0,0,1-1.24.06c-1.45-.61-3.15-.31-4.51-1.24-.08,0-.36.19-.49.26a4.19,4.19,0,0,0,1.41,2.07.91.91,0,0,1-.43,1.57,8.45,8.45,0,0,1-2.2.28c-1.28,0-1.87-.71-1.57-1.93.14-.52.32-1,.51-1.67a12.28,12.28,0,0,0-1.71.54c-.89.46-1.73,1-2.57,1.52m-3.46-73.1a13.73,13.73,0,0,0-1.32-.41c-1.54-.26-1.17-1.62-1.51-2.57A3.66,3.66,0,0,1,61,60.4c0-.07.13-.15.17-.23a4.44,4.44,0,0,0,.35-.77c.14-.45.34-.8.87-.76s1,.12,1.53.18L65,59c0-.41.19-.88,0-1.22-.31-.71-.08-1.06.52-1.44a1.94,1.94,0,0,0,.66-2.19c-.31-.8-.61-1.62-.94-2.49-.74,0-1.6.06-2.45.18a1.26,1.26,0,0,0-.89.54,22.06,22.06,0,0,0-1.11,2.78c-.43,1.35-.79,2.72-1.19,4.08-.13.43-.3.84-.4,1.28q-.57,2.56-1.09,5.16c-.23,1.13-.44,2.27-.65,3.36,1.55.45,2.75.29,3.68-.86.23-.29.48-.57.7-.88.67-1,1.33-2,2.1-3.14m.45,27.83c.2-.56.34-.91.46-1.27.33-1,.72-1.94,1-2.94.44-1.7.35-3.54,1.27-5.14a.6.6,0,0,0,0-.38,17.13,17.13,0,0,0-.26-2.39c-.33-1.34,1.39-.67,1.48-1.57a4.08,4.08,0,0,1,.72,0,.33.33,0,0,1,.21.19,7.93,7.93,0,0,1,.64,2.21c0,1.92-.15,3.83-.29,5.75,0,.24-.31.47-.51.76.77.92-.42,2,.06,3.34.42-.54.72-.91,1-1.31s.4-.67.62-1a5.79,5.79,0,0,0,1.34-2.7,16.13,16.13,0,0,1,.37-1.81c.07-.29.27-.64.17-.84-.54-1.08-.22-2.32-.73-3.4a14.5,14.5,0,0,0-.88-2.29c-.53-.74-.19-1.77-1-2.37,0,0,0-.12,0-.19,0-1.34-1.21-2-1.83-3.2a14.66,14.66,0,0,0-.89,1.8q-.93,3-1.77,6c-.31,1.13-.52,2.29-.82,3.43a13.51,13.51,0,0,1-.6,1.59,5.8,5.8,0,0,1,.09,1.89c-.52,1.84-.33,3.72-.51,5.57,0,.09.06.18.1.31l.52,0M84.8,154.1l.2-.18c0-.25-.07-.5-.1-.75-.24-1.83.34-3.74-.47-5.52,0-.08,0-.2,0-.29a13.29,13.29,0,0,0-.41-1.79.71.71,0,0,0-1-.45,24,24,0,0,1-2.55.54c-.74.15-1.47.32-2.21.43a22,22,0,0,1-3.23.37,25.28,25.28,0,0,1-4.26-.28c-.77-.13-1.63.36-2.37-.39-.26-.26-1-.09-1.47-.11a25.71,25.71,0,0,0,4,2.56c1.39.65,2.66,1.67,4.32,1.66a2.84,2.84,0,0,1,1,.46,3.43,3.43,0,0,0,.68.36,20.86,20.86,0,0,0,2.08.31c1.75.17,2.84,1.59,4.32,2.26a15,15,0,0,1,1.4.81m16.58-53.51a2.11,2.11,0,0,0-2,.07c-1.8,1.12-3.54,2.33-5.32,3.49s-3,3.31-4.81,4.67c-.58.44-.82,1.32-1.28,2-.69.94-1.51,1.79-2.13,2.77a16.73,16.73,0,0,0-1.21,2.69c0,.06.31.4.42.37,1.37-.34,2.81-.38,4-1.37A4.48,4.48,0,0,1,91.85,114a4.83,4.83,0,0,0,1.94-1c.27-.16.46-.47.74-.61a11.8,11.8,0,0,0,3.36-2.64,7.8,7.8,0,0,0,.61-.86,15.87,15.87,0,0,1-1.8-.27,2.3,2.3,0,0,1-1.51-1.77,1.64,1.64,0,0,1,1.11-1.59,2.09,2.09,0,0,1,2.42.48c.37.4.82.72,1.26,1.11a2.59,2.59,0,0,0,.72-2.43,5.38,5.38,0,0,1,.68-3.83m12.76,28c-.37-.58-.79-1.38-1.33-2.09a2,2,0,0,0-1.1-.55,9.31,9.31,0,0,0-3.68.1,3.2,3.2,0,0,0-1,.37c-.9.56-1.74,1.21-2.66,1.73a13.86,13.86,0,0,0-3,1.88,3.57,3.57,0,0,1-1.14.45c0,.25,0,.53,0,.75-1,.36-1.84.67-2.7,1.06-.18.08-.23.45-.33.65a7.08,7.08,0,0,1,2.31,1,2,2,0,0,0,1.81.63c1.36-.11,2.71-.37,4.07-.43a10.15,10.15,0,0,0,6.12-2.88,34.36,34.36,0,0,0,2.61-2.71m-62.41-20c-.78-.06-1.4-.06-2-.15a28.23,28.23,0,0,1-3.32-.65,1.25,1.25,0,0,1,0-2.42,10.81,10.81,0,0,1,2.35-.08c.34,0,.68.22,1,.21.91,0,1.82-.18,2.73-.16a3.24,3.24,0,0,1,1.52.42c1.33.8,1.21.69,2-.21a3.69,3.69,0,0,1,.55-.4c1.19-.89,2.39-1.77,3.53-2.71a.94.94,0,0,0,.16-.9,1.24,1.24,0,0,0-.94-.32c-1.25.11-2.5.4-3.75.41s-2.47-.3-3.71-.35a7.86,7.86,0,0,0-2.2.32,33.67,33.67,0,0,1-3.55,1,46.63,46.63,0,0,1-5.42.29,2,2,0,0,0-2,1.27c-.14.3-.29.59-.43.89a2.44,2.44,0,0,0,1.51,3.45,3.56,3.56,0,0,1,.81.3A8.34,8.34,0,0,0,47.75,110a4.67,4.67,0,0,1,1.71-.32,2.63,2.63,0,0,0,2.27-1.1M90.88,80.85l.08,0c.19-.2.34-.49.57-.6a4.23,4.23,0,0,0,2.29-2.76c.29-1,.81-1.89.38-3-.35-.9-2.18-1.94-3-1.42a4,4,0,0,1-1.5.49,4.9,4.9,0,0,0-1.32.76c-.51.32-1,.66-1.52,1A31.56,31.56,0,0,0,83.14,78a22.61,22.61,0,0,0-2.44,3.19c-1.1,1.46-2.13,3-3.34,4.35a4.91,4.91,0,0,0-1.08,2.1,44.58,44.58,0,0,0-.8,4.62c-.09.55-.1,1.11-.16,1.87,1.59-1.4,3-2.63,4.4-3.89a.54.54,0,0,0-.21-1,4.32,4.32,0,0,1-2.18-2.07L79.75,85c.9.59,1.73,1.15,2.58,1.68.15.1.4.19.52.12.76-.43,1.82-.73,2.19-1.41.72-1.33,2.1-1.83,3-2.85.32-.36,1-.43,1.43-.64a2.6,2.6,0,0,0,.38-.27l1-.81m12.72,73.9a2.44,2.44,0,0,0,.1.24,6.55,6.55,0,0,0,.77-.15c.66-.23,1.36-.75,2-.66a2.8,2.8,0,0,1,2.53,1.66c.36.94-.06,1.86-1,1.79-.78,0-1.54-.26-2.32-.33a10.12,10.12,0,0,0-1.74,0,2.94,2.94,0,0,0-.92.26,5.92,5.92,0,0,0-2,1.13,15.84,15.84,0,0,0-1.53,2.83c.37-.18.76-.4,1.16-.57a4.52,4.52,0,0,1,1.81-.65A8.07,8.07,0,0,0,107,159.2c1.08-.58,2.4-.7,3.29-1.68.07-.08.24-.08.36-.12a5.23,5.23,0,0,0,1.33-.46c1.13-.75,2.24-1.53,3.29-2.38a6.14,6.14,0,0,0,1.13-1.39,20.77,20.77,0,0,1,1.27-1.89,1.78,1.78,0,0,0-.17-2.65,7.23,7.23,0,0,1-.63-.61c-.48-.48-.94-1-1.73-.53a.7.7,0,0,1-.55,0,5.79,5.79,0,0,0-4.44,0c-.63.22-1.22.46-1.22,1.2a16.25,16.25,0,0,0-1.82.92c-.57.39-1.24.77-1.08,1.48-.37.22-.8.33-.94.59-.56,1-1,2.05-1.51,3.08M20.4,27.45c-.25-.59-.52-1.19-.76-1.79a12.8,12.8,0,0,1-.63-1.8,22.33,22.33,0,0,1-.53-3.24c-.07-1,.7-1.45,1.59-1.63-.19-.92-.19-.92.75-1.36-.12-.12-.21-.27-.34-.33a2.27,2.27,0,0,1-1.56-2.59c.06-.75.21-1.49.31-2.24s.22-1.66.3-2.5c.14-1.4.14-2.82.39-4.2a5.21,5.21,0,0,1,2.87-3.91A3.09,3.09,0,0,1,25,2.07,5.34,5.34,0,0,1,27.84,5c.23.57.44,1.16.69,1.73a2.79,2.79,0,0,0,.4.57c.63-1.28,1.19-2.47,1.82-3.63a3.7,3.7,0,0,1,1.71-1.89c.42-.18.7-.64,1.06-1a1.47,1.47,0,0,1,.57-.34c.8-.17,1.61-.3,2.42-.42.65-.1,2,.69,2.07,1.35a19.87,19.87,0,0,1,.21,3.17c0,1.5-.14,3-.25,4.48,0,.68-.22,1.35-.22,2a29.16,29.16,0,0,1-.7,5.27,9.32,9.32,0,0,1-.15,1.06,15.61,15.61,0,0,1-1.15,3.58,7.85,7.85,0,0,1-1.74,2.58c-1.17.78-1.56,2.37-3.06,2.72-.17,0-.36.55-.34.82.11,1.27.29,2.53.46,3.8s.34,2.58.53,4A17.41,17.41,0,0,0,36.75,32a5.92,5.92,0,0,1,2.49-1.53,8.06,8.06,0,0,0,2.63-1.87c.19-.16.08-.67.1-1l-.23-.14,2.08-1.19c.75-.43,1.5-.88,2.27-1.27,2.58-1.27,5.43-1.53,8.18-2.13a17.51,17.51,0,0,1,3.3-.65,6.55,6.55,0,0,1,2.2.81,8.37,8.37,0,0,0,2.62,1,1.64,1.64,0,0,1,1.54.77c-.72.28-1,.68-.59,1.48.25.41-.57,1.65-1.11,2a6.13,6.13,0,0,0-.8.73,6.28,6.28,0,0,0-.54.49c-.38.42-.93.81-1.06,1.3a4,4,0,0,1-1.56,2,8.34,8.34,0,0,1-3.89,2.09c-.67.12-1.29.72-2.05.86a14.51,14.51,0,0,0-2.48.49A20.29,20.29,0,0,0,45,38.59a8.19,8.19,0,0,1-2.11.71c-1.39.46-2.75,1-4.16,1.37a3.44,3.44,0,0,1-2.18-.08,4.71,4.71,0,0,0-2.19-.17.57.57,0,0,0-.35.14,10,10,0,0,0-1,.92,3.12,3.12,0,0,0-.41.74c-1.64.23-1.76.51-1,2.3,1.19-.39,2.38-.76,3.54-1.2a2,2,0,0,1,2,.31A2.48,2.48,0,0,1,37.91,46a1.07,1.07,0,0,1-1.2.93.92.92,0,0,0-.4,0c-1.13.38-1.81-.13-2.26-1.33-.62.5-1.17.92-1.69,1.37a.66.66,0,0,0-.2.52c.26,1,.55,2,.9,3.24A11,11,0,0,0,35.3,49c.84-1.16,1.93-1.24,3.18-1.26a2.61,2.61,0,0,1-1.16,2.32c-.81.58-1.54,1.31-2.39,1.82s-2.07,1-3.19,1.53c.18.09.29.2.33.17,1.21-.61,2.21.12,3.25.51a25.45,25.45,0,0,1,4,1.64c1.67,1,3.54,1.8,4.61,3.59.56.95,1.16,1.88,1.79,2.79.34.5.77.95,1.3,1.58.19-.68.34-1.19.48-1.71.64-2.3,1.23-4.61,1.93-6.89a7.52,7.52,0,0,1,3.94-4.55c1.3-.67,2.61-1.31,4-1.89a22.53,22.53,0,0,0,2.92-1.09,8.14,8.14,0,0,1,5.34-1.19,1.22,1.22,0,0,1,.64.17c.94.76,1.88,1.53,2.78,2.34A3.58,3.58,0,0,1,70.12,52c-.16,2.18-.37,4.36-.59,6.54a17.32,17.32,0,0,1-.37,2.38c-.18.71.08,1,.72,1.22s1.52.42,1.66,1.32a11.11,11.11,0,0,1,.08,2.08,4.61,4.61,0,0,1-.29,1.62A2.48,2.48,0,0,0,72,69.82a15,15,0,0,1,2.86,5.54c.21.78.33,1.59.52,2.38s.42,1.74.65,2.66a5.06,5.06,0,0,0,2.11-2.09,28.55,28.55,0,0,1,2.56-3.72A14.87,14.87,0,0,1,87.9,70a33.44,33.44,0,0,0,5.59-2.15,2.91,2.91,0,0,1,2.33-.28,3,3,0,0,1,2.31,2.16,12.77,12.77,0,0,1,.26,2.31c.1,1.65.83,3.23.45,4.93-.28,1.24-.55,2.49-.74,3.75-.16,1.1-.13,2.22-.31,3.31-.35,2.11-.8,4.2-1.2,6.29a10.42,10.42,0,0,1-.36,1.88c-.58,1.48-2,2.16-3.17,3.08A17.48,17.48,0,0,1,90,97.08c-.34.17-.82,0-1.23.12a4.06,4.06,0,0,0-1.36.34c-.73.42-1.18,1-2.25,1.19a5,5,0,0,0-3.44,1.81s-.12,0,0,0c-.48-.14-.94-.45-1.17-.32-1.19.63-2.46.16-3.66.39-.29.06-.58.17-.87.25a20.88,20.88,0,0,1-2.45.61c-.92.13-1.16.83-1.31,1.5-.07.31.29.78.55,1.1,1.11,1.39,2.29,2.74,3.4,4.13,1.27,1.6,2.49,3.23,3.75,4.84.37.47,1.09.34,1.54-.27a13.85,13.85,0,0,0,1.67-2.41,5.29,5.29,0,0,1,1.37-2c.08-.06.08-.24.07-.37a8.46,8.46,0,0,1,2.64-6.06,24.85,24.85,0,0,1,2.65-1.76c2.27-1.34,4.61-2.58,6.83-4a19.22,19.22,0,0,0,2.51-2.28c.41-.39.81-.81,1.25-1.17.59-.47,1.21-.89,1.82-1.32,0,0,.16,0,.17-.09.21-1,1.09-.68,1.73-.84a14.89,14.89,0,0,0,2.21-.68,3,3,0,0,1,3.29.66c.52.59.42,1-.25,2.08a5,5,0,0,0-1.2,3c0,.62.18,1.61-.9,1.83.9,1.14.59,2.38.45,3.57-.28,2.41-1.76,4.28-2.91,6.3-.31.54-.33,1.25-.64,1.79a6.1,6.1,0,0,1-1.83,2.2,28.58,28.58,0,0,0-3.1,2.94c-1,.89-2,1.73-2.88,2.65s-1.7,1.72-3,1.7c-.94,1.14-2.49.93-3.63,1.66s-2.59.61-3.93.62c-.28,0-.56,0-1.12-.06l1.23,2.49c.35.73.72,1.45,1,2.2.07.17,0,.43.07.54l1.11,1.43c0-.64,0-1.09,0-1.65A7.79,7.79,0,0,0,90,124.17c.29-.45.47-1,1-1.26a10.85,10.85,0,0,1,4-1.58,23.7,23.7,0,0,1,3.84.19c.88,0,1.77,0,2.65.06q2.37.09,4.74.21c.46,0,.91.12,1.36.18.16,0,.39.15.47.08,1.17-1,2.57-.34,3.84-.49a14,14,0,0,1,5.79.28c1.38.43,2.84.73,3.86,1.93.24.28.72.35,1,.61a1.74,1.74,0,0,1,.54.94c0,.19-.37.48-.64.62s-.8.27-1.18.46c-.69.34-1.42.64-1.67,1.5a3.27,3.27,0,0,1-.55.8c.56.92.51,1.05-.23,2a16.75,16.75,0,0,0-.91,1.61c-.82,1.39-1.65,2.78-2.51,4.15a11.08,11.08,0,0,1-1.47,2,12.1,12.1,0,0,0-1.59,1.61c-.59.82-1.65.66-2.51.92s-1.49.42-2.23.61a3.35,3.35,0,0,1-.77.13c-1.77,0-3.54.12-5.32.09-2.11,0-4.21-.19-6.32-.28-.41,0-.83,0-1.44,0,.71,3.9,1.39,7.69,2.12,11.74l1.23-1c1.74-1.43,3.47-2.87,5.22-4.3a26.15,26.15,0,0,1,2.3-1.78c1-.68,2.17-1.24,3.25-1.86a3.08,3.08,0,0,0,.42-.39,4.29,4.29,0,0,1,3.07-1.21c2.22-.06,4.06.93,6,1.55,1.3.4,2.63.7,4,1,.59.13,1.08.27,1.34.92.14.36.55.59.79.92a1.94,1.94,0,0,1,.49,2,9.56,9.56,0,0,1-.92,1.48c-.07.11-.26.19-.26.28,0,1.08-.76,1.63-1.42,2.29-.91.91-1.68,2-2.63,2.81s-2.3,1.75-3.45,2.62a1.45,1.45,0,0,0-.3.39,4.67,4.67,0,0,1-3,2.12c-.73.21-1.3,1-2,1.51-.29.23-.6.44-.89.67s-.54.42-.79.65c-.84.79-1.76,1.48-2.59,2.3a3.39,3.39,0,0,1-3.31.66,5.7,5.7,0,0,0-1.8,0,21.53,21.53,0,0,0-2.53.29,2.07,2.07,0,0,0-1.77,2c0,.87,0,1.74,0,2.68-.87.05-.88.78-.94,1.42-.09,1.1-.08,2.21-.18,3.32a1.89,1.89,0,0,1-.46.82c-.13.18-.42.29-.47.47-.29,1.26-.54,2.54-.81,3.81a7.4,7.4,0,0,1-.25.89,3.15,3.15,0,0,0-.3,1c0,.76-.45,1.07-1,1.3-1.22.49-1.38.87-1.46,2.21a5,5,0,0,1-.83,2.19c-.52.83-1.4.52-2.23.49a8.5,8.5,0,0,0-2.52.47c-1.52.45-2.46.19-3.19-1.2a4.19,4.19,0,0,1-.36-2.05c.1-2.84.21-5.69.47-8.52a33.31,33.31,0,0,1,1-4.58c.29-1.17.65-2.33,1-3.49.27-.85.58-1.69.94-2.74-.78,0-1.37-.06-2-.13-1.13-.14-2.25-.29-3.37-.47a1.7,1.7,0,0,1-.79-.34,23,23,0,0,0-5.46-3.13c-1.41-.71-3.07-1-4.17-2.37-.61-.8-1.77-1.16-2.55-1.86a2.68,2.68,0,0,1-.94-1.71c0-1.4-.85-2.42-1.26-3.63a6.59,6.59,0,0,1-.16-1.23,6.18,6.18,0,0,1-.65-1.9,3,3,0,0,0-1.15-2.11,5.06,5.06,0,0,1-.65-1.11,4.12,4.12,0,0,0-.39-.6.74.74,0,0,1,.33-1.28c1.15-.37,2.28-.89,3.55-.36.3.12.72,0,1.09-.07,0-.08,0-.16,0-.23l-.66-.19c-1.34-.38-1.61-1.58-1.93-2.66-.23-.75-.28-1.45-1.35-1.37a1.87,1.87,0,0,1-1.05-.49,30,30,0,0,1-3.12-2.36,4.94,4.94,0,0,1-.8-1.8c-.07-.19,0-.55-.1-.61-.65-.4-.69-1.07-.87-1.69a8.62,8.62,0,0,1-.39-1.38,1.69,1.69,0,0,1,.22-1.19,1,1,0,0,0,.11-1.34c.75-.84,1.61-.48,2.42-.24a15.82,15.82,0,0,0,2.3.82,11.49,11.49,0,0,0,4.78,0,8.77,8.77,0,0,1,1.55-.21c.75-.08,1-.39.76-1.1s-.1-.76.47-1a7,7,0,0,1,3.28-.72c.58,0,1.18-.46,1.79-.56,1-.16,2.07-.21,3.1-.31a1.06,1.06,0,0,0,.32-.13A1,1,0,0,0,76,125.9c-1.47.21-2.93.47-4.4.69-.86.12-1.75.14-2.6.34a32.54,32.54,0,0,1-5.4.38,4.17,4.17,0,0,1-1.07-.06,13.65,13.65,0,0,0-1.86-.46,2.55,2.55,0,0,1-2-2.24,25.75,25.75,0,0,1,.43-3.14c0-.22.34-.38.48-.59a7.71,7.71,0,0,0,.85-1.46c.27-.75.59-1.36,1.48-1.49a1.22,1.22,0,0,0,.65-.37,22,22,0,0,1,5.46-4.33c.25-.15.37-.51.59-.83-1.84-.49-3.44-.92-5-1.32-.5-.12-1-.12-1.52-.23a1.69,1.69,0,0,1-.87-.38,3.39,3.39,0,0,1-.45-1,2.66,2.66,0,0,1,.91-.36c1.33,0,2.66.06,4,.08a.53.53,0,0,0,.38-.2.39.39,0,0,0-.06-.35c-.83-.82-1.67-1.64-2.41-2.35-1.14.37-2.24.67-3.28,1.1a14.71,14.71,0,0,0-2.1,1.22c-2.11,1.33-4.16,2.78-6.35,4a16,16,0,0,1-3.63,1,13.92,13.92,0,0,1-1.78.42,21.48,21.48,0,0,1-3.19.28c-2.12-.06-3.59-1.49-5.19-2.66a18.92,18.92,0,0,0-3.62-2.2,5.67,5.67,0,0,1-3.6-3.91A11.17,11.17,0,0,0,29.47,103a1.46,1.46,0,0,1,.31-1.86,2,2,0,0,0,.42-1.09.87.87,0,0,1,.82-.92,3.41,3.41,0,0,1,.95-.19c1.06.21,2.22,0,3.2.43a5.22,5.22,0,0,0,4.34.06,8.5,8.5,0,0,1,4-.71,22.75,22.75,0,0,0,4.87-.18,4.92,4.92,0,0,0,2.07-.8A9.16,9.16,0,0,1,55,96.39a3.5,3.5,0,0,0,.54-.09c-.61-.54-1.09-1-1.61-1.41a6.25,6.25,0,0,0-4.76-1.79,5,5,0,0,1-2.23-.68c-.2-.08-.24-.53-.39-.89,1.17-.79,2.59-.17,3.77-.72,0-1.39-1-1.64-1.92-2.07a13.67,13.67,0,0,1-2.26-1.43.87.87,0,0,1-.25-.61,1.52,1.52,0,0,1,.8-.35,3.57,3.57,0,0,1,1,.16c.08-.89-.36-1.38-1.14-1.22-1.63.35-3.22.89-4.86,1.09-1.26.15-2.41,1-3.75.54-1.15.71-2.43.15-3.64.35-1.55.24-2.87-.71-4.28-1.19-1-.35-2-.92-3.08-1.2a4.58,4.58,0,0,1-2.23-1.3,23.22,23.22,0,0,0-2.71-2,22.62,22.62,0,0,1-4.65-4.36,5.39,5.39,0,0,0-1.09-.9c-1.27-1-1.34-2.49-1.5-3.89a22.94,22.94,0,0,1,0-3.08l.71.47a14.83,14.83,0,0,1,0-2A1.25,1.25,0,0,1,16,67a20.6,20.6,0,0,1,2.78-1.39,11.43,11.43,0,0,1,2.59-.65c1-.13,1.95-.1,2.93-.15.6,0,.81-.41.63-1.14s-.38-1.56-.62-2.33a2,2,0,0,1,.13-1.9,10,10,0,0,0,.65-2.71,3.56,3.56,0,0,1,.53-1.23c.58-.79.57-1.19-.29-1.74s-1.69-1-2.6-1.48l.38-.92c1.66-.73,2.8.6,4.16,1,.36-1.42,0-1.85-1.23-2.89a5.82,5.82,0,0,1-2.3-2.81,1.49,1.49,0,0,1,.18-1.14c.32-.37.67-.08,1,.24a2.9,2.9,0,0,0,.76.41c.82-.62-.17-1.21.2-1.9a15.27,15.27,0,0,0-2.56.19,8.14,8.14,0,0,1-3.77,0,12.75,12.75,0,0,1-1.76-.63,6.46,6.46,0,0,1-1.14-.5,45.48,45.48,0,0,1-4.35-2.88c-.49-.39-1-.72-1.5-1.13a25.77,25.77,0,0,1-2.3-2.48,17.31,17.31,0,0,1-1.22-1.6c-.29-.4-.49-.87-.78-1.27s-.57-.59-.8-.92c-1-1.53-2.05-3.07-3-4.63a5.4,5.4,0,0,1-.28-1.12c-.25-.74-.58-1.46-.78-2.22-.13-.48,0-1-.14-1.51A10.35,10.35,0,0,0,1,22a9.66,9.66,0,0,1-.54-1.3c-.18-.94-.25-1.9-.42-2.84-.11-.62.65-1.48,1.47-1.49a4.12,4.12,0,0,1,1.23.27,3.44,3.44,0,0,1,1.21.5,2,2,0,0,1,.75,1.17c0,1,.32,1.51,1.31,1.74.58.14,1.06.65,1.63.83,1.27.39,2.57.64,3.84,1a14.14,14.14,0,0,1,6.32,3.69,21.12,21.12,0,0,0,2.52,1.95l.11-.09"/></g></g></svg>