<svg xmlns="http://www.w3.org/2000/svg" viewBox="0 0 111.04 97.51"><defs><style>.cls-1{fill:#fff;}</style></defs><title>Asset 17</title><g id="Layer_2" data-name="Layer 2"><g id="Layer_1-2" data-name="Layer 1"><path class="cls-1" d="M.11,47.89c.84-1.82,2.27-2.42,4.26-2.41q51.29.06,102.58,0c3,0,4.23,1.18,4.07,4.13-.93,17.41-9.28,29.95-24.93,37.61A1.53,1.53,0,0,0,85,88.92c.06,1.66,0,3.32,0,5a3.29,3.29,0,0,1-3.55,3.6q-25.94,0-51.88,0A3.27,3.27,0,0,1,26.11,94c0-1.77,0-3.54,0-5.31a1.25,1.25,0,0,0-.89-1.36A41.35,41.35,0,0,1,2.46,62.41,34.76,34.76,0,0,1,1.1,56.89a38.4,38.4,0,0,1-1-6.65A7.41,7.41,0,0,1,.11,47.89ZM100.55,65.1H10.67a3.7,3.7,0,0,0,.14.39c.24.44.48.89.74,1.32A35.59,35.59,0,0,0,29.73,82.15c2.35.91,2.88,1.68,2.88,4.21V91H78.55v-4.8c0-2.24.66-3,2.66-4a66.1,66.1,0,0,0,8.27-4.41A33.6,33.6,0,0,0,100.55,65.1Zm3.93-13H6.67l1.2,6.38H103.3Z"/><path class="cls-1" d="M36.14,0A3.16,3.16,0,0,1,39,1.84a3.07,3.07,0,0,1-.53,3.61,6.21,6.21,0,0,0-1.8,4.39,6.34,6.34,0,0,0,1.92,4.33,12.4,12.4,0,0,1,1.59,15.09,13,13,0,0,1-1.58,2A3.24,3.24,0,1,1,33.78,27a5.82,5.82,0,0,0,1.32-6.3,8.32,8.32,0,0,0-1.68-2.47,12.55,12.55,0,0,1-.09-16.78A3.77,3.77,0,0,1,36.14,0Z"/><path class="cls-1" d="M55,22.36a6.25,6.25,0,0,0-2-4.08A12.41,12.41,0,0,1,52.4,1.94c.18-.22.37-.44.56-.65A3.29,3.29,0,0,1,57.77.86a3.27,3.27,0,0,1,.07,4.74c-2.38,2.78-2.3,5.8.22,8.53a12.54,12.54,0,0,1,.06,17.17,3.26,3.26,0,0,1-3.31,1.09A3.09,3.09,0,0,1,52.43,30a3.33,3.33,0,0,1,1-3.17A5.81,5.81,0,0,0,55,22.36Z"/><path class="cls-1" d="M75.16,0A3.17,3.17,0,0,1,78,1.86a3.08,3.08,0,0,1-.56,3.61A6.17,6.17,0,0,0,75.66,10a6.24,6.24,0,0,0,1.85,4.13,12.43,12.43,0,0,1,1.64,15.18A13.1,13.1,0,0,1,77.5,31.4a3.22,3.22,0,0,1-4.65.21A3.18,3.18,0,0,1,72.73,27a5.84,5.84,0,0,0,1.43-6.19,8.19,8.19,0,0,0-1.68-2.59A12.54,12.54,0,0,1,72.35,1.4,3.77,3.77,0,0,1,75.16,0Z"/></g></g></svg>