<svg xmlns="http://www.w3.org/2000/svg" viewBox="0 0 192.61 162.38"><defs><style>.cls-1{fill:#333;}</style></defs><title>Asset 7</title><g id="Layer_2" data-name="Layer 2"><g id="Layer_1-2" data-name="Layer 1"><path class="cls-1" d="M55,47.17s0,.09-.07.14l.55.28.06-.1L55,47.17m107.57,8.12.2,0c0-.17,0-.34,0-.52h-.16c0,.16,0,.33,0,.49m-11.28,29.8.18.06c0-.17.07-.33.1-.49l-.16,0-.12.47m-87.4,4.53.11.19.43-.27-.07-.13-.47.21m40,51.26.07.15.5-.33-.1-.14-.47.32m10-55.19-.23,0c0,.2,0,.41-.08.62l.18,0c0-.2.09-.4.13-.6m6.88-61.07a1.5,1.5,0,0,0,0-.22l-.54.09a1.11,1.11,0,0,1,0,.17l.54,0M75.48,57c.3.27.3.27.74,0h-.74M89.36,32.17V32h-.62v.14l.62.09M111.2,99l-.13,0-.19.65.14,0,.18-.65M31.08,52.61l-.19.14.34.39s.1-.12.09-.14-.16-.26-.24-.39m127.45-21,0,.14.78.2c0-.05,0-.1,0-.16l-.79-.18M99.47,69.74l-.06-.07-.57.43a2.25,2.25,0,0,0-.16.34l.79-.7M85.15,105.28a2.14,2.14,0,0,1,.1.22l.67-.37-.06-.13-.71.28m-.09,12.41a1.11,1.11,0,0,0,.07-.16c-.17-.08-.34-.18-.52-.25,0,0-.11.11-.25.26l.7.15m2.4-.52c-.22-.15-.43-.54-.85,0h.85M19.08,4.14l0,.2h.66s0-.09,0-.13l-.64-.07m31,64.74c-.52-.08-.4.24-.36.48,0,.06.1.11.2.23.06-.28.11-.48.16-.71M71,23l-.17.17c.08.3.29.44.74.48L71,23m34.61,70.23V93a5.77,5.77,0,0,0-.6.1s-.07.14-.14.32l.74-.23m15.71,57.43c.54.17.54.17.85-.42l-.85.42m-42.95-125-.23-.1c-.09.19-.18.39-.28.59.09,0,.24.09.25.07.1-.18.17-.37.26-.56M83.51,86l-.07-.1-1,.85.12.14,1-.89M18,4.12l0-.2-1-.14L17,4l1,.12M83.7,69.82c.32.27.65.61.93-.11l-.93.11M78.84,93.57c.93-.45.93-.45,1-1l-1,1m22.25-25.38-.75.89c.39-.18.8-.34.75-.89M94.93,80l-.71.74c.38,0,.83,0,.71-.74m94.53-39.06c-.48.32-.36.63,0,.93l0-.93M59.94,80.82c.47.43.47.43,1.32,0l-1.32,0M85.7,69.93c0-.24-.09-.43-.15-.66l-.6.54c.11.08.18.16.25.17a3.37,3.37,0,0,0,.5,0M64.81,84.27c0-.1-.06-.18-.07-.17a1.8,1.8,0,0,0-1.36.52l1.43-.35m40.32,53.25.09-.21c-.32-.44-.32-.44-.93,0l.84.21M89.47,95.23c-.23.56-.15.73.45,1.14l-.45-1.14m34.88,52.53a1.61,1.61,0,0,0-1.57-.6l1.57.6M79.52,58.1c0-.1,0-.2,0-.3l-1.27-.14,0,.22,1.28.22m14.6,13.1c.37-.09.61-.23.37-.53s-.39-.22-.72-.38c.16.4.24.63.35.91M62,11.94l1-.2v-.16l-1-.24c0,.23-.05.38-.07.6M74.57,59.71c.21.92.28,1,.85,1.38-.29-.46-.57-.92-.85-1.38M102,138.66c.42.29.72.33,1,0-.46-.38-.46-.38-1,0M26.22,5.59c-.46-.17-.89-.52-1.47-.3.45.51,1,.3,1.47.3M30.61,28a.91.91,0,0,0-1.15-.54c.32.43.6.7,1.15.54m74.7,74.69c1,.11,1,.11,1.08-.58l-1.08.58m-8.74,9.79.86-.77c-.56.13-.56.13-.86.77m12.9,39.77a1.37,1.37,0,0,1-.13.2l1.5.94.13-.2-1.5-.94m14.46-26.41a1.65,1.65,0,0,0,1.09-1.17c-.51.44-1,.59-1.09,1.17m-17.42,9.93c.32.29.55.64,1.12.33-.36-.29-.51-.84-1.12-.33m-56.06-91,1,1c-.24-1.08-.24-1.08-1-1M161.38,65.94c-.18.63-.35,1.27-.52,1.9l.18,0c.17-.64.57-1.22.34-2M47,51c.5.51.5.51,1.39,0-.5-.62-.87.24-1.39,0M63.45,15.65c.19,1,.25,1.1.87,1l-.87-1m45,10.51c-.4-.26-.45-.72-.92-.55-.11,0-.18.15-.27.23l.55.61.64-.29m75.36,7.89c-.31,1.08-.31,1.08.33,1.5-.12-.53-.22-1-.33-1.5M161.31,61.11a2.27,2.27,0,0,0-.53,1.85c.21-.57.4-1.07.57-1.58,0-.07,0-.16,0-.27M93.37,78.59l-.15-.12-.88.41a1.48,1.48,0,0,0,0,.21c.23,0,.51.19.68.1s.23-.39.34-.6m-12.46,20,1.35-1.2c-.67.17-1.22.47-1.35,1.2M96,84.32l0-.19a9.56,9.56,0,0,0-1.92.44l.06.27,1.9-.52M71.15,78.79l.65.43c.17-.27.29-.47.43-.68-.51-.49-.74-.12-1.08.25M92.66,98.74c.8-.53.8-.53,1-1-.87.12-.87.12-1,1M83.27,110.9c.34.12.6.26.65.21.33-.34.61-.72.91-1.09l-.15-.14-1.41,1m21.14-84.32c.84-.08.84-.08,1.31-.54-1.09-.14-1.09-.14-1.31.54M69.47,98.9a1.4,1.4,0,0,0,1.45-.85c-.74-.11-.94.54-1.45.85M12.78,4c0-.09,0-.19.05-.28l-2.47-.11a1.09,1.09,0,0,0,0,.18L12.78,4M138.45,110.82l.14.13c.49-.8,1.27-1.39,1.53-2.36l-1.67,2.23m-17.59,18.4a1.13,1.13,0,0,0-.26,0c-.09,0-.22,0-.26.09-.39.72-1.15,1-1.76,1.42a4.61,4.61,0,0,0,2.28-1.51m39.06-57.86c.24-.46.49-.92.83-1.55-.35.06-.55,0-.62.12a1.3,1.3,0,0,0-.21,1.43M91,97.13c-1.09,0-1.21.14-.89.83.43-.13.92-.18.89-.83M87.45,120c0-.89-.11-.94-1-.64.24.76.24.76,1,.64M67.85,79.74c.8.66,1.16.52,1.63-.54l-1.63.54m2.76-.06-.25,0-.93,1.25c.78.15.91-.49,1.28-.71.06,0-.06-.34-.1-.52m21-4.21L90.1,76.62c1.48-.06,1.76-.29,1.46-1.15m-20.2,33.31c1.38,0,1.9-.34,1.87-1.16l-1.87,1.16m46.18,43.57c1,.54,1.14.53,1.56-.16-.95-.51-1-.51-1.56.16M76.91,73.84a2,2,0,0,0-.81,2,1.91,1.91,0,0,0,.81-2m51,44.65c-.63-.28-1-.08-1.37.81.9.14.93.12,1.37-.81M94.59,83c.2.44.26.49.84.45s1,0,1.15-.77l-2,.32m-21,29.8-.17.14a7.07,7.07,0,0,0,2.09,2.46l-1.92-2.6m.17-12.21-.84-.63-.84.59,1,.62.65-.58M62.17,85.11a1.79,1.79,0,0,0,0-.23,4.52,4.52,0,0,0-2.91.42l2.93-.19M80.36,13.58c.65.74,1.41.63,2.15.89-.05-.34-.09-.6-.13-.9h-2m3.41,82.67a2.14,2.14,0,0,0,.13.19l2-.44c0-.51-.16-.75-.59-.58a14.08,14.08,0,0,0-1.53.83m21.94,4.87c.48.32.73-.1,1-.31.47-.44,1-.84,1.1-1.55l-.17-.15c-.63.67-1.25,1.34-1.89,2m56.56-66.88L160.81,34c.08.51.13.89.19,1.28l1.3-.35c0-.2,0-.38,0-.65M21.05,4.54a4,4,0,0,0,3,.58,8.07,8.07,0,0,0-3-.58m48.19,106,1.11,1.24.77-1.35-1.88.11M54.88,8.71c1.46,1,2.17,1,2.84.31l-2.84-.31M63.32,95.8a4.36,4.36,0,0,0,.06,3.39,9.26,9.26,0,0,0-.06-3.39M95.54,69.56c.26.06.45.16.52.11A10.16,10.16,0,0,0,98.85,67a7.45,7.45,0,0,0-1,.85c-.34.28-.72.52-1.08.78l-1.22.9M72.94,26.41A9.9,9.9,0,0,0,70,24.75a5.76,5.76,0,0,0,2.91,1.66M86.53,69.87c1.45.07,1.66,0,1.82-.84-.8-.16-1.5-.09-1.82.84m19,12.58a5.07,5.07,0,0,0,1.1,2.5c.13-1.08,0-2-1.1-2.5M81.74,103.08c-.63-.16-.76-1.12-1.55-.88.2.34.52.65.54,1s-.27.68-.45,1.09c.56-.3,1.19-.37,1.46-1.19M92.15,76.92a12.79,12.79,0,0,0-2.42.75l1.72.66c.21-.41.41-.83.7-1.41m20.78,56c.11-.52.18-.87.25-1.21a1.33,1.33,0,0,0-1.82.65l1.57.56m18.33-18.13c-1-.2-1.28.08-1.94,1.58.16,0,.37.1.44,0a4.79,4.79,0,0,0,1.5-1.62m-23.81,40.48-3.79-2.63a6.58,6.58,0,0,0,3.79,2.63m.27-58.61a7.24,7.24,0,0,0-1.18.37.81.81,0,0,0-.4.47c-.13.48-.19,1-.29,1.55l.85-.32c-.09-.27-.17-.5-.26-.74a2.53,2.53,0,0,0,1.28-1.33M55,46.14c-.8-1.36-1.4-1.67-2.66-1.3,1,.42,1.54,1.27,2.66,1.3m.64,40.51c-.58-.24-1-.4-1.43-.6-.56-.28-.36-.83-.53-1.33L53,86.11a3.29,3.29,0,0,0,2.6.54M84.07,115c-.5-.56-.91-1-1.33-1.49l-1.21.74a6.2,6.2,0,0,0,2.54.75m19.46-45.59-.24-.06a11.87,11.87,0,0,0-2.09,2,3.11,3.11,0,0,0,2.32-1.42c.08-.14,0-.38,0-.57m10.59,60.82a2,2,0,0,0,2.42-.91c-1-.56-1-.54-2.42.91M103.22,77.7c-.18.38-.25.59.1.81a16.83,16.83,0,0,1,1.33,1.07l.85.68.14-.17a6.93,6.93,0,0,0-2.42-2.39M13.14,8.14l.41,2.27,1.15-.29c-1-.61-.75-1.4-.65-2.25l-.91.27M157.24,118a20.87,20.87,0,0,0,2.35-4c-.92,1.25-2.25,2.27-2.35,4m-57.18,36.4a10.88,10.88,0,0,0,4.36,4.43l-4.36-4.43m33.31-8.76a27.34,27.34,0,0,0-4.28,2.46c.38.42.66.24.92.07s.61-.44.91-.67l2.45-1.86m-29-39.55a3.79,3.79,0,0,0,1.15-2.16l-2,.73.87,1.43m-2.08,35.8c-1.41,0-2.41,1-3.57,1.58,1.52.23,2.49-.81,3.57-1.58m4.48,9.54c.3-1,.3-1-.53-1.42l-2.31-1.26a11.51,11.51,0,0,0,2.84,2.68m1.67-16.85c.25.28.53.67.92.5a3,3,0,0,0,1.65-1.24c-1.26-.61-1.12-.7-2.57.74m-24-31.4c0-1,1.24-1,1.28-1.82L85,101a8.25,8.25,0,0,0-1,.64,11.44,11.44,0,0,0-.88.93l1.22.61M123,122.27c.61.58.74.63,1.23.22s1-1,1.52-1.51c-.47-.29-.82-.43-1.21-.08s-1,.91-1.54,1.37M61.77,49.53c-.12-.23-.14-.34-.21-.38C60.38,48.42,59.19,47.69,58,47c-.08,0-.26.08-.39.12a1.74,1.74,0,0,0-.05.22c1.35.72,2.44,1.93,4.22,2.21M54.21,83.68a2.69,2.69,0,0,0,2.51.25c-.12-.35-.25-.7-.37-1.07l-1.81,0c-.1.24-.21.53-.33.85m54.22,11a13.13,13.13,0,0,0-.52-5.36,1.6,1.6,0,0,0,.25,2,4,4,0,0,0,.27,3.37m56.94-61.79c-.79-.12-1.54-.22-2.28-.35s-1.48-.26-2.21-.4a2.21,2.21,0,0,0,0,.25,5.77,5.77,0,0,0,1.6.36c.62,0,1.14-.08,1.37.65a.39.39,0,0,0,.18.18l1.27.64c.35-.35,0-.84.12-1.33M109.43,157.46c-.86-.83-1.2-.89-2.83.25l1.7.75,1.13-1m-.81-24.75-2.36-.89-.4.9c1.17,1.22,1.17,1.22,2.76,0m.47-111.31c-.08.45,0,.93-.23,1.08-.6.45-.3.84-.06,1.5.61-.84,1.72-1,1.78-2.21l-1.49-.37m8,106.09c.54.46,1,.56,1.37.25s1-.87,1.49-1.31c-.78-.65-1.3-.65-1.85-.05l-1,1.11M77.37,59.81a21.55,21.55,0,0,0,6,.33,5,5,0,0,0-2.8-.62l-2.84.16a2,2,0,0,0-.39.13M93.85,86.88a11,11,0,0,0,3.45-1c-.32-.11-.52-.12-.6-.22a1,1,0,0,0-1.27-.22,1.27,1.27,0,0,1-.37.1c-.9,0-1.19.53-1.21,1.39m20.31,66.85c1.39.94,2,.86,3.12-.39-1.09-.79-1.71-.75-3.12.39m-10.4-103c-.1,1.13.2,2.24-.44,3.12l1,1.08c.09-1,.1-2,.26-2.89.13-.7-.22-1-.78-1.31M93.57,69a1,1,0,0,0,1.2,0,14.53,14.53,0,0,0,1.38-1c.52-.43,1-.92,1.51-1.4-.39-.46-.65-.47-1-.14-.75.66-1.55,1.28-2.32,1.92-.24.2-.46.41-.74.66M138.87,35a9.41,9.41,0,0,1-3.54-.58c0,.94,2.09,2,3.39,1.85-.47-.76-.47-.76.15-1.27m48.66,7.74c.08-.05.12-.05.12-.07a2.45,2.45,0,0,0,.08-.37c.21-1.89-.76-3.38-1.67-4.9,0,0-.1,0-.22,0a4,4,0,0,0,.4,1.91,8.41,8.41,0,0,1,1.14,3,2.67,2.67,0,0,0,.15.42M156,76.24l-.25-.1-2.62,5.3.92.27c.66-1.87,1.3-3.67,1.95-5.47M90.8,98.5a1.13,1.13,0,0,0-1,1,15.41,15.41,0,0,1-.71,2c-.05.15-.09.31-.14.47l.14.08c.86-.86,1.71-1.72,2.56-2.59-.3-.33-.59-.65-.88-1M2.61,6c.19-.54.52-1,1.07-1a9.88,9.88,0,0,1,1.52.14c-.22-.42-.5-.89-.83-.92-.88-.07-1.83-.62-2.71.14.27.54.22,1.21,1,1.61M50.1,10.92a87.77,87.77,0,0,0-8.84-1.37c2.91.66,5.8,1.54,8.84,1.37M64.35,83.37c-.5-1.57-1.86-2.07-3.09-1.19l1.44,1.61,1.65-.42M40.48,26.19l.19-.2c-.08-.12-.15-.26-.24-.37l-2.09-2.46a7,7,0,0,0-4.11-2,4.64,4.64,0,0,0,1.14.61c.41.15.83.28,1.24.42l.19.82,1.26.4a3.9,3.9,0,0,0,.48,1.16c.6.6,1.29,1.1,1.94,1.64m149.5,14a4.75,4.75,0,0,0,.58-1.46,3.45,3.45,0,0,0-.51-1.48,2.78,2.78,0,0,0-1.11-1.38,7.74,7.74,0,0,0,0,.84c0,.53.13,1.07.11,1.6a2.29,2.29,0,0,0,.93,1.88m-50.32-7.65a7.68,7.68,0,0,0,3.5.19c-.44-.18-.68-.31-.94-.39-.67-.18-1.37-.29-2-.53-1.22-.45-2,.14-3,1.06l2.44.35c0-.22,0-.4,0-.68M110.28,155.72c.08.1.11.17.16.19.25.1.66.14.46.52-.08.16-.47.23-.71.22a4,4,0,0,1-.71-.25,2.09,2.09,0,0,0-.55,0c.5.5.94.9,1.56.68a9.44,9.44,0,0,0,3-1.61c-1.4-1-1.61-.93-3.18.2M67.93,81.06c-.57-.33-1-.82-1.33-.74a17.57,17.57,0,0,0-2.53,1l1.59,1.46,2.27-1.76M187.54,48.17c.06-1.24.11-2.48.17-3.78-.63,0-.73-.36-.83-.8a4.45,4.45,0,0,0-.73-2c0,2.42,0,4.61,1.39,6.61M58,84.11c2,.14,2.29.12,3.33-.27-.4-.45-.79-.91-1.2-1.33a.54.54,0,0,0-.42-.17c-.74.11-1.47.25-2.29.39.22.53.39.94.58,1.38M174,95.22A29.32,29.32,0,0,0,176,91a2.09,2.09,0,0,0-.17-1.68c-.53.9-.92,1.84-1.42,2.71a4.42,4.42,0,0,0-.44,3.18m-92.23,30a5.8,5.8,0,0,0,1.2,2.49c.9,1.15,1.91,2.2,2.87,3.29.19.23.39.45.71.22a24.76,24.76,0,0,0-4.78-6m17.37-46.4a4.58,4.58,0,0,0-1.34-.56c-.92,0-1.86,0-2.69.07,0,.43,0,.85.08,1.34.35-.37.79-.73,1.22-.34a4.78,4.78,0,0,1,.7,1.31c.65-.55,1.57-.82,2-1.82M60.86,15.33A7,7,0,0,0,62.16,18a6.22,6.22,0,0,0,1.68,2.14c.78.54,1.45,1.23,2.18,1.83a6.13,6.13,0,0,0,2.28,1.47A25.51,25.51,0,0,0,66,21.22a3.44,3.44,0,0,0-.88-.53,2.16,2.16,0,0,1-1.51-1.58,2,2,0,0,0-.32-.58c-.62-.91-1.25-1.82-1.89-2.72a3.57,3.57,0,0,0-.51-.48M15.51,7.42c0,.11,0,.22,0,.32.8.15,1.6.32,2.4.42a.83.83,0,0,0,1-.63.75.75,0,0,1,.47-.39,3.31,3.31,0,0,1,2.54.35,2.49,2.49,0,0,0,2.21,0,8.75,8.75,0,0,0-2-.62,12.23,12.23,0,0,0-2.42-.2,18.41,18.41,0,0,0-2.43.33c-.61.11-1.21.25-1.82.37M174,101.07l-.18-.12c-2.52,3.81-5.45,7.31-7.91,11.16a2.49,2.49,0,0,0,.69-.64c1-1.29,1.89-2.61,2.88-3.87.49-.62,1.16-1.1,1.63-1.73.78-1.07,1.48-2.19,2.18-3.32a15.48,15.48,0,0,0,.71-1.48M9.45,2.06c0-.23,0-.43-.12-.52a.58.58,0,0,0-.42-.1,25,25,0,0,0-2.62.37A5.21,5.21,0,0,0,3.71,3c1.35.43,2.66.13,3.94.37-.25-.92-.21-1,.57-1.17.37-.08.75-.1,1.23-.17M91.89,72.63l-.62-.3a2,2,0,0,1-.51-.24c-1.07-.93-2.22-.39-3.53-.35.82,1,.54,1.91.55,3,.56-.65,1-1.12,1.41-1.64.56-.73,1.27-.9,1.7.15,0,0,.11.05.22.09.2-.19.43-.39.78-.7m18.66,4.47h-.22c-.09.28-.19.56-.29.84-.49,1.34-.9,2.71-1.5,4a2.09,2.09,0,0,0,.24,2.24,6.26,6.26,0,0,0,.51-.89c.36-1.08.72-2.16,1-3.26a21.76,21.76,0,0,0,.45-2.41c0-.16-.13-.34-.2-.51M44.93,32.55l-3.65-5.86-.72.83c.17.24.34.5.51.77a16.72,16.72,0,0,1,1.21,2,3.56,3.56,0,0,0,2.65,2.23m78.44,115.69-2.51-1.4a1.83,1.83,0,0,0-2.47.7c.87.46,1.73,1,2.63,1.37a1.54,1.54,0,0,0,1,0,10.16,10.16,0,0,0,1.36-.63m57-76.37c1.34-2.49.3-4.62-.43-6.78a13.2,13.2,0,0,0-.64,1.86.71.71,0,0,0,0,.38c.33,1.45.67,2.9,1,4.54M110.26,96.3a25.08,25.08,0,0,0,2.92-5.6,2.79,2.79,0,0,0,.18-2.35c.5-.11.72-.37.5-.87h-.6c-1,3-2,5.89-3,8.81m-9.41,36.18a5.57,5.57,0,0,0,.67.62c1,.61,2.08,1.21,3.13,1.79.52.28.88,0,1.23-.41l-2.41-2.19c-.14.19-.22.29-.29.4-.17.28-.4.43-.71.23s-.25-.47-.1-.76a4.67,4.67,0,0,0,.24-.57l-.8-.66-1,1.55m16-107c-.89.24-1.39,1.08-2,1.77a42.1,42.1,0,0,1-6,4.92A45.9,45.9,0,0,1,104.14,35c-.73.42-1.48.81-2.21,1.22a13.34,13.34,0,0,0,2.9-1.17,41.25,41.25,0,0,0,6-3.75c1.12-.93,2.17-2,3.21-3s1.83-1.88,2.71-2.8M144.67,59.3a50,50,0,0,1-9.37,7.43c2.47,0,8.17-4.67,9.37-7.43M96.79,96.2c-.19.69-.91.56-1.41.91.49.8.06,1.34-.58,1.82-.4.3-.78.64-1.17,1a1.49,1.49,0,0,0-.66,1,.52.52,0,0,0,.18,0c.74-.54,1.46-1.1,2.21-1.62A4.07,4.07,0,0,0,97,97.12c.2-.67.29-1.38.44-2.12L92.8,96.47c-.07,0-.11.14-.17.23.17.45.53.31.8.23a22.8,22.8,0,0,0,2.4-.85.76.76,0,0,1,1,.12m-8.71,2.93a1.51,1.51,0,0,1,.5,1.36c.34-.35.48-.67.17-1.09a2.53,2.53,0,0,1-.33-.77c-.15-.53-.27-1.07-.42-1.71l-1,.88-.12-.65a3.05,3.05,0,0,0-1.41,2.78c0,.76.54,1,1.23.71s.89-.92,1.37-1.51m-.54-5c.45.54.81.68,1.31.55,1.7-.43,3.4-.81,5.1-1.23.85-.21,1.7-.46,2.61-.7-.15-.31-.27-.55-.4-.84-2.86.75-5.73,1.24-8.62,2.22m42.34-35c-1.19.31-2.28.58-3.37.88a.63.63,0,0,0-.35.29,5.93,5.93,0,0,0-.73,2.3l3.6-.85c.28-.85.55-1.69.85-2.62M50.4,38.81c-.48.1-1,.07-1.28.31a.93.93,0,0,1-.86.18c-.36-.06-.72-.17-1.15-.28a3.41,3.41,0,0,0,.21.6c.55.92,1.16,1.81,1.67,2.76a2.56,2.56,0,0,0,2,1.39l1-.72c-.27-.43-.27-.42-.6-.42l-1.62,0a.57.57,0,0,1-.66-.54c.73-.34,1.33-.92,2.25-.74a1.5,1.5,0,0,0-.62-.37c-.42-.15-.85-.27-1.27-.41s-.44-.39-.33-.79L50.8,40c-.15-.44-.27-.79-.4-1.19m88.88,68c-.63,0-1,0-1.42,0a.79.79,0,0,0-.49.24,8.11,8.11,0,0,0-.94,1.18,27.64,27.64,0,0,1-3.79,4.49,4.26,4.26,0,0,0-.31.47c.78.29,1.14-.27,1.53-.62a36.88,36.88,0,0,0,2.83-2.62c.87-.92,1.63-2,2.59-3.12m45.94-48.88.21,0c.17-.54.34-1.08.53-1.6a1.24,1.24,0,0,0-.09-1.18c-.23-.38-.44-.77-.64-1.17-.29-.6-.56-1.21-.83-1.81l-1.36-3a2.32,2.32,0,0,0-.08,2.49c.42,1,.83,2.06,1.2,3.11s.71,2.1,1.06,3.16m4.24-11c-.63,5.18-1.49,10.33-1.81,15.56a1,1,0,0,0,.27-.55c.21-1.09.36-2.19.61-3.26a30.16,30.16,0,0,0,1-7.12c0-1.54-.07-3.08-.1-4.63M88.08,92.39c.35.8.4.84,1,.7.95-.23,1.9-.45,2.84-.69,1.36-.34,2.7-.74,4.06-1,.86-.18,1.14-.77,1.54-1.6-3.07.61-5.85,1.69-8.74,2.32a3.49,3.49,0,0,0-.66.29M86,96.84a5.26,5.26,0,0,0-4,2.63,4.59,4.59,0,0,0-.52,1.51.93.93,0,0,0,.52,1c.38.21.66,0,.94-.24.43-.31.87-.62,1.27-1a1.35,1.35,0,0,0,.64-1.1A3.93,3.93,0,0,1,86,96.84m42.88,48.49c-1-.48-1.87-.82-2.66-1.25a1.23,1.23,0,0,0-1.41.09c-.59.38-1.18.74-1.77,1.11-.27.18-.55.35-1,.61,1.2.42,2.23.8,3.29,1.11a1.47,1.47,0,0,0,1-.15c.8-.43,1.56-.93,2.55-1.52M112.79,81.6c-.3,1.23-.54,2.33-.85,3.42-.62,2.13-1.23,4.27-1.93,6.38-.28.85,0,1.7-.16,2.54a2.36,2.36,0,0,0,.07.61,14.45,14.45,0,0,0,.9-1.82c.48-1.44.94-2.89,1.31-4.36.55-2.17,1.32-4.32.66-6.77M86.47,107.07c-.35.82-1.46.9-1.35,2A8.13,8.13,0,0,1,87,107.92a11.34,11.34,0,0,0,3.49-2.06c1.15-.83,2.18-1.82,3.28-2.71s2.16-1.66,3.23-2.5c.24-.18.46-.4.73-.64l-.56-.72c-.94,1.09-2.41,1.42-3.08,2.72,0,.08-.13.19-.2.19-.62,0-.86.6-1.26.93-1.48,1.21-2.94,2.43-4.41,3.65-.47.39-1,.8-1.7.29M45.52,34.54l-1.47-1.65-.14.12,2.47,4.81c.68-.18,1.36.51,2-.11,0,0,.18,0,.27,0l1.71.46.72-1.42-2.37-.7c0,.39.42.89-.14,1.15a1,1,0,0,1-.77-.12c-.48-.2-.49-.59-.36-1l1.12-.25a10.78,10.78,0,0,1-1.46-1.1,1.1,1.1,0,0,0-1.58-.25M97.18,102c.7.64.27,1.15-.2,1.61s-1.27,1.13-1.9,1.71-1.16,1.08-1.74,1.62c.61-.12,1.17-.27,1.38-.87a6.77,6.77,0,0,0,2-1.43c.21-.17.49-.4.72-.39s.53.28.91.51c.35-.24,1-.45,1.09-.82a1.05,1.05,0,0,1,.77-.7l1.7-.59c.4-.13.79-.28,1.19-.43l0-.13-1.7.31-.25-.51a11.7,11.7,0,0,1-1.84-.52c-.85-.4-.83-.45-1.52.15l-.54.48m-28-11.51a2.12,2.12,0,0,1-.07.36c-.23.67-.82,1.22-1.37,1.09a1.28,1.28,0,0,0-1.54.75,1.52,1.52,0,0,1-.34.33c-.63.51-.68,1-.19,1.7,1-.6,2-1.21,3-1.79.41-.24.88-.49,1.3,0s.76.28,1.2,0a3,3,0,0,1-.08-2.43c.36-.72.75-1.41,1.11-2.08-.42.32-.87.7-1.36,1s-1,.63-1.67,1m30.9-57.11.09.26a4.24,4.24,0,0,0,.88-.25c1-.48,1.92-1,2.86-1.52s1.78-1.09,2.68-1.63a18.87,18.87,0,0,0,5.68-4.95,3.09,3.09,0,0,0,.24-.44c-1,.63-1.94,1.34-2.9,2q-2,1.38-4,2.72c-1.06.69-2.16,1.33-3.22,2a1.68,1.68,0,0,0-.66.66,1.43,1.43,0,0,1-.9.77,6.27,6.27,0,0,0-.74.35m9.34,56.28.2,0c.16-.4.35-.79.47-1.19.25-.82.47-1.64.68-2.47.4-1.59.8-3.18,1.19-4.78a1.29,1.29,0,0,0,0-.73,1.28,1.28,0,0,1,0-1,.8.8,0,0,0-.49-1c-.07.29-.12.5-.18.71a42,42,0,0,1-1.48,4.7,6.64,6.64,0,0,0-.66,3.93c.11.6.19,1.21.28,1.82M88.69,67.75a.85.85,0,0,0,1.21-.2,7.45,7.45,0,0,1,3.4-2.08.62.62,0,0,1-.21.88c-.56.46-1.15.89-1.73,1.32l-.73.55c.73.25,1.26.59,1.88.18s1-.63,1.5-1c.66-.53,1.27-1.11,1.94-1.71-.17-.12-.26-.21-.36-.27a14.13,14.13,0,0,0-3.94-1c-.23,0-.56.23-.76.44a11.84,11.84,0,0,0-1,1.17c-.41.56-.8,1.12-1.25,1.74m93.85-15.48h-.24c-.21.92-.43,1.84-.61,2.77a1.5,1.5,0,0,0,.13.64c.59,1.85,1.18,3.69,1.79,5.53.09.28.23.55.37.89a5.08,5.08,0,0,0,.58-4.39c-.43-1.23-.81-2.48-1.25-3.71-.21-.59-.51-1.15-.77-1.72M94.27,73a4.11,4.11,0,0,0-.42,2.45,1.58,1.58,0,0,0,1.71,1.64,2.27,2.27,0,0,0,1.07-.25c.55-.28,1.08-.51,1.65,0,.09-.31.15-.55.23-.79a1.56,1.56,0,0,0-.63-2.07A5,5,0,0,0,94.27,73M130.35,61.1l.13.18c.34-.14.7-.24,1-.41q2.42-1.3,4.82-2.64a1.12,1.12,0,0,0,.49-.41,7.1,7.1,0,0,0,.53-2.73l-6.19,3.45-.8,2.56M103.92,84a3,3,0,0,0-3.58,3.63c.1.49.34.85.86.82s.42.17.46.44c0,0,.1,0,.16.06l.6-.53c.12.18.2.3.32.5.53-.48,1.05-.9,1.52-1.36.61-.62.58-.63.22-1.45a4.61,4.61,0,0,1-.16-.64c-.13-.49-.26-1-.4-1.47m2.25-59.9c.11-1.07.09-1.22-.72-1.46-1.48-.43-3-.76-4.49-1.11s-2.83-.65-4.25-1a2.34,2.34,0,0,0-1.19-.16,4.76,4.76,0,0,0,2.77,1.92,6.08,6.08,0,0,1,1.38.63,11.4,11.4,0,0,0,6.5,1.14m74.89,56.76.21.06c.17-.6.32-1.19.5-1.78.37-1.24.69-2.49,1.13-3.71.55-1.48,1.21-2.92,1.8-4.39a1.18,1.18,0,0,0-.09-1.41.89.89,0,0,1-.1-.72c.14-.61.39-1.19.52-1.8.35-1.64.66-3.29,1-4.94a2.72,2.72,0,0,0,0-.55c-.4,1-.76,1.81-1,2.63-.16.47-.2,1-.32,1.47-.05.22-.09.56-.24.64a.92.92,0,0,0-.54,1.08,1.51,1.51,0,0,1-.17.74,12,12,0,0,0-.92,3.86,19.37,19.37,0,0,1-.5,2.92c-.44,1.58-.65,3.22-1,4.84-.06.35-.15.71-.22,1.06m-24.7,43.75a21.06,21.06,0,0,0-4.35,3.91c-.88,1-1.67,2.16-2.6,3.16a2.67,2.67,0,0,1-2.34,1.21,1,1,0,0,0-.64.31c-1.39,1.25-2.75,2.54-4.14,3.78a1.44,1.44,0,0,0-.43,1.65l.36-.19a29.65,29.65,0,0,0,4.89-4c1.43-1.29,2.77-2.69,4.14-4.06.81-.8,1.62-1.6,2.37-2.45.95-1.07,1.83-2.18,2.74-3.27M105.49,88.05l-.19-.21a11.91,11.91,0,0,1-1.79,1.56,15.08,15.08,0,0,0-2.84,2.32c-.54.53-1.07,1.24-2,.84,0,0-.13,0-.18,0a34.68,34.68,0,0,1-5.67,1.63c-.72.17-1.42.4-2.26.65a11.75,11.75,0,0,1,1.12.65,1.77,1.77,0,0,0,1.63.23c1-.28,2-.64,3-.93s1.85-1.18,3-1.08a.44.44,0,0,0,.17-.08l1.59-.76c-.2-.6.2-.89.65-1.24a34.21,34.21,0,0,0,2.69-2.26,11.19,11.19,0,0,0,1.09-1.36M172,96.93a2.59,2.59,0,0,0,1-.18,3.34,3.34,0,0,0,.73-.86c-.28-.22-.58-.34-.65-.54s0-.64,0-.93-.47-.46-.48-.68a2.78,2.78,0,0,1,.3-1.34,1.44,1.44,0,0,0,.07-1.24c-.71,1.13-1.36,2.13-2,3.16a1.64,1.64,0,0,0-.17.82c0,.67,0,1.33.06,2,0,.33.15.8-.36.82s-.37-.43-.41-.73-.06-.57-.1-.86c-.47.54-.67,1.17-1.06,1.64a4.49,4.49,0,0,0-.89,2.92c0,.39,0,.79-.05,1.18a31.34,31.34,0,0,0,2.88-3.3A19.06,19.06,0,0,0,172,96.93M91.18,113.65a3.16,3.16,0,0,0-.29-1.85,1,1,0,0,1,0-1.06c.4-.75.32-.95-.49-1.25a2.26,2.26,0,0,0-.82-.11,4,4,0,0,0-2.42,1,2.15,2.15,0,0,0-.4,3.3c.78-.06,1-1.12,2.09-1l-1.11,1.59c1.34.44,1.88-.71,2.74-1.11l.3.23.38.27m16.4,45.58a2.45,2.45,0,0,0,0,.27,4.56,4.56,0,0,0,1.36.46,5,5,0,0,0,1.86-.37c1.55-.64,3.09-1.34,4.6-2.06,1-.49,2-1,3-1.61s2.07-1.24,3.09-1.89c.75-.47,1.48-1,2.21-1.46s1.46-1,2.18-1.52c1-.71,2-1.44,3-2.16l-.06-.21c-.29,0-.63-.08-.85,0-.89.49-1.73,1-2.56,1.54.09,1.16.06,1.2-1,1a.68.68,0,0,0-.86.38c-.1.17-.28.4-.45.42a5,5,0,0,0-2.41,1.23c.25.92.14,1.07-.74.94a1.48,1.48,0,0,0-1.24.31,15.13,15.13,0,0,1-1.52,1c-1.17.65-2.37,1.24-3.51,1.91a8.75,8.75,0,0,1-5.2,1.79,8.72,8.72,0,0,0-.89,0M183.82,43a3.66,3.66,0,0,0-.18.45q-.25,2-.48,4a1.13,1.13,0,0,0,.14.53c.82,1.83,1.64,3.65,2.48,5.46a7.59,7.59,0,0,0,.73,1.06,20.33,20.33,0,0,0,.83-4.78c-.68,0-.87-.4-.9-1a5.62,5.62,0,0,0-.27-1.2c0-.08-.12-.13-.19-.19l-.59.24a1.44,1.44,0,0,1-.61-1.33,3.9,3.9,0,0,0-1-3.22m-2.21,13.81-.29,0c-.4,2.14-.79,4.29-1.18,6.43a1.29,1.29,0,0,0,0,.48c.37,1.28.76,2.56,1.15,3.83a1.66,1.66,0,0,0,.23.36c.1-.12.15-.16.17-.22.45-.94.95-1.86,1.31-2.82a4.15,4.15,0,0,0,.37-1.93,30.92,30.92,0,0,0-1.79-6.1m-76.06,51.52c-1.4,1.4-2.81,2.8-4.21,4.22a14,14,0,0,1-1.2,1.34q-2.06,1.68-4.2,3.24c-1,.73-2.13,1.28-3.06,2.08a5.4,5.4,0,0,1-2.27,1.07,6,6,0,0,0-.91.47c-.34.16-.74.46-1,.39a5.57,5.57,0,0,0-2.16.21c-.88.13-1.75.28-2.72.44a4.67,4.67,0,0,0,3.16.29c1.3-.27,2.61-.5,3.87-.87a9.21,9.21,0,0,0,2.69-1.16,40.2,40.2,0,0,0,4.64-3.29c1.08-1,2.29-1.89,3.3-3,.41-.45.67-1,1.08-1.4a19.49,19.49,0,0,0,3-4m-78.5-86,.11-.33,3,.47c0-.85.55-1,1.22-1.19-.55-.29,0-1-.67-1.25-.1.23-.19.43-.29.63-.44.79-.57.8-1.26.23s-1.17-.95-1.79-1.44a3.42,3.42,0,0,0-.54.5c-.81,1.17-1.62,2.34-2.38,3.54a2.1,2.1,0,0,0-.21.91,2.25,2.25,0,0,0,1.58,2c.62.05,1.25,0,1.76,0,.08-.49.15-.89.21-1.27-.44-.51-1.52.1-1.75-1.11.86.08,1.62.16,2.4.21s.88,0,1.06-.89c-.79-.4-1.87-.21-2.44-1.06M86.66,129.55l-.16.18c.22.37.45.74.66,1.12.11.19.29.47.23.59-.4.73.14,1.15.53,1.54a37.3,37.3,0,0,0,6.5,5.93,6,6,0,0,0,1,.6c.71.28,1.44.48,2.16.74a1.32,1.32,0,0,0,1.22-.14c-.64-.48-1.22-.9-1.78-1.35-1.88-1.5-3.75-3-5.62-4.52a2.83,2.83,0,0,1-.4-.5,6.42,6.42,0,0,0-.42-.6c-.38-.39-.77-.76-1.17-1.12l-2.7-2.47M68.15,97.29c.63.38.78.24,1.47-1.37a3.6,3.6,0,0,0,.93,0,.68.68,0,0,1,.86.36c.17.25.43.59.67.61a2.29,2.29,0,0,1,1.52.95l2.94-2.11c.79.62.84,1,.23,1.56-.23.22-.5.39-.74.59s-.51.45-.75.67c.22.45.5.44.81.23.52-.36,1-.74,1.57-1.06,1.08-.65,2.18-1.27,3.27-1.91.37-.21.71-.46,1-.66l-1.23-.79c-.53.4-1.08.83-1.64,1.23a.72.72,0,0,1-1,0c-.31-.27-.61-.58-.37-1.06.08-.16.13-.33.22-.57a15.63,15.63,0,0,1-2.87,1.15,4.49,4.49,0,0,1-2.85-.86l-2.35,1.18a3.82,3.82,0,0,0-1.13.66,4.62,4.62,0,0,0-.61,1.24m27.74-55c.09.68.11,1.12.21,1.54a9.18,9.18,0,0,0,2,3.42c.7.91,1.4,1.81,2,2.76a14.22,14.22,0,0,0,2.37,2.91c.08-1.25.16-2.33.25-3.66-.92-1.17-1.93-2.56-3.06-3.84a12.83,12.83,0,0,0-3-2.84,5,5,0,0,0-.77-.29m5.55,62.42c-1.37,0-2.55.77-3.74,1.56a1,1,0,0,0-.37.62,9.65,9.65,0,0,0-.1,1.32,1.35,1.35,0,0,0,.74,1.24c.23.13.63,0,1,0,.17.13.42.43.55.39a6.29,6.29,0,0,0,1.11-.6l.25.14c.89.53,1.46.48,1.92-.45.18-.37.43-.7.62-1.07a2,2,0,0,0-.88-2.5c-.32-.15-.62-.35-1-.6M112.83,61.1c.13-1.3,0-2.53.73-3.56l-3.44-1.66A3.87,3.87,0,0,0,110.3,58c.19.54,0,.88-.38,1s-.75-.1-.83-.65c-.13-.88-.17-1.77-.28-2.65,0-.36-.06-.84-.29-1.05-.88-.79-1.85-1.49-2.87-2.3a13,13,0,0,0,.14,3.45,1.88,1.88,0,0,0,.79,1.42A25.58,25.58,0,0,1,108.84,59a11.19,11.19,0,0,0,2.88,1.79,8.15,8.15,0,0,0,1.11.34m10.81-.69c-1.52-.29-3-.48-4.43-.86-1.28-.35-2.5-.91-3.75-1.36-.4-.14-.81-.26-1.23-.38a5.61,5.61,0,0,0-.25,2.9c.07,1,.18,1.12,1.45,1.22a8.65,8.65,0,0,1-.06-1.13,7.12,7.12,0,0,1,.24-1.38.61.61,0,0,1,.81-.43c0,1.08,0,2.12.07,3.19,1,.17,1.86.64,2.87.39a9.52,9.52,0,0,1-.07-1.27c0-.59.23-.69.86-.61,0,.27.11.55.17.83.27,1.18.27,1.18,1.45,1.33a3.63,3.63,0,0,0,.56.09,3.8,3.8,0,0,0,2-.17c0-.45.07-.87.11-1.41-.45.22-.81.82-1.35.33-.17-.6.37-.88.6-1.28M105.31,71.69c.7.07.8.11.78.59a12.18,12.18,0,0,1-.21,2.26c-.21,1-.55,1.88-.85,2.9l1.58,1.46a5.69,5.69,0,0,0,.46-.84c.17-.58.28-1.17.41-1.76s.24-1.17.4-1.75c0-.15.24-.26.36-.39a5.58,5.58,0,0,1,.38.47.45.45,0,0,1,0,.28,14.36,14.36,0,0,1-1.23,4.19c-.49,1,0,1.57.38,2.46.21-.58.33-1,.48-1.35.39-1,.8-1.93,1.18-2.91.09-.25.2-.62.09-.8-.32-.53,0-.8.39-1a1.93,1.93,0,0,0-.25-.37c-1.48-1.53-3-3.06-4.46-4.57a1.79,1.79,0,0,0-.56-.24,1,1,0,0,1-.17.1c.45.59-.34,1.32.48,1.89-.57.54-1,1-1.58,1.5a1.13,1.13,0,0,0-.42,1c0,1,.74,1.37,1.39,2.06a21.18,21.18,0,0,0,1-5.13m-4,73.27a2.6,2.6,0,0,0,1,1.5,38.94,38.94,0,0,0,3.1,2.5c.72.5,1.48,1.17,2.46.64a6,6,0,0,0,1,1.3,19.94,19.94,0,0,0,2.39,1.55,2,2,0,0,0,2.81-.68c-.3-.17-.61-.33-.9-.51-.89-.54-1.79-1.08-2.65-1.67-.38-.26-.62-.72-1-1-1.37-.91-2.76-1.8-4.19-2.63a5.06,5.06,0,0,1-2.2-2l-1.81,1M86.49,23.86a1.74,1.74,0,0,0-.76-1.27c-.62-.49-1.22-1-1.82-1.52-1.25-1.06-2.49-2.15-3.76-3.19-.76-.62-1.62-1.13-2.33-1.79-.53-.49-1.18-1-1.19-1.87a6.13,6.13,0,0,0-2.76,0c.25.29.43.5.62.69.57.59,1.15,1.16,1.73,1.75.33.33.67.67,1,1s.67.75,1,1.13a25.67,25.67,0,0,0,2.66,2.94,9.27,9.27,0,0,0,3.86,2,10.62,10.62,0,0,0,1.75.12M70.62,107.2l-.12-.14a2.35,2.35,0,0,1,.16-.82c.23-.37.57-.66.84-1a2,2,0,0,1,1-.76c.62.69-.2,1.11-.27,1.6.24.38.52.4.68.06a8.3,8.3,0,0,0,.56-1.61,1.15,1.15,0,0,0-.37-1.12,1.62,1.62,0,0,1-.35-.72,1.69,1.69,0,0,0-1.09-1.21,3.72,3.72,0,0,0-3.5.59,1.37,1.37,0,0,0-.14,2.23,1,1,0,0,1,.13.27.85.85,0,0,1-1.05-.1c-.67-.51-.47-1.24-.42-1.84l-1.39-.41c-.07,1.65,2.37,5.41,4,6.13l1.27-1.14m9.19-36.1c-.34,2-.66,3.91-1,5.81.66-.75,1.5,0,2.28-.16.32.36.65.12,1,0a18.48,18.48,0,0,0,2.3-1.08,2.59,2.59,0,0,0,1.26-1.29c.57-1.29.26-2.07-1.1-2.44a9,9,0,0,0-1.78-.31,2.43,2.43,0,0,1-1.89-.84l-1,.31m-.34,20.13c.27-.41.35-.69,0-1a.87.87,0,0,1-.24-.68c.23-.82-.3-1.2-.86-1.47-3-1.43-5.62.25-6.55,3A1.51,1.51,0,0,0,72,92.23,3.08,3.08,0,0,0,75.44,94c.18-1,.18-1,1-1.49.27-.16.48-.42.75-.56.7-.36,1.25-1.14,2.23-.75M76.54,24a5.29,5.29,0,0,0-1-2.1c-.84-1.31-1.64-2.64-2.39-4a3.58,3.58,0,0,1-.6-1.83c0-.59-.32-.78-.51-1.13a9.83,9.83,0,0,0-.74-1.08c0-.06-.18,0-.27-.06-.93-.22-1.84-.46-2.77-.66-.63-.14-1.27-.43-2,0,.1.7.63,1,1.1,1.43.19-.35.34-.61.48-.88.52.12.79.29.9.8a8.53,8.53,0,0,0,.67,1.87c.55,1.14,1.13,2.26,1.76,3.36a26.68,26.68,0,0,0,2,3.12A3.38,3.38,0,0,0,76.54,24m6.77-7.28a1.11,1.11,0,0,0,0,.19A11.28,11.28,0,0,0,84.16,18c1.31,1.33,2.63,2.65,4,3.94a23.77,23.77,0,0,0,2.27,2c.44.33,1.07.4,1.54.69a3.5,3.5,0,0,0,2.57.28.92.92,0,0,0,.77-1.33,3.08,3.08,0,0,0-.59-1.17,9.06,9.06,0,0,0-1.85-1.6,25.6,25.6,0,0,0-2.91-1.35l-4.62-2c-.66-.27-1.33-.49-2-.73m-1.94,52c-.32-.37-.54-.7-.17-1.06.6-.61,1.18-1.24,1.81-1.81a9.41,9.41,0,0,1,1.2-.77l.18.18a3.21,3.21,0,0,1-.62.85c-.72.5-1,1.32-1.66,1.9a2,2,0,0,0-.25.58A5.49,5.49,0,0,0,85,67.27c.73-.7,1.44-1.41,2.14-2.14.3-.32.55-.7.86-1,.1-.1.29-.12.57-.23C88,65.66,86.48,66.54,85.45,68c.72-.11,1.41,0,1.79-.31A17.71,17.71,0,0,0,90.54,64c-1.05-.17-2-.39-2.89-.46a25.91,25.91,0,0,0-3.41-.06c-1.33.08-2.64.27-4,.41-.45,0-.91,0-1.31.07.27,1.44.53,2.77.78,4.11.17.9.23,1,1.11.76l.52-.15m-27.57,2-.15.13a1.86,1.86,0,0,0,.05,3.14,4.94,4.94,0,0,0,3.44.92,3.18,3.18,0,0,0,2.75-1.41,3.85,3.85,0,0,1,.57-.87,3.71,3.71,0,0,0,1-1.9.71.71,0,0,0-.43-.93c-.65-.26-1.29-.51-1.94-.75a2.4,2.4,0,0,0-1.94-.16,11.19,11.19,0,0,0-3.31,1.83m45.16,30a7.32,7.32,0,0,0,1.32.28,5.36,5.36,0,0,0,1.69-.24c2.65-1,3.17-1.69,3.3-4.12,0-.29,0-.66-.43-.72s-.42-.33-.3-.64a4.46,4.46,0,0,1,.27-.53l-.93-.22c0-.25,0-.43,0-.61-1.86-1-5.83.89-5.93,2.83.78.88.78.88.21,1.91-.15.27-.24.53.09.73a1.49,1.49,0,0,0,.86-.92.57.57,0,0,1,.77-.34.75.75,0,0,1,.45.92,3.72,3.72,0,0,1-.52.68l-.84,1M73.33,87.6a5.31,5.31,0,0,1,6.85.89c.83-.19.83-.19,1.11-.77a3,3,0,0,1-.59.22,1,1,0,0,1-1.13-.48c-.21-.54.2-.71.54-.95a15.59,15.59,0,0,0,3.62-3.35,2.17,2.17,0,0,0,.37-.93,5.22,5.22,0,0,1,1.77-3.47,1.66,1.66,0,0,0,.26-.27,1.46,1.46,0,0,0,0-.2c-1,.75-1.87.9-2.53-.17l-4,.58-1.26,1.91c.63.2,1-.13,1.31-.37.64-.41,1.28-.82,1.94-1.2.41-.24,1-.11,1.16.22s-.15.65-.51.86a7.77,7.77,0,0,0-1.2.94c-.25.22-.14.43.13.63a3.13,3.13,0,0,1,.47-.71,1.07,1.07,0,0,1,.72-.28.54.54,0,0,1,.49.69,3.21,3.21,0,0,1-.37,1.17c-.65.9-1.35,1.76-2.08,2.6a1.39,1.39,0,0,1-1.94.34c-.16-.81-.15-.79.44-1.25A3,3,0,0,0,80,82.92a23.31,23.31,0,0,0-4,0l-3.25,3.55.54,1.17M50.43,7a2.82,2.82,0,0,0-.5-.23c-1.36-.32-2.72-.66-4.09-1-1.74-.36-3.49-.69-5.23-1-2.12-.4-4.23-.83-6.37-1.14-2-.28-4-.43-6-.64L27,2.81c-2-.28-4-.46-6-.85a58.7,58.7,0,0,0-6.72-.72A3.6,3.6,0,0,1,12.66,1c-.09,0-.28.12-.53.23a2,2,0,0,0,.38.16l4.7.7c.37.06.73.19,1.1.24,1.59.24,3.2.38,4.78.71,2.73.57,5.43,1.28,8.21,1.62.15,0,.38,0,.44.13.25.38.61.24.94.25a9.13,9.13,0,0,1,1,0l7.59,1.16c2.16.34,4.32.61,6.46,1.05A3.27,3.27,0,0,0,50.43,7m85.33,29.59c.19.25.27.38.37.5a19.15,19.15,0,0,1,3,4.05,18.43,18.43,0,0,1,1.94,3.9c.28,1.17.5,2.35.73,3.53a4.15,4.15,0,0,1-1.41,3.94,5.16,5.16,0,0,0-2,3.43c0,.27,0,.53,0,.91a9.28,9.28,0,0,0,2.6-2.15,12.82,12.82,0,0,1,1.8-2.31,3.83,3.83,0,0,0,1-1.42c.37-1,.58-2.06.89-3.09a3.41,3.41,0,0,1,.48-1.21.79.79,0,0,0,0-1,6,6,0,0,0-1.06-1.46,10.3,10.3,0,0,1-1.83-2.28c-.85-1.29-1.9-2.46-2.88-3.67a1.41,1.41,0,0,0-.54-.52c-1-.38-1.94-.71-3.09-1.11M13.45,12.3l2,4.5,9.84-.88a5,5,0,0,0-.17-1.34c-.48-1.17-1-2.32-1.58-3.46-.25-.53-.48-.61-1.08-.49s-1.34.32-2,.44c-2,.36-4,.69-6,1l-1,.19M93.29,87.68c-1.85,1.64-5.78,1.34-8.17-1.38l-.7.86c1.49.33,1.66.63,1.14,1.81.66,1,.58,1.37-.43,2a13.14,13.14,0,0,0-1.11.72c-.83.65-1.63,1.32-2.5,2,2.78.29,2.65,0,4.14-.89a1.32,1.32,0,0,0,.8-1c.1-.8.38-.94,1.13-.63a2.35,2.35,0,0,0,.89.23,6.32,6.32,0,0,0,1.5-.22c2.51-.68,5-1.39,7.51-2.08,0-.07.06-.12.08-.18s0-.06,0-.09c.18-.63.35-.72.94-.45A1.33,1.33,0,0,1,99.24,90c-.06.23-.11.47-.19.79a3.94,3.94,0,0,0,1.71-1.47,1.35,1.35,0,0,0-.22-.24,1.74,1.74,0,0,1-.9-2.32,2.42,2.42,0,0,0,0-.47c.25-1.68,1-3.1,3.19-3.32.07,0,.13-.11.28-.24A24.32,24.32,0,0,0,101.36,81c-.61-.5-1.08-.33-1.41.39a4,4,0,0,0-.14.41c1,.8,1,1.07.16,1.9-.66.62-1.4,1.16-2.1,1.74.66.75.63.93-.41,1.26s-1.94.58-2.92.83a10.16,10.16,0,0,1-1.25.17m-1-7.84a4.2,4.2,0,0,0-2.66-1.13,8.77,8.77,0,0,0-2.33.47,3.37,3.37,0,0,0-2.17,2.58,1.2,1.2,0,0,0,.09,1,2.19,2.19,0,0,1,.11,1c0,.22-.12.45-.06.64A5.82,5.82,0,0,0,86.91,87a1.24,1.24,0,0,0,.5.25c.49.14,1,.27,1.47.38a3.92,3.92,0,0,0,3.9-1.14,2.32,2.32,0,0,0,.29-.54,4.23,4.23,0,0,0-1.2.61c-.63.39-1,.15-1-.69a1.7,1.7,0,0,1,.24-.09,3.4,3.4,0,0,0,2.46-2.87,3.7,3.7,0,0,0-.07-.66c-.1-.84-.1-.84-1-1-.5-.12-.65-.39-.5-.91a3.81,3.81,0,0,1,.22-.47m62-8.79L154,71c-.46,1-.89,2.08-1.38,3.1q-2,4.08-4,8.13a64.61,64.61,0,0,0-2.85,6.22q-.36,1-.75,2c-.19.5-.42,1-.59,1.5s-.4,1.31-.56,2c-.11.42-.08.88-.22,1.28a44.84,44.84,0,0,1-3.24,6.69c-.65,1.16-1.28,2.32-2,3.56l1.11.66c.85-1.6,2.08-2.84,2.74-4.5a31.43,31.43,0,0,1,2.14-4.83,36.13,36.13,0,0,0,1.82-4.06l1.95-4.42c.47-1.08.94-2.15,1.44-3.21.31-.66.68-1.28,1-1.92.52-1.09,1-2.18,1.53-3.27.94-2,1.93-3.92,2.83-5.92a41.35,41.35,0,0,0,2.53-6.56c.32-1.23.74-2.42,1.12-3.63a38,38,0,0,1,1.44-4.42,18.76,18.76,0,0,0,1.19-5.66.48.48,0,0,0-.07-.36c-.39-.45-.15-.89,0-1.35a27.1,27.1,0,0,0,.54-2.8c.18-1.89.29-3.79.4-5.69.12-2.11.21-4.22.31-6.36l-1.14-.17c0,1.25,0,2.45-.07,3.65a41.32,41.32,0,0,1-.59,7.1c-.55,2.86-1.1,5.72-1.67,8.58-.31,1.56-.67,3.11-1,4.66-.26,1.23-.43,2.49-.73,3.71-.52,2.16-1.09,4.31-1.68,6.45a2.15,2.15,0,0,1-1.3,1.46,1.79,1.79,0,0,1,0-1.5M31.68,22.57a.62.62,0,0,0,.3.93c.87.6,1.74,1.17,2.59,1.8s2,1.52,2.93,2.28c.2.15.35.34.13.54s-.33,0-.5-.05-.05,0-.08-.05c-.92-.67-1.83-1.37-2.78-2s-1.68-1.07-2.53-1.6l-.12.19c.69.52,1.4,1,2.09,1.57s1.33,1.07,1.94,1.66,1.43,1,1.67,2L35.49,28.4a4.81,4.81,0,0,0,.85,1c.26.29.78.47.54,1.25A24.35,24.35,0,0,0,29.78,26a6.56,6.56,0,0,0,1.4,1.12A22,22,0,0,1,35,30.2a9,9,0,0,1,.79.95.57.57,0,0,1-.12.94,16.33,16.33,0,0,0-4.68-4A8.6,8.6,0,0,0,33,30.94c.51.48,1,1,1.46,1.51a9.72,9.72,0,0,1,2.27,3.92,33.56,33.56,0,0,0,1.3,3.77A25.34,25.34,0,0,0,41.62,46a7,7,0,0,0,3.91,2.83,6.62,6.62,0,0,0,.69,0,15,15,0,0,1-3.84-3.72c.43-.15.55.07.68.3.61,1.17,2,1.45,2.77,2.51l.09,0c.77,0,1.22.64,1.77,1s1,.78,1.53,1.13a1,1,0,0,0,.71.2c.74-.24,1.45-.55,2.36-.91-1.27-1-2.41-1.9-3.54-2.81a17.56,17.56,0,0,1-3.36-2.84c.25-.29.42-.35.68-.12.75.63,1.52,1.23,2.17,1.76a2.7,2.7,0,0,1,.92-.13c.24.07.44.32.69.5-1.28-2.11-2.57-4.15-3.77-6.23s-2.17-4-3.26-6c-.4-.76-.78-1.54-1.25-2.25-.92-1.4-1.89-2.78-2.87-4.15a2.28,2.28,0,0,0-.64-.55c-1.74-1.11-3.49-2.2-5.23-3.3l-1.15-.7M145.77,49.51c-.15.36-.3.73-.43,1.1a20.63,20.63,0,0,1-.75,2.26,15.07,15.07,0,0,1-3.48,4.38,21,21,0,0,1-5.21,3.28,33.72,33.72,0,0,1-8.37,2.77c-.59.12-1.16.33-1.75.45a6.5,6.5,0,0,1-1.68.21c-2.24-.16-4.49-.37-6.72-.6-.62-.06-1.19-.14-1.65.38,0,0-.12,0-.2,0s-.15-.11-.19-.19c-.44-.81-.58-.87-1.42-.49-.36.16-.79.07-.84-.31-.07-.63-.53-.72-1-.9a9.22,9.22,0,0,1-1.58-.66c-1.31-.87-2.65-1.74-3.87-2.74a30.39,30.39,0,0,1-5.25-5.38c-1.12-1.54-2.14-3.16-3.31-4.67a20.56,20.56,0,0,1-3-5.08c-.08-.2-.2-.38-.3-.59l-3,.22c.3.95.52,1.78.81,2.57a26.68,26.68,0,0,0,2.22,5.26c.51.8,1.08,1.57,1.51,2.42a22.3,22.3,0,0,0,3.77,5.25,39.66,39.66,0,0,0,6.94,5.92A41.2,41.2,0,0,0,111.53,67a37.22,37.22,0,0,0,8.08,2.48,2.1,2.1,0,0,0,.75,0c1.85-.25,3.71-.49,5.56-.78,1.66-.26,3.32-.54,5-.87a15.36,15.36,0,0,0,5.43-2.46c1.54-1,3-2.1,4.48-3.22a17.1,17.1,0,0,0,2.7-2.39c1.33-1.55,2.86-3,3.55-5,.53-1.58,1.48-3,1.46-4.79.43-.13.84-.15,1,.36s.22.81.38,1.4c.13-.52.25-.85.3-1.19.15-.94.29-1.88.39-2.83a16.67,16.67,0,0,0,.25-3.21,15,15,0,0,0-3.29-8.2c-.63-.79-1.25-1.6-1.9-2.44a2.06,2.06,0,0,1-.75-.16,1,1,0,0,0-1.23.13c-1,.75-2,1.54-3,2.31a.83.83,0,0,0-.21,1.18,15.05,15.05,0,0,0,.92,1.55,12,12,0,0,0,1.6,2A6.66,6.66,0,0,1,144.09,42a1.87,1.87,0,0,0,.47.46,4.56,4.56,0,0,1,1.69,2.47c.16.51.32.92.75,1,.11.59.19,1.07.27,1.56a1.87,1.87,0,0,1,.09.46c-.09,1.23-.2,2.46-.3,3.69A.7.7,0,0,1,147,52c-.11.14-.28.33-.41.32A.68.68,0,0,1,146,52a1.51,1.51,0,0,1-.07-.82,2.39,2.39,0,0,0-.17-1.67M173.26,32.2l0,.27a1.71,1.71,0,0,1-.53.1c-1.45-.13-2.9-.27-4.34-.43-.52-.06-1-.08-1.29.31a4.42,4.42,0,0,1,.4.87,1.16,1.16,0,0,0,1.18,1c.88,0,1.77.07,2.65.09.05,0,.1-.06.18-.12a3.14,3.14,0,0,1-.18-.31,5,5,0,0,1-.19-.52c.5.12.87.19,1.23.31a1.2,1.2,0,0,1,.65,1.15c-.13.45-.52.39-.86.39h-1.43a12.68,12.68,0,0,0-3.48.07,4.09,4.09,0,0,0-.24,2.54c1.07.16,2.12.33,3.17.47a11.41,11.41,0,0,0,1.43.07.77.77,0,0,0,.49-.13c.34-.39.66-.29,1,0s.54.39.4.78-.65.26-1,.36h-.1c-1-.1-2.07-.23-3.11-.31-.85-.06-1.69-.08-2.63-.13.08.51.14.88.2,1.3.57.15,1.11.33,1.66.44.82.17,1.65.5,2.39-.25.12-.13.61-.07.77.08a1.07,1.07,0,0,1,.28.83c0,.15-.42.29-.67.36a2.16,2.16,0,0,1-.67,0c-.87-.1-1.75-.22-2.63-.31-.37,0-.75,0-1.35,0,0,1,0,1.95,0,3,2-.28,3.88.84,5.9.52.06-.38.17-.66.6-.59a1.58,1.58,0,0,1,.87.92c0,.33-.28.5-.88.51h-.19c-1.36-.12-2.72-.27-4.08-.38-.75-.05-1.5,0-2.33,0,0,.55,0,1,0,1.34.94.83,2.09.18,3,.68.18-.12.33-.31.49-.32a1.06,1.06,0,0,1,.74.18.93.93,0,0,1,.14.76c-.05.15-.4.29-.62.29-.47,0-.94-.12-1.42-.16L166.59,48c0,1.09,0,2.06-.06,3a3.29,3.29,0,0,0,.58.15,8.26,8.26,0,0,1,3.07.55,1.52,1.52,0,0,0,1.29-.2c-.15-.22-.25-.39-.4-.62.65,0,1.15.06,1.48.61s.23.7-.29.81a4.3,4.3,0,0,1-.95.06c-1.1-.07-2.21-.17-3.31-.22-.5,0-1,0-1.6,0,.07.44.13.76.18,1.07l4.58.78-.39-.94a8.86,8.86,0,0,1,1.3.54.75.75,0,0,1,.24.63c-.06.31-.32.43-.67.38-.78-.11-1.57-.2-2.36-.27a7.51,7.51,0,0,0-2.86.12c0,.83-.1,1.64-.16,2.52l4.58.26c.29-.35.45-.7.61-.7.59,0,.59.53.7,1a2.28,2.28,0,0,1-1.42.46c-1.55,0-3.1,0-4.71,0-.05.64-.1,1.16-.14,1.68,1.12.26,2.1.52,3.09.69.55.1,1.15.45,1.67-.19.17-.21.66.1.71.41a.43.43,0,0,1-.47.56c-.48,0-.95-.06-1.43-.1l-3.74-.38a5.51,5.51,0,0,0-.4,2.58l2.33.34a2.12,2.12,0,0,0,1.56-.2c.27-.18.49-.14.62.16s.06.57-.32.64a6.13,6.13,0,0,1-1.12.14c-1.17,0-2.34,0-3.51-.05-.19.54-.34,1-.52,1.56a9.23,9.23,0,0,0,4.88.27c.47-.13.65,0,.57.49a7.11,7.11,0,0,1-3.29.37c-.87-.11-1.75-.13-2.65-.19l-.55,1.72c1,.17,1.79.66,2.7.19.09-.05.38.15.49.3s-.12.35-.25.43a1.27,1.27,0,0,1-.64.16c-.63,0-1.26-.05-1.89-.06-.38,0-.79-.1-1,.37s-.41,1-.62,1.58a1.75,1.75,0,0,0,.4.09c.66-.06,1.32-.12,2-.21.27,0,.51-.07.61.25s-.11.48-.38.55a6.08,6.08,0,0,1-1.11.23c-.51,0-1,0-1.53,0-.69,0-.79.12-1,1h3.68l0,.22a4,4,0,0,1-.67.21c-1,.13-1.95.24-2.92.36-.28,0-.7,0-.81.18a4,4,0,0,0-.92,2l2.86.71a5.25,5.25,0,0,1-.64.11c-.73,0-1.45,0-2.18,0a.75.75,0,0,0-.82.46q-1.44,2.58-2.92,5.13c-1.25,2.17-2.55,4.31-3.79,6.49-.65,1.13-1.24,2.29-1.79,3.46-1.06,2.27-2,4.59-3.14,6.83-.86,1.73-1.89,3.38-2.83,5.08-.25.47-.45,1-.67,1.47a19.07,19.07,0,0,1-2.55,5q-2,2.4-4.13,4.73Q134,119,131,122.23c-.91,1-1.89,1.89-2.84,2.82-.7.69-1.45,1.33-2.11,2-.91,1-1.73,2.1-2.62,3.12a5.9,5.9,0,0,1-2.15,1.68,10,10,0,0,0-1.74,1c-1.49,1-3,2.07-4.44,3.11s-3,2.18-4.56,3.27c-.43.31-.84.63-1.4,1.06.81.47,1.47.87,2.15,1.24a22.66,22.66,0,0,1,2,1.05c.64.42,1.52.33,2.17.94-.79.17-1,.21-1.5,0a17.1,17.1,0,0,1-5.45-3.06L106,142.2a3.79,3.79,0,0,0,.39.43,26.83,26.83,0,0,0,2.13,1.73,22.76,22.76,0,0,0,3.41,2.15c.23.1.47.25.22.7a16.9,16.9,0,0,1-1.67-.78c-.95-.57-1.86-1.19-2.78-1.8a5.16,5.16,0,0,1-2.26-2.16l-1.74,1.18a2.21,2.21,0,0,0,.2.25c1.21.92,2.43,1.84,3.63,2.78a28.79,28.79,0,0,1,3.67,2.66,1.64,1.64,0,0,0,.48.28,2.51,2.51,0,0,1,.49.25,8.55,8.55,0,0,0,2.84,1.47.94.94,0,0,0,1.2-.37,2.93,2.93,0,0,0-.39-.3c-1.32-.75-2.64-1.5-4-2.22-.38-.21-.61-.44-.5-.92a.74.74,0,0,1,1,.18c.21.2.38.44.6.61a19.07,19.07,0,0,0,4.42,2.16,1.52,1.52,0,0,0,.56,0,5.42,5.42,0,0,0-1.3-.86c-.71-.41-1.43-.82-2.13-1.25-.21-.13-.46-.38-.21-.61s.45,0,.68,0c0,0,.1.08.15.12a14.92,14.92,0,0,0,3.48,1.91,1.38,1.38,0,0,0,1.66-.35l-.79-.48c-.71-.42-1.43-.83-2.12-1.28-.16-.1-.23-.32-.39-.57l.71-.13c-.15-1,.86-.65,1.19-1.12,0-.19-.08-.42-.12-.71.22,0,.41-.09.51,0,.62.43,1.12.11,1.64-.21.71-.43,1.44-.83,2.14-1.27a6.63,6.63,0,0,0,1-.79,1,1,0,0,1,1.6,0,1.67,1.67,0,0,0,.53.5c.84.4,1.68.76,2.53,1.11a1.4,1.4,0,0,0,1.56-.26l-.66-.33c-1.8-.81-3.59-1.62-5.4-2.42-.37-.17-.59-.34-.29-.76.39.22.73.45,1.1.62a25.32,25.32,0,0,0,4.11,1.68c1.12.31,2.24.74,3.26-.27.32-.32.87-.36,1.11-.87-1.26-.48-2.45-.9-3.61-1.39s-2.13-1-3.2-1.49c-.24-.11-.31-.27-.13-.51,1.2.54,2.36,1.14,3.57,1.57s2.22.54,3.32.85a2.34,2.34,0,0,0,2.19-.43c1.39-1.11,2.81-2.17,4.15-3.34,1.69-1.48,3.31-3,5-4.58s3.28-2.9,4.85-4.43a33.36,33.36,0,0,0,2.91-3.26c.88-1.12,1.62-2.33,2.43-3.5.61-.89,1.23-1.76,1.75-2.51a9.64,9.64,0,0,1-1-1.36,1.63,1.63,0,0,1,.28-1.69c.43-.61.92-1.25.48-2.1,0-.09.14-.3.21-.44l.83.2,3.3-3.93c-.15-.42-.26-.73-.38-1.05.72-.32.72-.32,1.31.14.48-.53,1-.47,1.6,0,.47-.72,1.24-1.13,1.31-2a28.19,28.19,0,0,0,.19-3,5,5,0,0,0-.67-2.73c-.17-.24-.41-.51-.09-.72s.5.12.67.34a1.54,1.54,0,0,1,.26.51,21.28,21.28,0,0,1,.35,2.24c.06.77,0,1.54,0,2.36,1.78-1.11,1.85-2.84,2.05-4.57l-.68.24a2.13,2.13,0,0,1,.33-1.85,4.4,4.4,0,0,0,.47-3.35l-.84-.34c.46-.32.45-1,1-.88s.52.72.68,1.33c.57-1.07,1.08-2,1.55-3a1.11,1.11,0,0,0,.07-.65c-.23-2-.2-4-1.6-5.67a.37.37,0,0,1,.54-.5,2.16,2.16,0,0,1,.61.83c.33,1,.6,2.13.86,3.21a8.76,8.76,0,0,1,.13,1.16,12.49,12.49,0,0,0,2.22-5.25,1.83,1.83,0,0,0,0-.66,11.44,11.44,0,0,0-1.34-4.34,2.55,2.55,0,0,1-.2-.64c.28.08.51.08.58.18a6.64,6.64,0,0,1,.83,1.49,13.07,13.07,0,0,1,.64,2.68,1.91,1.91,0,0,0,1.06,1.78c.22,1.18-.9,2-.59,3.36.27-.46.47-.73.61-1,.77-1.51,1.74-3,1-4.81,0-.06,0-.13,0-.19-.34-1.45-.63-2.91-1.05-4.34-.36-1.24-.87-2.45-1.31-3.67-.1-.27-.05-.56.27-.58a.69.69,0,0,1,.54.37,13,13,0,0,1,.34,1.26c.19.64.45,1.26.62,1.91.41,1.6.78,3.21,1.18,4.82a1.31,1.31,0,0,0,.55,1c.29-.74.55-1.42.83-2.08.17-.41.31-.87.91-.77a.82.82,0,0,1,.1.27.93.93,0,0,1,0,.37c-.46,1.38-.9,2.76-1.39,4.13a2,2,0,0,0,.06,1.89,2.28,2.28,0,0,0,.43-.61c.5-1.7,1-3.41,1.43-5.13a5.59,5.59,0,0,0,.12-1.87,42.76,42.76,0,0,0-1.72-7.91,6.25,6.25,0,0,0-1.58-3.2.59.59,0,0,1,0-.56.38.38,0,0,1,.65,0,4.19,4.19,0,0,1,.6,1.07q1,3,1.83,6.12c.29,1,.5,2,.74,3h.2c.17-.79.33-1.58.51-2.42-.79-.23-.85-.76-.71-1.37.09-.4.22-.8.29-1.2a4.52,4.52,0,0,0,.15-1.4c-.18-1.32-.45-2.63-.7-3.93a7.25,7.25,0,0,0-.33-.94c-.21.52-.34.86-.49,1.26-.67-1.17-.74-1.19-.46-2.16a3.42,3.42,0,0,0-.48-2.89c-.14-.21-.31-.4-.47-.6s-.26-.49,0-.63a.63.63,0,0,1,.53.2,14.19,14.19,0,0,1,.79,1.24,4.74,4.74,0,0,0,.51-2.31,4.34,4.34,0,0,0-1-2.5c.28-.3.52-.32.74,0s.34.48.61.89c.44-2.18.84-4.16,1.22-6.15a1.25,1.25,0,0,0,0-.74,4.32,4.32,0,0,0-1.48-2,6.28,6.28,0,0,1-.54-.49c1.41-.24,1.61,1,2.44,1.65.15-.87.26-1.65.43-2.42a1.92,1.92,0,0,0-.81-2.23.56.56,0,0,1-.07-.54.66.66,0,0,1,.58-.09c.21.08.37.3.71.6.07-.65.3-1.2.14-1.61a7.58,7.58,0,0,0-1.68-3.27,2.8,2.8,0,0,1-.39-.58c.71-.35,1,0,1.27.44s.59,1,.88,1.48a3.34,3.34,0,0,0,.4-1.63,2.22,2.22,0,0,1,.61-1.87l-3.21-4c-.19-.24-.53-.4-.33-.8.33-.17.53,0,.72.26.79,1,1.6,1.89,2.39,2.85s1.38,1.72,2.16,2.7a23.48,23.48,0,0,0-.27-4.94c0-.26-.33-.5-.51-.75l-.76.45a1.41,1.41,0,0,1-.89-1.39c-.08-1.13-.48-2-1.74-2.27-.08,0-.13-.13-.19-.2.34-.88.34-.88,1.43-.66a3.41,3.41,0,0,0,.21-.38c.29-.61.45-.68,1-.41a5.31,5.31,0,0,1,.63.42c.42.27.86.53,1.26.83a6,6,0,0,1,.69.64c.17.18.32.36.45.51l1.17-.74a1.71,1.71,0,0,0-.29-.22c-1.21-.55-2.41-1.11-3.64-1.62a4.08,4.08,0,0,0-1.28-.32c-1.4-.07-2.79-.08-4.19-.14-.5,0-1-.07-1.5-.11-1-.09-2-.21-2.94-.28a21.9,21.9,0,0,0-2.56-.08,2.14,2.14,0,0,0-1.43.56l4,.85m-14.83,4.57.85,0c-.05-1.15-.1-2.24-.14-3.37l-4.75-.66a1.59,1.59,0,0,1-2.56,1c-.9-.49-1-.89-.28-1.7-2.23-.78-4.43-1.6-6.78-2.3.39,1,1.32,1.22,2,1.77a2.85,2.85,0,0,1-.84-.16c-1.82-.58-3.64-1.14-5.44-1.76a1.63,1.63,0,0,0-1.71.41,5.74,5.74,0,0,0,1.08.64c.57.19,1.18.26,1.76.42,1.62.45,3.33.7,4.57,2a29.55,29.55,0,0,1,3.07,3.37,16.94,16.94,0,0,1,2.93,7.68,8.74,8.74,0,0,1,0,2c-.12,1.17-.33,2.33-.51,3.5a15.06,15.06,0,0,1-3.44,7.74,21.59,21.59,0,0,0-2,2.33,26,26,0,0,1-6.84,6.83,1.77,1.77,0,0,1-.34.16l-1.45.71a4.19,4.19,0,0,1-.69.29c-1.57.43-3.12.9-4.7,1.25s-3.41.71-5.14,1c-1.15.17-2.33.21-3.5.27a17.33,17.33,0,0,1-3.45,0,53.56,53.56,0,0,1-6.41-1.45,28.85,28.85,0,0,1-9.18-5,36.59,36.59,0,0,1-4-3.63c-1.41-1.45-2.7-3-4-4.57a10.09,10.09,0,0,1-.73-1.09,6.38,6.38,0,0,0,0,1A4.15,4.15,0,0,1,94.56,59a10.42,10.42,0,0,1-3,2.32,8.48,8.48,0,0,0-.91.64c.51.15.86.27,1.21.36.92.23,1.87.37,2.76.69,1.58.56,3.14,1.19,4.68,1.86A35.82,35.82,0,0,1,103.67,67a30.06,30.06,0,0,1,4,3,34.72,34.72,0,0,1,3,3.1,14.12,14.12,0,0,1,2,2.53,40.57,40.57,0,0,1,2.05,4.5,25.09,25.09,0,0,1,1.45,9.72,6.42,6.42,0,0,1-.09,1.32c-.34,1.45-.68,2.91-1.13,4.33a38.08,38.08,0,0,1-2.55,6.33c-.51,1-1.25,1.83-1.77,2.8a41.38,41.38,0,0,1-5,7.38,41.81,41.81,0,0,1-4,4.24,39.5,39.5,0,0,1-5.93,4.62c-1.21.69-2.43,1.37-3.67,2a4.87,4.87,0,0,1-1.09.3l-2.78.66c.27.34.46.62.68.87a20.88,20.88,0,0,0,1.41,1.56c.83.77,1.28,1.9,2.31,2.49a.5.5,0,0,1,.2.7c-.13,0-.21,0-.25-.05-1.44-1.13-2.91-2.23-4.31-3.41-.72-.6-1.58-1.11-1.79-2.15l-2.8-.25a3.76,3.76,0,0,0,.28.53c1.3,1.63,2.59,3.27,3.93,4.88.91,1.08,2,2.05,2.81,3.19s1.41,2.09,2.73,2.48a.79.79,0,0,1,.15.12c1,.74,2,1.49,3,2.21.39.28.83.49,1.24.73l.11-.16c-.18-.17-.35-.35-.55-.51l-3.15-2.46a2.12,2.12,0,0,1-.36-.3.85.85,0,0,1,.1-1c.37-.25.56,0,.78.26a4.64,4.64,0,0,0,.77.7c1.29,1,2.59,1.94,3.9,2.9a4.44,4.44,0,0,0,.74.42c.63.27.69.24,1.21-.49l-4.65-3.9c-.28-.24-.66-.41-.42-1,.41.32.76.61,1.13.87,1.19.81,2.55,1.35,3.67,2.28.46.38,1,.62,1.52,1s.79.15,1.08-.3a14.23,14.23,0,0,0-3.23-2.83c-.4-.28-.58-.53-.55-.84a9.21,9.21,0,0,0,1.1-1.31,24.21,24.21,0,0,0,2.3-4.47,3.23,3.23,0,0,1,.31-.58c.29-.53.59-1,.86-1.57s.37-1,.62-1.39a1.57,1.57,0,0,0,.15-1.27.83.83,0,0,1,.07-.67.72.72,0,0,1,.69-.07.87.87,0,0,1,.26.71,5.34,5.34,0,0,1-.43,1.54c-1.06,2.21-2.16,4.39-3.24,6.59a3.73,3.73,0,0,0-.17.66l.84.49c.26-.49.51-.92.72-1.37.57-1.24,1.2-2.46,1.67-3.74s1.53-2.22,1.38-3.69c0-.36.28-.49.6-.42s.36.34.27.61c-.29.9-.54,1.82-.9,2.69-.5,1.21-1.09,2.37-1.64,3.55-.46,1-.91,2-1.4,3.1l1.42.57c.11-.66.2-1.18.29-1.69,0-.24,0-.61.19-.69.65-.37.77-1,1.09-1.61a6.92,6.92,0,0,0,1.23-4.06l.53-.14a1.45,1.45,0,0,1,.24,1.65c-.39,1-.84,2.06-1.26,3.09-.19.49-.36,1-.53,1.47a8.15,8.15,0,0,0,2.5,1.35.78.78,0,0,0,1.1-.35c-.68-.32-1.46-.38-1.67-1.22.47-1,.53-1,1.55-.57a8.23,8.23,0,0,0,1.33.5,1,1,0,0,0,.72-.07c.58-.4,1.11-.86,1.77-1.39A13.24,13.24,0,0,1,113,128a20.15,20.15,0,0,1-2.22-1.26.72.72,0,0,1-.14-1.1c.33-.37.61-.21,1,0a14.93,14.93,0,0,0,3.73,1.63,1,1,0,0,0,.7,0c.62-.49,1.19-1,1.82-1.59a6.55,6.55,0,0,0-2.7-1.35,4.06,4.06,0,0,1-1.25-.62.63.63,0,0,1-.17-1c.28-.34.61-.24.94,0a4.56,4.56,0,0,0,.75.41c1.63.62,3.27,1.22,4.9,1.82,1.07.4,1.39.29,2.13-.82a10.87,10.87,0,0,0-1.83-.5c-.66-.07-1-.66-1.65-.78a3.82,3.82,0,0,1-1.14-.49,1,1,0,0,1-.38-1.17c.25-.44.6-.21.92-.1l3.28,1.18a11.63,11.63,0,0,0,.88-.79c.27-.29.49-.63.77-1a5.72,5.72,0,0,0-.52-.32c-.49-.22-1-.41-1.49-.64s-.77-.84-.57-1.16.66-.43,1.09-.26l1.52.56c1.61.59,1.5.36,2.25-.68a.84.84,0,0,0,.07-.19c-.1-.28-.2-.58-.29-.85.27-.35.5-.64,1-.44s.84,0,1.15-.49a20.72,20.72,0,0,1,2.08-2.82c1-1.14,2.24-2.15,3.37-3.21a22.88,22.88,0,0,0,2.82-3.59c-.37-.49-.92-.88-.46-1.65l1.34.31,1.38-2.17A38.33,38.33,0,0,0,141,97c.45-1.07.66-2.24,1.07-3.34.75-2,1.53-4,2.37-6,.73-1.71,1.53-3.4,2.34-5.08.63-1.31,1.33-2.58,2-3.88s1.15-2.4,1.74-3.59c.21-.42.5-.8.69-1.23.37-.88.71-1.77,1.05-2.66a19.17,19.17,0,0,0,.71-1.86c.35-1.26.56-1.41,1.78-1.16a.91.91,0,0,0,.26,0c.28-.92.62-1.88.84-2.86.38-1.73.67-3.48,1-5.22.12-.63.28-1.24.42-1.86.42-2,.88-4,1.26-6.06s.69-3.94,1-5.92a4.87,4.87,0,0,0,0-1.7,19.68,19.68,0,0,0-.7-2.22c-.85.41-1.37.11-1.36-.82a.89.89,0,0,1,0-.28,10.25,10.25,0,0,0,.29-2.81,2.26,2.26,0,0,1,.64-1.63ZM43.75,26a15.11,15.11,0,0,0,4,1.1c0,.78,0,.8-.62.71A15.87,15.87,0,0,1,43.6,27a2.86,2.86,0,0,0-.85,0c.71,1.16,1.39,2.16,2,3.22a14.7,14.7,0,0,0,2.84,3.57,7.22,7.22,0,0,0,2.13,1.4,2.27,2.27,0,0,0,1.64,0,1,1,0,0,1,1.18.18c.46.35.2.74,0,1.11-.24.55-.54,1.08-.74,1.65a1.66,1.66,0,0,0,.51,2c.16.13.19.43.26.66s.07.43.14.62a4,4,0,0,0,2.6,2.23,16.81,16.81,0,0,1,3.32,1.64c1,.66,2,1.37,3,2,.65.43,1.36.79,2,1.23s1.45,1.14,2.23,1.61c1.3.78,2.67,1.45,4,2.22A12.21,12.21,0,0,1,72,54a5.62,5.62,0,0,0,2,1.31c.92.32,1.88.55,2.8.9a7.6,7.6,0,0,0,3.83.47c1.26-.17,2.52-.31,3.77-.51A5.28,5.28,0,0,0,87,55.07l1.46-1.21c.54-.44,1.07-.89,1.64-1.28a3.48,3.48,0,0,1,.91-.29c0,.9-.73,1.13-1,1.69a4.51,4.51,0,0,1-1.23,1.42,10,10,0,0,1-1.65,1c-.53.28-1.07.53-1.61.79a1,1,0,0,1,.07.15l2.34-.47L88,57a43.36,43.36,0,0,1-5.18,1.51A10.21,10.21,0,0,0,87,58.1c-.12.51-.12.5-1.33.76-.56.12-1.11.27-1.74.42.46.34.8.61,1.26,1,.26,0,.67,0,1.07-.1,1.06-.18,2.11-.4,3.16-.58.16,0,.43,0,.48.06.17.27,0,.39-.28.46-.76.22-1.52.46-2.29.64-.38.08-.68.15-.6.58,1.22.56,2.32-.39,3.5-.16.14,0,.33-.17.48-.28.51-.38,1-.8,1.53-1.14A6,6,0,0,0,94.45,57a4,4,0,0,0-.2-3.18c-1.15.38-1.84,0-2-.93.3-.19.59-.34.85-.54s.54-.51.83-.79c-1.31-2.66-2.71-5.37-3-8.58-.79.06-1.57.18-2.34.17-1.56,0-3.12,0-4.66-.19-2.2-.23-4.41-.55-6.59-.94a29.3,29.3,0,0,1-4.51-1.17c-1.58-.55-3.1-1.29-4.63-2s-2.9-1.78-4.44-2.53a18.66,18.66,0,0,1-2.47-1.61c-.92-.62-1.83-1.24-2.73-1.89A12.73,12.73,0,0,0,55.84,31a1.39,1.39,0,0,1-.5-.52,12,12,0,0,0-.73-1.2,33.15,33.15,0,0,1-3.43-4.56,16.89,16.89,0,0,1-1.1-2,2.11,2.11,0,0,1,0-2.09,1.13,1.13,0,0,0,.08-1.44c-.19-.34-.34-.69-.51-1a5,5,0,0,1-.41-3.7,8.66,8.66,0,0,0,.19-1.05,20.17,20.17,0,0,1-3-.49c-1-.29-1.75-1-2.75-1.25-.63-.17-1.23-.48-1.85-.69-.45-.15-.94-.19-1.39-.35a19.92,19.92,0,0,0-5.77-1.05,25.05,25.05,0,0,1-6.09-1c-1.1-.34-2.23-.62-3.39-1,.19.82.19.82-.83,1.27a3.15,3.15,0,0,1,1,2.16,1.5,1.5,0,0,0,.26.5c.71,1.23,1.43,2.45,2.18,3.73,0,.07-.07.23-.12.38a2.81,2.81,0,0,1-2.49,2c-2.3.24-4.61.46-6.91.77a19.82,19.82,0,0,0-2.83.7A1.52,1.52,0,0,1,14.19,19a5.78,5.78,0,0,1-.84-.73c-.28-.28-.52-.64-.31-1a2.34,2.34,0,0,0-.34-2.59,21.41,21.41,0,0,0-1.48-2,1.25,1.25,0,0,1,0-1.85,1.85,1.85,0,0,0,.16-2.05c-.55-1.12-.26-1.72,1-2a17.53,17.53,0,0,0,2.89-1.23C14.6,5.2,9.37,4.5,7.59,4.52c-.23,1.05-1,1-1.86.83a21.29,21.29,0,0,0,2.43.85,3.28,3.28,0,0,1,.63.19.82.82,0,0,1,.45.87.62.62,0,0,1-.64.58,2.67,2.67,0,0,1-1-.07c-.64-.2-1.24-.5-1.87-.73s-1-.34-1.49-.5C3.71,7.87,4,8.51,5,8.63,5,8.1,4,7.85,4.62,7.07c.22.22.51.38.59.61A12.63,12.63,0,0,0,6.56,9.84c1.36,2.18,2.6,4.43,3.9,6.65a15.58,15.58,0,0,0,2,3.12c.32.33.6.71.89,1.07l4.55,5.5c.18.22.4.41.58.64a1,1,0,0,1-.27,1.55,5.78,5.78,0,0,1-.77.31l4.13,6.54.81-.1c.64.76,1.48,1.37,1.39,2.5-.18.21-.36.43-.56.65l.3.69c1.18-.19,2,.15,2,1a2.27,2.27,0,0,0,1,1.62,4.68,4.68,0,0,0,.66.37,1.24,1.24,0,0,1,.41,1.51,1.05,1.05,0,0,1-1.53.05,5.81,5.81,0,0,1-.43-.43,4.69,4.69,0,0,0,.57,1.29c.24.4.51.79.77,1.19l.09-.16,1.77.58c.36.12.7.28,1.07.37,1.28.33,1.65,1,1.18,2.23,1.05,1,1.07,1.41,0,2.22a13.52,13.52,0,0,1,1.42.79c.37.26.85.58,1,1a1.82,1.82,0,0,0,.92,1.12c.37.24.73.5,1.09.76l1.9,1.44c-.17.6.32,1.58-.91,1.85a27.9,27.9,0,0,0-4-3c0,.65.18,1,.63,1.11a1.71,1.71,0,0,1,.52.2c1,.69,1.9,1.38,2.84,2.09.77.59,1.53,1.21,2.27,1.79.08,0,.13,0,.14-.05l.24-.52A11.56,11.56,0,0,1,42.9,54.3c1-.72,2.06-1.47,3.16-2.25-.29-.26-.54-.5-.81-.71-.84-.66-1.73-1.27-2.54-2a12.89,12.89,0,0,1-3.22-4,17.54,17.54,0,0,0-1.13-2.2,29.64,29.64,0,0,1-2.59-6,10.72,10.72,0,0,0-2.07-3.83c-1-1-1.88-2.07-2.82-3.11a6,6,0,0,0-.9-1c-.91-.63-1.88-1.19-2.82-1.77-.46.83-.77.93-1.54.4s-1.23-.9-1.81-1.39c-1.29-1.08-1.44-1.86-.55-3.3,1.18-1.91,2.43-3.78,3.67-5.7a2.25,2.25,0,0,1,.62.11c.79.35,1.46,1.05,2.45.76.06,0,.15.1.24.14a7.75,7.75,0,0,0,.78.35c1.64.56,3.3,1.09,4.94,1.67a7.65,7.65,0,0,1,2.26,1,16.86,16.86,0,0,1,2.3,2.4c.66.76,1.25,1.59,1.83,2.34L43.78,26Zm92,4.37a2.26,2.26,0,0,1,2.69-.29c-.68-.65-1.12-1.55-2.24-1.55a10.25,10.25,0,0,1-1.4-.29c-.54-.09-1.09-.16-1.59-.23.08.7.15,1.28.21,1.86a.28.28,0,0,0,.13,0c1.05-.67,1.28-.63,2,.35.06.07.14.12.21.19-.44,1.08-1.45,1.16-2.44,1.3a3.59,3.59,0,0,1,.13.71.81.81,0,0,1-1.24.77,1.06,1.06,0,0,1-.68-.85.81.81,0,0,0-.81-.77c-1.19,1-1.54,1.17-2.14.92a1.22,1.22,0,0,1-.78-1.38l1.75-.8.93.35c.33-.86,1-.53,1.6-.4,0-.1,0-.14,0-.15-.48-.39-.49-1-.78-1.48s-.9-.7-1.23-1.14a1.17,1.17,0,0,0-1.1-.56,1.53,1.53,0,0,1-1.76-1.14h-2.28c-.18.37-.34.69-.53,1.06-2-.83-4,0-5.79-.19-.23.52-.44,1-.61,1.41a10.6,10.6,0,0,1-1.83,3c-.66.77-1.38,1.5-2,2.27a24,24,0,0,1-8,5.83c-1.21.59-2.46,1.11-3.72,1.59-1.1.42-2.23.73-3.34,1.09-.25.09-.48.21-.8.35.29.36.48.61.68.85,1.32,1.54,2.75,3,3.92,4.66a22.56,22.56,0,0,0,5.32,5.27c.39.28.63.24.84.07a18.8,18.8,0,0,0,1.43,1.58,6.53,6.53,0,0,0,1.53,1c1,.46,2,.86,3,1.27A32.29,32.29,0,0,0,122,59a7.57,7.57,0,0,0,4.27-.34,1,1,0,0,1,.45-.13,5.26,5.26,0,0,0,3.26-.84c1.74-.84,3.43-1.78,5.18-2.62a14.07,14.07,0,0,0,5.23-4.45,2.66,2.66,0,0,0,.51-1.79,15.06,15.06,0,0,0-2-6.31,20.87,20.87,0,0,0-4.42-5.81c-.37-.34-.55-.69-.29-1.14-1-1.08-.94-1.6.36-2.34a14.23,14.23,0,0,0,1.52-1,8.88,8.88,0,0,0,.85-.91c-.75-.1-1.11-.42-1.22-1M70.56,75.88c-.15-.1-.35-.32-.43-.28a2.24,2.24,0,0,1-1.67,0,13.78,13.78,0,0,0-1.68-.31,11.88,11.88,0,0,1-4.56-1.17l-.3.27c-.6.65-1.18,1.33-1.82,1.94a2.79,2.79,0,0,1-2,.85c-.82,0-1.64-.09-2.46-.11a7.63,7.63,0,0,1-3.76-1.42,1.05,1.05,0,0,1-.3-.36,6,6,0,0,0-1-1.59,3.78,3.78,0,0,1-1-1.63c-.07-.14-.17-.27-.25-.41l-.75-1.22a2.49,2.49,0,0,1-.2-2,8.39,8.39,0,0,1,3.07-4.47c.68-.51,1.41-.94,2.21-1.46-.19-.31-.35-.65-.57-.94-1-1.28-2-2.53-3-3.82a7,7,0,0,1-1.56-2.92,1.1,1.1,0,0,1,.6-1.33,4.46,4.46,0,0,0,.17,1.1A17.69,17.69,0,0,0,52,58.92c.89,1.07,1.71,2.21,2.56,3.33a3.58,3.58,0,0,0,.51.06,6.13,6.13,0,0,1,4.56,1.58A29.33,29.33,0,0,1,61.84,66a4.61,4.61,0,0,1,1.54,2.36,7.5,7.5,0,0,1-.68,4.9,6,6,0,0,0-.2.6c2.32.71,4.69.79,7,1.26-.73-.44-1.49-.8-2.24-1.19a5.8,5.8,0,0,0-2.82-1,.45.45,0,0,1-.5-.58,2.34,2.34,0,0,1,.53,0c1.94.29,3.87.59,5.81.9a6,6,0,0,0,.89.26c.87,0,1.75,0,2.73-.07-.08.22-.09.44-.19.51a1.49,1.49,0,0,1-1.27.22,3,3,0,0,0-2.23.1c.89.89,2.12.85,3.23,1.24a5.42,5.42,0,0,0,.71-2.74c-.06-.9.24-1.84-.22-2.73.29,1-1.18.86-1,1.67a6.36,6.36,0,0,1-2.56.14,22.42,22.42,0,0,1-5.14-1c-.39-.12-.9-.15-1-.8l2.52.35.37-1.16c-.58-.15-1.13-.28-1.67-.44-1-.32-1-.33-1.28-.84,1.1.17,2.2.3,3.28.51,1.3.26,2.58.62,3.89.84a12.37,12.37,0,0,0,2.28.06c.15,0,.3-.23.46-.36-.14-.13-.26-.37-.42-.39-2.22-.4-4.45-.76-6.67-1.15-.87-.16-1.74-.37-2.61-.56-.35-.07-.65-.21-.54-.75.72.09,1.41.14,2.09.26q1.32.21,2.61.51c1.08.23,2.15.53,3.22.76a4.39,4.39,0,0,0,2.2.13c-.06-.5-.11-1-.17-1.51-.35,0-.79-.2-1,0a1.31,1.31,0,0,1-1.35,0c-.68-.25-1.35-.56-2-.81s-1.17-.39-1.75-.58c.1-.54.43-.49.76-.49s.68.09.92-.06a1.43,1.43,0,0,1,1.36,0c.62.23,1.24.45,1.85.7s.85,0,.85-.57a.92.92,0,0,0-.07-.28c-1.14-.35-2.23-.67-3.32-1a2.54,2.54,0,0,0-.56,0c-.63,0-.66-.08-.54-.94l3,.61c-.84-.7-.84-.7-1-1.21a6,6,0,0,1,.74,0,1.39,1.39,0,0,1,.74.26c.26.3,0,.59-.21.83,0,0,0,.11,0,.23l.69,0c-.59-2.86-2.41-4.73-4.52-6.48a8.51,8.51,0,0,1-.53,1.51c-.69,1.17-1.44,2.31-2.19,3.44a.4.4,0,0,1-.74-.06,2,2,0,0,1-.08-.65,5.34,5.34,0,0,0,1-.94c.71-1.15,1.35-2.35,2.07-3.62a20.15,20.15,0,0,0-4-2.19c-.3,1.29-.58,2.53-.88,3.76a8.18,8.18,0,0,1-.47,1.45c-.08.17-.39.39-.55.35s-.29-.34-.16-.62.21-.59.32-.88c.48-1.36.24-2.93,1.37-4.17-.43-.22-.72-.4-1-.53-.47-.2-1-.33-1.41-.56a10.72,10.72,0,0,0-4.37-1.25,12.15,12.15,0,0,0-5.16.51c-1.5.59-3,1.28-4.42,2A3.27,3.27,0,0,0,45.49,55c1.41,2.39,3.72,4,5.41,6.11a35.43,35.43,0,0,1-6.4-5.62A7.74,7.74,0,0,0,41,59.83c.52.18,1.07.34,1.59.54s1,.44,1.57.66,1.13,0,1.44.72c-1,.22-1.88-.31-3-.36l2.76,1.32c-.31.18-.59.25-.65.4-.29.74-.84.54-1.35.41-.89-.23-1.77-.48-2.64-.76-.18-.06-.3-.28-.44-.42.14-.14.26-.34.43-.41a2.52,2.52,0,0,1,.69,0c-.23-.44.13-1.25-.89-1.24A6.06,6.06,0,0,0,39.9,63a3,3,0,0,1,.53.09,16.68,16.68,0,0,0,4.12,1.08c.14,0,.38.27.35.34a.89.89,0,0,1-.4.55,1.28,1.28,0,0,1-.74-.07c-.77-.21-1.52-.44-2.29-.66-.61-.18-1.23-.34-1.95-.54,0,.3,0,.48.1.52a16.13,16.13,0,0,0,4,1.42c.11.4,0,.58-.34.6a2.37,2.37,0,0,1-.75-.09c-1-.26-1.89-.55-2.83-.82a1,1,0,0,0-.33,0c0,.24-.06.48-.1.75,1.3.35,2.43,1,3.77,1.08a.84.84,0,0,1,.45.12,2.65,2.65,0,0,1,.43.57,7,7,0,0,1-2.6-.24c-.68-.26-1.42-.41-2.15-.62a2.54,2.54,0,0,0,.19,2.26c1.23,0,2.52.11,3.81.11.37,0,.67,0,.95.44a3,3,0,0,1-1.95.5c-.91-.06-1.81-.14-2.71-.22,0,.64,0,.62.38,1.51a.79.79,0,0,0,1,.56c1-.25,2.12-.11,2.94-.94.09-.09.43,0,.58.06a.59.59,0,0,1,0,.51,1.44,1.44,0,0,1-1.1.82c-.88.19-1.76.43-2.72.66.43.92.86,1.81,1.31,2.78,1.42-.63,3.05-.66,3.79-2.23.63.43.76.85.32,1.29A4.29,4.29,0,0,1,44.9,76c-.78.39-1.58.73-2.59,1.18.38.15.55.29.68.26a20.08,20.08,0,0,0,2-.55c1.19-.42,2.37-.91,3.56-1.34.14,0,.33,0,.71.08-.93.92-2,1.09-2.92,1.66a23.27,23.27,0,0,1-3,1.39c2,3.44,5.18,5.35,8.53,7.24a32.68,32.68,0,0,0,1.57-2.93,24.43,24.43,0,0,0,1.12-3.12c.53.28.36.72.33,1.1,0,.79.2,1,1,.78.13-.4-.42-.93.26-1.27a2,2,0,0,1,.36.42c.61,1.07.62,1.08,1.78.82.27-.06.53-.16.83-.25-.1-.33-.17-.6-.24-.85l.55-.77,1.29.14-1-1a17.42,17.42,0,0,0,5.26.18l-1.28-1a1.24,1.24,0,0,1,.82.07,12.16,12.16,0,0,1,1.56.7c.59.34,1.1-.12,1.66-.12.21,0,.41-.29.61-.45a1.92,1.92,0,0,0-1.45-1c-1-.16-1.94-.33-2.9-.52a1.19,1.19,0,0,1-1-.62l2.42.2c.06-.22.11-.37.16-.57a4.41,4.41,0,0,0,2.19.71l-.48-.66a1,1,0,0,1,.08-.14l2.48.73.74-.53c.18.18.45.34.51.55.23.91,1,.93,1.75,1.14.09-.36.18-.68.25-1a6.44,6.44,0,0,0-1-.54c-.48-.16-1-.58-1.49-.15M93.27,34.12a1.14,1.14,0,0,0-.45-.13c-2.2.27-4.41.55-6.61.84-.3,0-.58.11-.9.17,0-.86.06-.89.6-.83a6.23,6.23,0,0,0,1.22,0c1.64-.19,3.27-.41,4.9-.61a20.18,20.18,0,0,0,4.56-.86c1.93-.69,4-.77,5.79-2,.94-.69,2-1.2,3-1.83.43-.28.82-.64,1.22-1a3.56,3.56,0,0,0-1.94.92,5.66,5.66,0,0,1-1.3.91c-2,.72-3.94,1.43-6,2s-3.82.91-5.72,1.41a12.07,12.07,0,0,1-2.07.14c-1.13.11-2.25.38-3.38.51s-2.38.21-3.64.31v-.79a7.73,7.73,0,0,0,3.45,0,14.41,14.41,0,0,0,3.38-.52,1.14,1.14,0,0,0-.63-.19l-5,.2c-.6,0-1.2.09-1.8.08a1.55,1.55,0,0,1-.65-.28s0-.32,0-.34a4.09,4.09,0,0,1,.69-.17s0,0,.08,0a6.63,6.63,0,0,0,1.3.25c1.16,0,2.33-.08,3.5-.14a4.8,4.8,0,0,0,.64-.12c-1-.12-2-.14-3-.2A18,18,0,0,1,82,31.69c-1.42-.3-2.82-.69-4.22-1.08a19.62,19.62,0,0,1-2.06-.76c-1.2-.49-2.42-1-3.58-1.54a33.69,33.69,0,0,1-5.44-3.67c-1-.77-1.91-1.57-2.87-2.35a5.66,5.66,0,0,1-2-2.14,3.67,3.67,0,0,0-.81-.92,5.23,5.23,0,0,1-.49-.45,10.46,10.46,0,0,1-2-4.17c-.23-1.2-.71-2.5.66-3.47a2.2,2.2,0,0,0-1.92.28A3.89,3.89,0,0,1,56,12a22.2,22.2,0,0,1-2.45.1,2.28,2.28,0,0,0-.74,0,11.63,11.63,0,0,0-1.24.58,8.09,8.09,0,0,0-.67,1.79A3.62,3.62,0,0,0,51,17.08c.41.93.87,1.84,1.35,2.73.76,1.42.84,1.45-.75,2.17a3.57,3.57,0,0,0,.27.68q.66,1.05,1.35,2.07a28.59,28.59,0,0,0,5.62,6.05c.83.68,1.78,1.21,2.64,1.85a9.4,9.4,0,0,0,3,1.46c2.91.88,5.82,1.76,8.74,2.62A26.44,26.44,0,0,0,78,37.79a.81.81,0,0,1,.84.64,9.15,9.15,0,0,1-1.28-.12c-2.35-.57-4.69-1.14-7-1.76-.88-.23-1.71-.65-2.59-.88-.58-.15-1.14-.64-1.89-.29.29.19.51.38.76.51,1.53.74,3.06,1.51,4.62,2.21a17.48,17.48,0,0,0,3.87,1.31c1.65.32,3.3.66,5,.91a39.11,39.11,0,0,0,4.81.54c2.13.06,4.26-.09,6.39-.15.7,0,1.4,0,2.09-.08a3.77,3.77,0,0,0,1.78-.69,6.3,6.3,0,0,1,2-.41,6.77,6.77,0,0,0,1.07-.37c1.24-.5,2.45-1.07,3.72-1.48a20.19,20.19,0,0,0,4.8-2.29c2.31-1.51,4.48-3.22,6.73-4.84a7.38,7.38,0,0,0,2.61-3.06,6.4,6.4,0,0,0-.77.7A15.11,15.11,0,0,1,112.6,31c-1.61,1.12-3.2,2.3-4.88,3.31A47.5,47.5,0,0,1,102.55,37a33.47,33.47,0,0,1-4.82,1.75,15.84,15.84,0,0,1-3.1.21l-7.3.46a27.79,27.79,0,0,1-4.74,0,3.41,3.41,0,0,1-.55-.14,11.61,11.61,0,0,0,1.34-.17,6.13,6.13,0,0,1,2-.26c.37,0,.76,0,1.14,0,1.93-.2,3.85-.4,5.77-.63a11,11,0,0,0,2.15-.4,5.7,5.7,0,0,1,3.52-.2.84.84,0,0,0,.47,0c.36-.11.71-.25,1.07-.38-.49-.91-.44-1,.48-1.22a8.08,8.08,0,0,0,1.53-.51c1.08-.53,2.12-1.14,3.2-1.67a52.91,52.91,0,0,0,7-4.76,18.54,18.54,0,0,0,2.92-3.13,6.26,6.26,0,0,0,1.27-2.26c-.87-.4-1.63-1-2.59-.78,0,.55,0,1-.08,1.42.5.47.58.76.17,1.24a27.29,27.29,0,0,1-2.09,2.21,19.92,19.92,0,0,1-3.77,2.88c-2.09,1.16-4.15,2.34-6.23,3.5a9.83,9.83,0,0,0-1.51.79,2.82,2.82,0,0,1-1.16.58c-1.9.4-3.78.82-5.69,1.16-1.43.25-2.89.38-4.34.6s-3.19.51-4.79.73c-.17,0-.36-.15-.54-.23a4.09,4.09,0,0,1,.44-.39c.15-.1.45-.13.47-.22.11-.81.76-.67,1.25-.72.91-.09,1.83-.07,2.74-.18q2.64-.33,5.26-.78c1.4-.24,2.8-.54,4.18-.87a3.94,3.94,0,0,0,1.94-.9,1.68,1.68,0,0,0-.46-.07c-1.65.33-3.29.72-4.95,1-2.69.46-5.4.87-8.1,1.27a14.8,14.8,0,0,1-1.77.07c0-.93.1-1,.77-.78a2.41,2.41,0,0,0,.83.14c1.38-.13,2.77-.25,4.15-.44a10.55,10.55,0,0,0,3.21-.78L94.4,34c0-.08,0-.16-.05-.24l-1.08.32m9.44,115.42a.7.7,0,0,1,1,.49,2.68,2.68,0,0,0,.53.87c.58.62,1.22,1.17,1.81,1.78a7.49,7.49,0,0,0,2.35,1.75c.62.27.62.29,1.14-.36a15,15,0,0,1-5.77-4.56c-1.2-1.35-2.33-2.76-3.51-4.16l-1.7.31a11.1,11.1,0,0,0,.78.87l3.43,3a15.93,15.93,0,0,1-5.39-3.7c.16,1.4-.24,2.84.51,4.19l.79-.78c.1.28.25.46.22.61-.22,1.2.49,2,1.08,2.95a.71.71,0,0,0,.87.39.86.86,0,0,1,.69.16c.74.69,1.43,1.43,2.17,2.11a13,13,0,0,0,1.26.95l1.33-.69c-.44-.27-.72-.47-1-.63a7,7,0,0,1-2.49-2c-.22-.3-.57-.74-.49-1,.2-.57-.08-1-.16-1.52.29-.22.54-.37.7,0,.11.26.25.41.5.43-.21-.53-.41-1-.6-1.51m64-42.19a2.75,2.75,0,0,0,1.3-1.75,5.14,5.14,0,0,0-1.28,1.75c-1.25,1.63-2.56,3.23-3.76,4.91-1.89,2.64-3,4.68-2.89,5.28.11-.11.19-.2.28-.28a24.39,24.39,0,0,0,2.41-3.38c1.23-1.64,2.43-3.32,3.57-5a4.79,4.79,0,0,0,.37-1.5m-60.19-1.72a5.41,5.41,0,0,0-1.61,2.38c.54-.79,1.07-1.59,1.6-2.38.17-.12.41-.21.51-.37.54-.88,1.1-1.76,1.57-2.68q1.65-3.21,3.22-6.46c.39-.79.69-1.62,1-2.43a1.44,1.44,0,0,0-.58.65l-3.39,6.28c-.73,1.37-1.47,2.74-2.18,4.13a3.43,3.43,0,0,0-.18.88m56.66-52.89c-.29.2-.34.45-.17.84a.6.6,0,0,0,.15-.84,9,9,0,0,1,.42-1.42,6.17,6.17,0,0,0,.26-2.79c0-.14-.11-.28-.17-.41a27.7,27.7,0,0,0-.43,3.32c0,.43,0,.87-.06,1.3M139,33.92c-.87.07-1.73.11-2.07-1.06l-1.19,1.07c.14.11.24.25.33.25.93,0,1.87-.1,2.8-.16.05,0,.09-.08.14-.12l.21.47c.33-.19.78.27,1.15-.25l-1.37-.2m38.05,58.87-.41.59.16.08c.08-.23.15-.45.23-.67a3.15,3.15,0,0,0,.89-1.71,2.42,2.42,0,0,0-.87,1.71m-94-63.21a1.29,1.29,0,0,0-1.25,0H83.1a.58.58,0,0,0,.87,0l-.87,0m27.22,71.27-.47.6.22.12c.08-.24.15-.48.23-.72l.45-.73-.2-.08c-.08.27-.15.54-.23.81M61.44,96.17c.38-2.09.76-4.17,1.15-6.34-1.34,0-2.6.18-3.85.12a23.66,23.66,0,0,1-3.64-.53,24,24,0,0,1-3-.89,7,7,0,0,1-1.62-.8,52.85,52.85,0,0,1-5-3.65,16,16,0,0,1-3.82-5c-.89-1.83-1.89-3.61-2.87-5.39A11.09,11.09,0,0,1,37.44,66,2.14,2.14,0,0,0,37,64.33l-2.65-4c-.2-.29-.42-.55-.64-.83a54.53,54.53,0,0,1-3-4.92c-.52-.83-1.08-1.63-1.57-2.48-.92-1.63-1.79-3.29-2.72-4.92-.76-1.32-1.62-2.59-2.38-3.91S22.65,40.7,22,39.39c-.39-.72-.73-1.49-1.16-2.19-1.16-1.86-2.36-3.68-3.52-5.54-1.32-2.1-2.64-4.2-3.91-6.33C11.92,22.9,10.51,20.45,9.1,18,8.39,16.77,7.8,15.45,7,14.27c-1.15-1.7-2.43-3.33-3.68-5a1.71,1.71,0,0,0-.77-.46c-.78-.27-.91-.54-.92-1.45a1.8,1.8,0,0,0-.47-1A4.74,4.74,0,0,1,0,3.85C0,3.14,0,3,.67,2.84c.13,0,.27-.11.37-.08a2.36,2.36,0,0,0,2.2-.61,9.29,9.29,0,0,1,4-1.33c1.51-.2,3-.37,4.54-.55l.18,0c1.13-.5,2.21-.07,3.31.15.84.16,1.71.16,2.56.26.43,0,.86.17,1.29.26s1.11.26,1.67.34c1.5.2,3,.38,4.53.55.31,0,.63,0,.95,0,2.31.18,4.63.25,6.92.59,2,.29,3.91.75,5.91.9a16.58,16.58,0,0,1,2,.48c.88.19,1.78.36,2.67.51a24.15,24.15,0,0,1,4.73,1,32.43,32.43,0,0,0,4,1.07c1.48.35,3,.69,4.46,1,1.65.31,3.32.54,5,.79,1,.16,2,.2,3,.44A22.07,22.07,0,0,0,67.84,9a59,59,0,0,0,7,.25.31.31,0,0,1,.31.17l-3.8.36c.29.45.71.43,1.08.51,1.82.37,3.65.72,5.49,1.07a4.36,4.36,0,0,0,2.32,0,3.23,3.23,0,0,1,2,0c2.16.73,4.46,1,6.53,2,.71.34,1.44.64,2.18.91a1.22,1.22,0,0,1,.77.9.91.91,0,0,0,.8.7c1.67.36,3.35.7,5,1.1,1.08.26,2.13.6,3.2.9a26.92,26.92,0,0,0,4.55.89c1.8.19,3.57.6,5.35.9a9.53,9.53,0,0,0,1.31.13,2.57,2.57,0,0,1,1.82.68,4.53,4.53,0,0,0,2.86,1.12c.83,0,1.49.21,1.78.87.85,0,1.6,0,2.34,0,1.27,0,2.54,0,3.8-.1a20.53,20.53,0,0,1,4.36.27,35.69,35.69,0,0,0,3.59.29,43,43,0,0,1,7,1c2,.43,4,.86,6,1.25a26.59,26.59,0,0,1,5.83,2.06,63.93,63.93,0,0,0,6.12,2.37,50.33,50.33,0,0,0,6.86,1.53c.37.07.75.1,1.32.17-.23-.35-.38-.56-.51-.78-.29-.53-.13-.95.46-1.07s1.31-.17,2-.29c1.65-.29,3.28-.74,4.94-.87a22.15,22.15,0,0,1,4.45.24c1.44.18,2.86.59,4.3.83,1,.16,2,.19,3,.26a7.46,7.46,0,0,1,5.37,3,7.14,7.14,0,0,1,1.55,2.7,3.22,3.22,0,0,0,.47.82,6,6,0,0,1,.91,4.19,1.76,1.76,0,0,1-.56.95,1.15,1.15,0,0,0-.47,1c0,1.13.06,2.26.08,3.4,0,.79,0,1.58,0,2.38a55.19,55.19,0,0,1-.5,8.62c-.15.84-.4,1.66-.58,2.49-.39,1.76-.68,3.56-1.18,5.29-.41,1.43-1.08,2.78-1.61,4.17-.45,1.19-.86,2.39-1.3,3.59s-.84,2.19-1.25,3.29-.67,1.91-1,2.87c-.88,2.69-1.76,5.37-2.62,8.06-.51,1.6-1,3.21-1.48,4.82-.38,1.28-.61,2.6-1.06,3.85a42.27,42.27,0,0,1-3,7,41.41,41.41,0,0,1-2.69,4.38c-1.82,2.36-3.8,4.6-5.73,6.88-.49.58-1,1.12-1.57,1.66a34.59,34.59,0,0,0-4.76,6c-.85,1.38-1.7,2.74-2.65,4a41.32,41.32,0,0,1-6,6.78c-.85.75-1.59,1.64-2.38,2.46-.2.2-.42.39-.63.58-1,.92-2,1.88-3,2.75s-2.34,1.84-3.54,2.73a89.89,89.89,0,0,0-7.74,6.31,31.12,31.12,0,0,1-2.87,2.2c-1.68,1.24-3.34,2.52-5.07,3.7-2.12,1.45-4.31,2.81-6.47,4.2l-1.67,1.07a11.32,11.32,0,0,1-2.27,1.17c-1,.35-1.82,1-2.77,1.47a28.32,28.32,0,0,1-4,1.61,7.46,7.46,0,0,1-5.18-.57,4.07,4.07,0,0,0-.44-.18,6.7,6.7,0,0,1-2.88-1.94,34.1,34.1,0,0,1-3-3.44,21.62,21.62,0,0,1-2.38-4.85,17.12,17.12,0,0,1-1-6,2,2,0,0,0-.19-.83,3.23,3.23,0,0,1-.54-1.49c0-.29-.34-.6-.56-.86-1.17-1.34-2.39-2.62-3.69-3.84a55.39,55.39,0,0,1-5.65-6.58c-.81-1.06-1.69-2.06-2.56-3.07a8.52,8.52,0,0,1-1.6-2.58c-.19-.5-.51-1-.75-1.43-.45-.91-.92-1.8-1.32-2.74a1.83,1.83,0,0,0-.75-.92,25,25,0,0,1-5.47-4.68c-1-1.13-2.13-2.19-3.06-3.38a53.49,53.49,0,0,1-5.4-7.81,20.55,20.55,0,0,1-2-5.42c-.21-1-.12-2.07-.39-3.07,0-.11.05-.22.07-.32"/><path class="cls-1" d="M83.36,88.28l0,.06.54-.48,0-.06-.54.48"/><path class="cls-1" d="M70.37,87.73a1,1,0,0,0-.08-.11l-.39.26L70,88l.37-.28"/><path class="cls-1" d="M90.81,26.41a.78.78,0,0,0,0-.14l-.54-.19a1.21,1.21,0,0,1,0,.14l.54.19"/><path class="cls-1" d="M140.45,108l.17,0,.21-.46-.11-.06-.27.48"/><path class="cls-1" d="M102.86,103.1l.07.13.33-.3-.06-.07-.34.24"/><path class="cls-1" d="M68.68,81.85l-.06-.14-.33.14a.61.61,0,0,0,0,.15l.34-.15"/><path class="cls-1" d="M106.91,139.15a.61.61,0,0,1,0-.12l-.45.15a1.22,1.22,0,0,1,.07.17l.43-.2"/><path class="cls-1" d="M61.44,96.17c0,.1,0,.21-.07.32a3.37,3.37,0,0,1-.36.3c-.49.33-.68.32-1-.18q-1.07-1.68-2-3.42a12.88,12.88,0,0,1-.9-2c.44.16.58.58.83.9s.71.87,1.06,1.3a5,5,0,0,1,.37.43,8.32,8.32,0,0,0,2.11,2.39"/><path class="cls-1" d="M134.07,138.26a3,3,0,0,1,1.63-2.38c1.05-.77,2.12-1.52,3.17-2.28a10.06,10.06,0,0,1,1.37-1,2.85,2.85,0,0,0,1.33-1.87c.1-.31.26-.59.49-1.1l.49,1.1a6.27,6.27,0,0,0,.59-.42c1.72-1.53,3.45-3.07,5.16-4.62.72-.66,1.4-1.37,2.08-2.07a5,5,0,0,0,.54-.67c.49-.68.43-1-.31-1.55a.91.91,0,0,1,1-.68c.35,0,.6.42.61,1s0,1.1,0,1.66c-.62.75-1.27,1.55-2,2.32a59.21,59.21,0,0,1-5.47,5.16,46.92,46.92,0,0,1-5.37,4.26c-1,.62-1.78,1.43-2.7,2.11a8.62,8.62,0,0,1-1.55.91,4.39,4.39,0,0,1-1.1.17"/><path class="cls-1" d="M159.93,96.94a2.1,2.1,0,0,1,.06.65,39.17,39.17,0,0,1-1.59,4.53,57.45,57.45,0,0,1-3,5.27q-1.87,3-3.89,5.88a11,11,0,0,1-1.64,1.7,5.72,5.72,0,0,1-1.09.72,1.26,1.26,0,0,1-.63.16.36.36,0,0,1-.32-.6,5.54,5.54,0,0,1,.92-1.07,9.12,9.12,0,0,0,1.86-2.15c1.32-2.08,2.71-4.13,4.08-6.19.94-1.42,1.92-2.82,2.8-4.27A19.77,19.77,0,0,0,158.63,99a4.51,4.51,0,0,1,1.3-2"/><path class="cls-1" d="M126.4,136.5c.16-.28.22-.38.32-.57a30.94,30.94,0,0,0,8.77,3.63c0,.67-.12.79-.66.65a11.21,11.21,0,0,1-1.79-.64c-2.18-1-4.36-2-6.64-3.07"/><path class="cls-1" d="M111.61,139.13a36,36,0,0,0,7.44,4.24c-.12,0-.25.13-.36.1a14,14,0,0,1-3.63-1.37c-.77-.44-1.58-.8-2.36-1.23a6.72,6.72,0,0,1-1.17-.8c-.25-.22-.47-.57.08-.94"/><path class="cls-1" d="M114,145.62a4.57,4.57,0,0,1-.85-.15,16.29,16.29,0,0,1-3.89-1.95,18.83,18.83,0,0,0-1.62-1c-.39-.23-.5-.53-.16-1,1.1.7,2.15,1.43,3.25,2.08s2.23,1.21,3.34,1.81l-.07.23"/><path class="cls-1" d="M113.63,138a57.68,57.68,0,0,0,7.16,3.59s0,.11,0,.31c-1-.37-2-.7-2.94-1.07s-1.94-.76-2.88-1.19a9.75,9.75,0,0,1-1.39-.82c-.26-.17-.39-.42,0-.82"/><path class="cls-1" d="M126.57,140.36a20.11,20.11,0,0,0,5.24,1.52c-.13.73-.25.86-.77.72a19.8,19.8,0,0,1-2.23-.81,10.79,10.79,0,0,1-1.5-.8,7.26,7.26,0,0,1-.74-.63"/><path class="cls-1" d="M120.62,139.5l-3.05-1.09c-.54-.19-1.06-.41-1.6-.56a.89.89,0,0,1-.75-.92,6.06,6.06,0,0,1,2.79,1c.87.5,1.8.88,2.7,1.31l-.09.22"/><path class="cls-1" d="M130.51,134.33c.93.47,2,.62,2.74,1.47.14.17.27.51.19.64a.77.77,0,0,1-.64.27,6.78,6.78,0,0,1-1.14-.37c.36-.62,0-.89-.41-1.17a8.92,8.92,0,0,1-.84-.68l.1-.16"/><path class="cls-1" d="M128.78,126.33c.71,0,.92.15.94.59s-.21.46-.48.46-.49-.37-.46-1"/><path class="cls-1" d="M131.48,90l-.16-.17-.36.36s.12.12.13.11.26-.2.39-.3m1.57-4.4c.42.44.77.13,1.12-.1l-1.12.1m-1.82,3c-.55-.41-.62-.38-1.34.59l1.34-.59m5.27,5.15c.84-.55.9-.81.5-1.84-.41.53-.34,1.13-.5,1.84m-12.59,3.46c-.74-.53-1.33-.11-1.92,0-.21,0-.38.31-.69.59a4.17,4.17,0,0,0,2.61-.59m2.87-5.41a5.54,5.54,0,0,0,2.74-1L128,90.54l-1.23,1.22m-13,21.53a3.23,3.23,0,0,0-2.23.93,4.4,4.4,0,0,0-.63,2.28c1-1.06,1.91-2.13,2.86-3.21m-1.5-.75a4.1,4.1,0,0,0,3.23-2.31c-.8.3-1.44.59-2.12.79s-1,.77-1.11,1.52m6.45-7.74-2.75.43-.55,1.36c.78-.17,1.37-.3,2-.4a1.66,1.66,0,0,0,1.35-1.39m-5.32,5.13c1.84-.43,4-1.45,3.81-2.74l-2.58.48-1.23,2.26m9.77-14.23c.79-.24,1.45-.45,2.12-.64A2,2,0,0,0,127,93.38c.71-.09.71-.09,1.18-.87-1.88.76-3.9,1.06-5,3.19m-3.08,7.3-.49-.18c-.25-.07-.57-.13-.46-.46a.94.94,0,0,1,.5-.48,2.63,2.63,0,0,1,.84-.18.58.58,0,0,0,.56-.73c-.32-.35-1.14.13-1-.68l2.45-1.23a1,1,0,0,1,0-.14l-2.27.13c-.57.78-1.18,1.63-1.8,2.47a32.49,32.49,0,0,0-1.8,2.77c1.08-.27,2-.47,2.85-.72.2-.06.35-.3.66-.57m-8.46,15.31c0,.1.07.19.11.29a9.14,9.14,0,0,0,1.65.06,29.2,29.2,0,0,0,3.35-.67c.41-.1,1-.21,1-.81a10.29,10.29,0,0,0-4.27-1.65l-1.87,2.78m7.75-2.25c.58-.77,1.1-1.39,1.55-2.06,1-1.51,1.93-3.06,2.91-4.58.36-.55.8-1,1.19-1.59s.63-1,1-1.41c1.3-1.72,2.59-3.45,3.92-5.15q1.36-1.77,2.85-3.45c1-1.09,2-2.12,2.84-3a7.74,7.74,0,0,1,0-1.56c.24-1.15.56-2.28.84-3.42a3.76,3.76,0,0,0,.21-1.73,1.55,1.55,0,0,0-1.48,1.39c-.34,1.45-.72,2.89-1.1,4.33-.25,1-.54,1.89-.81,2.84-.08.27-.2.46-.52.44s-.45-.25-.3-.72c.26-.78.55-1.55.8-2.33.36-1.15.71-2.3,1-3.46a9.23,9.23,0,0,0,.17-1.36c-.5.44-.79.74-1.12,1a3.16,3.16,0,0,0-1.24,2.07,24.57,24.57,0,0,1-.64,2.38c-.49,1.58-1,3.14-1.51,4.7-.12.35-.22.87-.74.62s-.11-.62,0-.93q.75-2.25,1.54-4.49c.16-.48.39-.93.56-1.41.1-.3.16-.63.24-1l-.19-.08c-.88.79-1.78,1.58-2.66,2.38a1,1,0,0,0-.17.43c-.33,1.23-.62,2.47-1,3.68s-.82,2.46-1.22,3.66c-.48.08-.71-.05-.64-.49a2.12,2.12,0,0,1,.17-.54c.52-1.53,1-3.06,1.56-4.59a4.69,4.69,0,0,0,.12-.75,9.2,9.2,0,0,0-1.54,1.51c-.72.88-1.42,1.79-2.12,2.67.7,1.09.35,1.45-.55,1.81a1.26,1.26,0,0,0-.58.66,11.21,11.21,0,0,0-.32,1.3c-.2.76-.42,1.51-.64,2.31-.25-.06-.49-.06-.52-.14a1.26,1.26,0,0,1-.1-.71,10.53,10.53,0,0,1,.37-1.21l-.21-.1c-.21.29-.46.56-.64.87q-1.51,2.53-3,5.08c-.78,1.33-1.77,2.57-1.8,4.36l3.5,1.76m12.33-30.38-.49-.86c.52-1.06.63-1.09,1.76-1a7.66,7.66,0,0,0,1.79,0,1.07,1.07,0,0,1,1.07.43c.08.62-.48.66-.82.89.36.79.34,1-.39,1.35a19.79,19.79,0,0,1-1.83.79l-.48.22.6.67,3.84-2.93c.77-.58,1.16-.5,1.68.32.12.19.26.36.38.55a.92.92,0,0,1,.11,1,3.25,3.25,0,0,0-.24,1.77,34.9,34.9,0,0,0,.35,3.69,1.18,1.18,0,0,1-.41,1.24,2.36,2.36,0,0,0-.87,1.08.59.59,0,0,1-.32.32,6.32,6.32,0,0,0-2.59,2.18c-1.68,1.94-3.35,3.9-4.95,5.9-1,1.29-1.94,2.66-2.89,4-.83,1.16-1.68,2.31-2.45,3.51-1.16,1.82-2.25,3.68-3.37,5.53-.2.33-.34.69-.52,1a3.34,3.34,0,0,1-1.38,1.38c-1.92,1.07-4,1.12-6.11,1.52-.73.13-1.47.22-2.21.32a1.66,1.66,0,0,1-1.75-1,6.38,6.38,0,0,1-.26-3.27,24.89,24.89,0,0,1,1.79-4.79,38,38,0,0,1,1.83-3.74c.65-1.19,1.4-2.33,2.12-3.48s1.35-2.3,2.12-3.38c1-1.37,2-2.7,3.06-4s2.43-2.76,3.69-4.1c.65-.69,1.38-1.31,2.08-2,1.33-1.22,2.64-2.46,4-3.65.63-.56,1.35-1,2.06-1.55"/><path class="cls-1" d="M103,120c.34-.09.76-.34,1-.22.48.22.26.73.11,1.09-.48,1.15-1,2.28-1.51,3.39-.94,1.91-1.91,3.79-2.88,5.68-.39.76-.8,1.52-1.21,2.27-.12.23-.34.44-.6.23a.75.75,0,0,1-.13-.57,1.9,1.9,0,0,1,.26-.61c.57-1.09,1.18-2.17,1.74-3.26q1.08-2.11,2.11-4.25c.35-.73.7-1.48,1-2.25a6.59,6.59,0,0,0,.19-1.27c0-.08,0-.16-.08-.23"/><path class="cls-1" d="M117.65,81.35c1-.09,2-.22,3-.25s2,.07,2.92.09a5,5,0,0,0,.84-.16.72.72,0,0,1,.94.39c-.21.12-.43.23-.62.36a2.09,2.09,0,0,0-.54.43c-.4.56-1.09.72-1.47.19a1,1,0,0,0-1-.36c-1.17,0-2.34,0-3.51.13-.52,0-.71-.14-.6-.82"/><path class="cls-1" d="M96.72,129.78c1.53-2.94,3.67-5.51,4.36-8.87.47.16.72.43.56.91a18.15,18.15,0,0,1-.92,2.39c-.82,1.6-1.73,3.16-2.6,4.73a6.81,6.81,0,0,1-.45.73c-.21.3-.49.38-1,.11"/><path class="cls-1" d="M146.65,71.12c-.86-.19-1-.5-.47-1.12a1.73,1.73,0,0,1,.28-.26c.49-.41.9-.3,1,.35a17.48,17.48,0,0,1,.19,2.18c0,1.3.06,2.6.08,3.91-.58.26-.82.18-.89-.37a3,3,0,0,1,0-.66,14.28,14.28,0,0,0-.23-4"/><path class="cls-1" d="M119.64,79.58c.55-.09,1.11-.22,1.66-.26.88-.06,1.76,0,2.64-.09a5.24,5.24,0,0,0,.92-.2,2.35,2.35,0,0,1,.35-.11.54.54,0,0,1,.66.52c0,.34-.14.53-.5.54-1.73.07-3.46.16-5.19.2-.2,0-.4-.27-.6-.42l.06-.18"/><path class="cls-1" d="M119.05,75.32c1.51.07,2.93.08,4.33.22a2.81,2.81,0,0,0,1.55-.15c.3-.14.61-.11.69.21a.68.68,0,0,1-.35.55,6.75,6.75,0,0,1-1.67.25c-1.13,0-2.27-.12-3.4-.18a1.1,1.1,0,0,1-1.15-.9"/><path class="cls-1" d="M143.11,76.46a4.42,4.42,0,0,1-.07-.78c.06-1,.14-2,.24-2.93,0-.32.12-.61-.24-.83a.58.58,0,0,1-.12-.54,1.26,1.26,0,0,1,.67-.42.72.72,0,0,1,.53.29.9.9,0,0,1,.1.55c-.07,1.42-.15,2.85-.25,4.27a.8.8,0,0,1-.37.45c-.1.06-.29,0-.49-.06"/><path class="cls-1" d="M125.57,77.06l.67,1a4.26,4.26,0,0,1-.91.31c-1.45.07-2.9.11-4.35.15-.33,0-.72,0-.83-.58.6-.1,1.16-.22,1.73-.29a5.88,5.88,0,0,1,1.51,0,2.78,2.78,0,0,0,2.18-.51"/><path class="cls-1" d="M140.13,76.09c0-.9.07-1.8.11-2.74l-.67-.06a1.05,1.05,0,0,1,1-.84.65.65,0,0,1,.58.74c0,.86-.15,1.71-.24,2.56,0,.35-.23.51-.8.34"/><path class="cls-1" d="M95,127.75a2.28,2.28,0,0,1,0-.61c.2-.6.44-1.19.66-1.78.11-.3.32-.54.63-.41a.64.64,0,0,1,.29.59,12.07,12.07,0,0,1-.81,2c-.08.14-.47.12-.78.2"/><path class="cls-1" d="M116.8,91.22c0-.33-.11-.54,0-.67a7.85,7.85,0,0,1,.76-1.2c.08-.11.35-.13.5-.09s.18.28.15.39a6.82,6.82,0,0,1-.59,1.36c-.09.15-.46.13-.78.21"/><path class="cls-1" d="M136.39,75.86l-.25-.28c-.25-.25-.28-.51,0-.74a.52.52,0,0,1,.76.09,1.55,1.55,0,0,1,.39.54.86.86,0,0,1-.07.66c-.23.26-.52.16-.73-.11l-.11-.15h0"/><path class="cls-1" d="M132.84,76.38c.69-.39,1-.41,1.2-.11a.58.58,0,0,1-.25.8c-.36.18-.56.05-.95-.69"/><path class="cls-1" d="M117.15,88.42c.18-.48,0-1,.62-1.12a.46.46,0,0,1,.56.48c-.08.6-.6.54-1.18.64"/><path class="cls-1" d="M39.09,18.23c.11.2.39.48.34.65-.18.56-.66.06-1.14.24.6.23,1.07.43,1.56.59,1,.31,1,.3,1.07,1.15,1,.85,1.95,1.63,2.85,2.47.49.46.44.54-.07,1.09a2.79,2.79,0,0,1-.43-.34,11.83,11.83,0,0,0-2.66-2.43.53.53,0,0,1-.15-.11c-1.2-1.41-2.91-1.55-4.56-1.82-.33,0-.66-.13-1-.19.11-1.12,1-.51,1.49-.87L36,17.9c.29-.53.74-.12,1.12-.29.06-.19.14-.42.2-.63.1,0,.17-.06.22-.05.49.11,1,.21,1.48.36a2.75,2.75,0,0,1,.6.38l-.54.56"/><path class="cls-1" d="M69.91,46.89l5.33.66c.82.1,1.63.23,2.45.27.56,0,1.17,0,1.4-.66.61.47.65.79.15,1a2.54,2.54,0,0,1-1.17.27c-1.43-.08-2.85-.21-4.26-.35-1.1-.11-2.2-.24-3.29-.38-.53-.06-.53-.07-.61-.82"/><path class="cls-1" d="M42.43,17.76a4.48,4.48,0,0,1-.77-.53,6.77,6.77,0,0,1-.73-1.1c-.1-.15-.22-.42-.15-.51.38-.54-.07-.88-.26-1.28l-.11-.15a1.1,1.1,0,0,1,0-1.25.47.47,0,0,1,.46-.15c.4.23.89.4.92,1,0,.06,0,.13,0,.19-.31.71.08,1.15.55,1.63.72.74.71.95,0,2.17"/><path class="cls-1" d="M66.9,43.94c.56.07,1,.09,1.49.19s.76.26,1.16.36c.61.15,1.22.28,1.84.4l3.65.67a2.68,2.68,0,0,0,1.85-.08c.11-.06.35.14.53.22-.1.18-.15.45-.29.51a1.48,1.48,0,0,1-.83.09c-2.47-.44-4.92-.92-7.38-1.38-.47-.09-1-.13-1.41-.23s-.77-.18-.61-.75"/><path class="cls-1" d="M51.37,29.91v.65c-1.12-.26-2.16-.48-3.19-.75s-2.13-.62-3.2-.94a1.06,1.06,0,0,1-.5-.24.7.7,0,0,1-.12-.51.43.43,0,0,1,.36-.22,4,4,0,0,1,1,.18c1.17.39,2.32.84,3.49,1.23.66.22,1.34.38,2.13.6"/><path class="cls-1" d="M43.78,26l-1.17-.37c-.48-.16-.46-.44-.16-.87l4,.55c0,.8,0,.83-.59.79L43.75,26h0"/><path class="cls-1" d="M72.29,43.4A8.18,8.18,0,0,1,67.6,43a1.11,1.11,0,0,1-.53-.62,6.69,6.69,0,0,1,2.64.48,20.31,20.31,0,0,0,2.6.34,1.23,1.23,0,0,1,0,.2"/><path class="cls-1" d="M90.83,55.29l.47.22c-.5,1.85-2,2.71-3.14,1.82.78-.8,2.24-.68,2.67-2"/><path class="cls-1" d="M44.24,15.56a10.06,10.06,0,0,1,1,.42.43.43,0,0,1,.21.37c0,.16-.2.41-.3.4a1.78,1.78,0,0,1-1-.23c-.28-.22-.3-.6.08-1"/><path class="cls-1" d="M45.59,17.57c.72-.26,1-.19,1.1.31a.51.51,0,0,1-.42.71c-.4,0-.61-.27-.68-1"/><path class="cls-1" d="M129,47.25a10.09,10.09,0,0,1,3.44.28c0-.24.06-.44.09-.68a2.09,2.09,0,0,1,.25,0l4.25.5c.09,0,.23,0,.28,0a1.34,1.34,0,0,1,.36.6c0,.09-.29.33-.46.34a7.64,7.64,0,0,1-1.2-.11c-.25.65-.72.71-1.36.58-1.72-.33-3.44-.58-5.16-.88-.39-.07-.39-.08-.49-.65"/><path class="cls-1" d="M112.56,36.64a12.78,12.78,0,0,1,1.31.39,30.83,30.83,0,0,0,3.88.93c1.59.45,3.22.62,4.83.93a2.31,2.31,0,0,0,2.33-.33l.51.79a1.43,1.43,0,0,1-1.41.37c-1.53-.24-3.06-.51-4.59-.8-1.24-.23-2.48-.51-3.72-.76l-2.8-.55c-.51-.1-.62-.38-.34-1"/><path class="cls-1" d="M111.77,49.81c.28-.05.52-.13.77-.15l8.91-.52c.55,0,1.14.2,1.57-.39,0-.08.46,0,.67.14s.21.35.17.39-.37.38-.57.39c-2,.13-3.92.25-5.89.3a26.53,26.53,0,0,0-5.11.37.77.77,0,0,1-.51-.14s0-.22,0-.39"/><path class="cls-1" d="M125.41,37.71c.18.45-.15.54-.42.55a3.62,3.62,0,0,1-1-.15c-1.84-.46-3.68-.94-5.51-1.41-1.35-.35-2.7-.68-4.16-1,.08-.29.08-.61.21-.68s.59-.09.68,0c.43.57,1,.49,1.61.6,1,.2,2,.54,3,.82l2.71.81a14.11,14.11,0,0,0,1.55.4,9.58,9.58,0,0,0,1.35.07"/><path class="cls-1" d="M115.1,33.68c1.4.36,2.77.64,4.07,1.1a10.18,10.18,0,0,1,1.74.6c.85.47,1.79.31,2.65.6a1.12,1.12,0,0,0,.64-.09c.48-.18.51.18.66.45a1.63,1.63,0,0,1-1.64.31c-.89-.22-1.78-.47-2.67-.71-1.34-.35-2.69-.7-4-1.07-.42-.11-.84-.27-1.26-.42s-.41-.42-.16-.77"/><path class="cls-1" d="M118,33.12a9.84,9.84,0,0,1,1.41.11c1.39.3,2.77.64,4.15,1,.16,0,.35,0,.46.12a1.14,1.14,0,0,0,1.62,0c.12.15.23.23.25.34s.14.55,0,.69-.45.15-.67.11c-1.92-.41-3.83-.82-5.74-1.28a1.73,1.73,0,0,1-1.51-1"/><path class="cls-1" d="M126.42,32.72c.13.4,0,.66-.55.67a5.15,5.15,0,0,1-1,0c-1.54-.33-3.08-.68-4.61-1.05a4.73,4.73,0,0,1-.89-.32c-.34-.16-.44-.43-.32-.87a1.67,1.67,0,0,1,.71,0,10.86,10.86,0,0,0,2.8.76l3.9.82"/><path class="cls-1" d="M135.31,50.55c.08.61-.06.84-.52.86a4.3,4.3,0,0,1-.95-.06c-2-.3-3.93-.61-5.9-.94a1.19,1.19,0,0,1-.7-.36c-.11-.13,0-.43,0-.61.17,0,.21,0,.23,0a12.2,12.2,0,0,0,3.79.69,2,2,0,0,1,.91.22,3.25,3.25,0,0,0,3.12.24"/><path class="cls-1" d="M112.26,52.11c3.54-.5,7.14-.1,10.7-.8,0-.2,0-.37,0-.69a3.42,3.42,0,0,1,.78.56c.07.08,0,.43-.17.53a1.21,1.21,0,0,1-.63.17c-1.43.1-2.85.21-4.28.27-1.84.08-3.68.11-5.52.16l-.9,0v-.23"/><path class="cls-1" d="M122.51,47.5a8.49,8.49,0,0,1-5.24.47c-.5-.09-1-.06-1.52-.11-.32,0-.63-.12-.62-.54l7.38.18"/><path class="cls-1" d="M131.38,42.69a1.3,1.3,0,0,1,.18,1.5.75.75,0,0,1-1,0c-.4-.44-.8-.88-1.17-1.35-.11-.15-.23-.47-.16-.56s.46-.35.62-.3a14.85,14.85,0,0,1,1.54.69"/><path class="cls-1" d="M124.7,31.36c-.91-.21-1.83-.4-2.74-.62a.85.85,0,0,1-.73-1,8,8,0,0,1,3.25.86c.18.08.28.35.42.53l-.2.25"/><path class="cls-1" d="M136.32,46.06a5.18,5.18,0,0,1-3.32-.41.63.63,0,0,1-.47-.7l2.07.26a10.41,10.41,0,0,0,1.12.16c.44,0,.49.28.6.69"/><path class="cls-1" d="M133.22,37.28c.56.6.47,1.2-.18,1.51a.53.53,0,0,1-.8-.2,4.76,4.76,0,0,1-.39-.64A.75.75,0,0,1,132,37a.68.68,0,0,1,.87,0l.31.24"/><path class="cls-1" d="M133.33,36a.89.89,0,0,1-1.23.07.58.58,0,0,1,.07-.84.68.68,0,0,1,1,0,2.05,2.05,0,0,1,.16.73"/><path class="cls-1" d="M134.68,41.51c.56.16.78.53.64,1a.81.81,0,0,1-.61.45c-.16,0-.45-.21-.53-.4-.22-.52.14-.8.5-1.06"/><path class="cls-1" d="M65.27,63.74c0-.21-.14-.41-.09-.56a.6.6,0,0,1,.39-.34,4.94,4.94,0,0,0,3.81-3.05c.14-.29.16-.76.68-.59s.46.54.19,1.06a6.12,6.12,0,0,1-2.33,2.43c-.7.42-1.45.76-2.18,1.11-.11.05-.29,0-.47-.06"/><path class="cls-1" d="M50.82,78.82c.11,0,.43,0,.58.15a.7.7,0,0,1-.07.65c-.57.68-1.19,1.31-1.79,2-.39.42-.77.84-1.14,1.27-.2.23-.41.3-.65.09a.45.45,0,0,1-.06-.68c.33-.38.67-.76,1-1.13l2.12-2.32"/><path class="cls-1" d="M45.4,81c-.19-.67.17-.88.45-1.11.62-.49,1.23-1,1.9-1.42a1.44,1.44,0,0,0,.79-1.74c.48-.11.74-.13.82.39A1.92,1.92,0,0,1,48.6,79c-.75.62-1.57,1.17-2.38,1.72a4,4,0,0,1-.82.31"/><path class="cls-1" d="M54.17,59.22c-.72-1.14-1.37-2.11-1.94-3.12s-.49-1.59.34-2.57a4.84,4.84,0,0,1,.1.64,8.47,8.47,0,0,0,1.21,3.26,1.93,1.93,0,0,1,.29,1.79"/><path class="cls-1" d="M58.53,58.4c-1.48-1.06-2.28-4.08-1.54-6.12.53,2.1,1,4.07,1.54,6.12"/><path class="cls-1" d="M59.86,57.2c-.22-.9-.45-1.69-.6-2.5a2.1,2.1,0,0,1,.59-2.26c.18,1.14.36,2.22.5,3.3.06.5.24,1.09-.49,1.46"/><path class="cls-1" d="M62.61,61.38c-.1.25-.12.46-.24.55a2.36,2.36,0,0,1-1.6.46c-.45,0-.89-.07-1.33-.07-.28,0-.51,0-.56-.38s.24-.48.53-.49c.67,0,1.33-.05,2-.06h1.21"/><path class="cls-1" d="M45.54,60.17a6.31,6.31,0,0,1-3.37-1.09c-.09-.06-.09-.28-.19-.59a19.51,19.51,0,0,1,3.56,1.68"/><path class="cls-1" d="M45.17,58.12l2.74,2.82a4.3,4.3,0,0,1-2.74-2.82"/><path class="cls-1" d="M65.08,32.57A.86.86,0,0,1,66.15,32c.35.05.39.32.43.63a.75.75,0,0,0,.38.49,34,34,0,0,0,6.15,2.23c.64.17,1.28.33,1.91.47,1.17.27,2.34.54,3.52.77.91.17,1.83.26,2.73.41.4.07.83.12,1,.65a1.92,1.92,0,0,1-1.54.24,41.84,41.84,0,0,1-7.22-1.7c-2.19-.72-4.35-1.54-6.5-2.37a4.63,4.63,0,0,1-1.92-1.29"/><path class="cls-1" d="M79.6,35.07c-.06.27-.09.45-.14.69a11.07,11.07,0,0,1-2.5-.57c-.86-.39-1.8-.59-2.69-.93q-2.52-1-5-2A5.76,5.76,0,0,1,68,31.53c-.12-.08-.07-.38-.09-.58.2,0,.54-.11.59,0,.62,1,1.81,1.1,2.74,1.57.71.35,1.52.46,2.23.8,1.77.85,3.72,1,5.55,1.62l.54.16"/><path class="cls-1" d="M80.38,33.92c-.43.69-.91.49-1.29.37-.91-.27-1.8-.61-2.68-1s-1.79-.76-2.68-1.17a4.64,4.64,0,0,1-1.24-.83l7.89,2.6"/><path class="cls-1" d="M81.26,39.36h-.49v-.17l.49,0v.15"/><path class="cls-1" d="M147.51,37.9c.29.57.37,1-.12,1.41-.59-.63-.59-.75.12-1.41"/><path class="cls-1" d="M50.23,49.68a1.8,1.8,0,0,1-1.5-.56,29.58,29.58,0,0,1-4.1-3.81,1.9,1.9,0,0,0-.19-.21c-.21-.25-.29-.53,0-.75s.45,0,.64.29a16.49,16.49,0,0,0,2.82,2.78c.74.59,1.43,1.24,2.13,1.87a1.35,1.35,0,0,1,.2.39"/><path class="cls-1" d="M98.09,88.08c-.61.2-1.15.4-1.69.55-1.19.31-2.39.6-3.59.9a2.05,2.05,0,0,1-.65.1c-.15,0-.29-.15-.43-.23.11-.14.19-.36.33-.39.63-.18,1.28-.32,1.93-.45a9.87,9.87,0,0,0,3.72-1.28c.11-.08.38.08.57.13-.06.22-.12.45-.19.67"/><path class="cls-1" d="M13.89,12.65a35.22,35.22,0,0,1,5.59,2.4c.09,0,.12.19.25.42-.29-.06-.46-.09-.63-.14-1.32-.44-2.65-.86-4-1.33a4.31,4.31,0,0,1-1.1-.71c-.1-.08-.07-.32-.14-.64"/><path class="cls-1" d="M16,12c1.41.56,2.9.68,4,1.69,0,.08-.06.16-.08.23l-1.22-.31c-.42-.1-.86-.18-1.28-.3s-.72-.25-1.09-.32c-.54-.11-.53-.43-.34-1"/><path class="cls-1" d="M141.88,52.09c.14-1.31.28-2.52.41-3.73a1.15,1.15,0,0,1,1.06,1.17,3.67,3.67,0,0,1-.79,2.48c-.26.33-.51.28-.68.08"/><path class="cls-1" d="M143.46,47.8c-.17-.32-.41-.56-.42-.81a6.78,6.78,0,0,1,.14-1.49.28.28,0,0,1,.5-.18,1.47,1.47,0,0,1,.46.78,1.67,1.67,0,0,1-.68,1.7"/><path class="cls-1" d="M74.59,92.32l3.73-2.75a6.4,6.4,0,0,1-3,2.74c-.15.08-.39,0-.74,0"/><path class="cls-1" d="M69.52,104.94c.62-.61,1.22-1.24,1.86-1.82.12-.1.4,0,.6,0,0,.17,0,.41,0,.51-.53.53-1.09,1-1.67,1.53-.12.11-.39,0-.59.06l-.15-.27"/></g></g></svg>