<?xml version="1.0" standalone="no"?>
<!DOCTYPE svg PUBLIC "-//W3C//DTD SVG 20010904//EN"
 "http://www.w3.org/TR/2001/REC-SVG-20010904/DTD/svg10.dtd">
<svg version="1.0" xmlns="http://www.w3.org/2000/svg"
 width="638.000000pt" height="638.000000pt" viewBox="0 0 638.000000 638.000000"
 preserveAspectRatio="xMidYMid meet">
<metadata>
Created by potrace 1.14, written by Peter Selinger 2001-2017
</metadata>
<g transform="translate(0.000000,638.000000) scale(0.100000,-0.100000)"
fill="#000000" stroke="none">
<path d="M4437 5034 c-1 -1 -27 -4 -57 -8 -170 -19 -272 -39 -403 -77 -301
-89 -573 -266 -836 -543 -94 -99 -90 -94 -159 -181 -35 -44 -70 -88 -78 -98
-83 -102 -337 -513 -514 -832 -331 -595 -529 -842 -797 -998 -129 -74 -304
-137 -430 -153 -259 -34 -672 34 -933 153 -90 42 -135 45 -178 15 -87 -63 -60
-183 85 -370 230 -299 512 -477 876 -553 153 -33 449 -32 612 0 83 17 91 19
167 40 291 82 573 246 797 464 78 76 206 217 256 281 17 21 35 44 40 50 26 27
183 247 298 416 237 349 262 385 368 526 105 140 123 162 229 277 298 325 510
429 865 428 50 -1 99 -3 110 -5 11 -2 45 -7 75 -11 262 -36 498 -236 580 -494
36 -114 45 -243 24 -339 -7 -29 -13 -55 -13 -57 -2 -27 -31 -102 -59 -155
-132 -249 -365 -403 -621 -409 -100 -3 -139 -17 -174 -62 -40 -54 -95 -197
-112 -294 -9 -54 -7 -189 5 -239 51 -227 247 -418 470 -461 69 -13 224 -13
290 -1 175 33 377 125 535 244 220 166 407 442 503 742 33 105 67 233 77 295
4 22 9 54 11 70 3 17 7 41 10 55 26 142 26 576 -1 725 -29 158 -39 207 -61
282 -164 572 -572 1006 -1112 1183 -134 43 -220 62 -397 86 -42 6 -342 13
-348 8z"/>
</g>
</svg>
